# Sci-fi chess by Drummyfish (CC0); converted for OTBMaster3D
v -0.0638489 3.8161328 -1.9555922
v -0.0647106 3.7857378 -1.9729658
v -0.0617622 3.7555115 -1.9555268
v -0.0579521 3.7556801 -1.9207147
v 0.0013482 3.7593696 -1.9476817
v -0.0190039 3.7585170 -1.9761684
v -0.0348467 3.7877171 -1.9872500
v -0.0303373 3.8177698 -1.9698447
v -0.0099850 3.8186224 -1.9413580
v 0.0058577 3.7894220 -1.9302765
v -0.2530042 3.8118343 -1.9226227
v -0.2508160 3.7814393 -1.9398794
v -0.2509610 3.7512131 -1.9221935
v -0.2532940 3.7513816 -1.8872515
v -0.2554820 3.7817767 -1.8699948
v -0.2553371 3.8120029 -1.8876804
v -0.1166140 3.8148704 -1.9048883
v -0.1167589 3.7846441 -1.8872026
v -0.1145709 3.7542491 -1.9044594
v -0.1122379 3.7540805 -1.9394014
v -0.1120929 3.7843068 -1.9570873
v -0.1142811 3.8147018 -1.9398305
v -0.0570903 3.7860751 -1.9033413
v -0.0600387 3.8163016 -1.9207799
v 0.0484610 3.8020382 -1.9870547
v 0.0294304 3.8312383 -1.9836438
v -0.0051171 3.8303857 -1.9893156
v -0.0206343 3.8003330 -1.9983983
v -0.0016038 3.7711329 -2.0018091
v 0.0329438 3.7719855 -1.9961373
v 0.1459887 3.9545794 -2.6013982
v 0.1269583 3.9834390 -2.5957944
v 0.0924106 3.9830167 -2.6015143
v 0.0768935 3.9537349 -2.6128383
v 0.0959240 3.9248755 -2.6184421
v 0.1304716 3.9252977 -2.6127222
v 0.2315192 4.0977468 -3.1891444
v 0.2124887 4.1266065 -3.1835403
v 0.1779411 4.1261840 -3.1892605
v 0.1624240 4.0969024 -3.2005842
v 0.1814544 4.0680428 -3.2061882
v 0.2160021 4.0684652 -3.2004683
v 0.2317181 4.1434689 -3.3482459
v 0.2142304 4.1723285 -3.3388789
v 0.1792423 4.1719060 -3.3374333
v 0.1617419 4.1426244 -3.3453546
v 0.1792297 4.1137648 -3.3547215
v 0.2142177 4.1141868 -3.3561673
v 0.1729870 4.1682453 -3.4469728
v 0.1639094 4.1971049 -3.4293332
v 0.1359280 4.1966825 -3.4082787
v 0.1170245 4.1674008 -3.4048634
v 0.1261021 4.1385412 -3.4225030
v 0.1540834 4.1389632 -3.4435580
v 0.0509165 4.1950107 -3.5459869
v 0.0446940 4.2171340 -3.5195622
v 0.0332854 4.2048955 -3.4887967
v 0.0280997 4.1705346 -3.4844561
v 0.0343221 4.1484113 -3.5108809
v 0.0457305 4.1606493 -3.5416467
v -0.0580552 4.1983566 -3.5644813
v -0.0581875 4.2204800 -3.5373337
v -0.0623994 4.2082419 -3.5047927
v -0.0664786 4.1738806 -3.4993987
v -0.0663462 4.1517577 -3.5265462
v -0.0621346 4.1639957 -3.5590875
v 0.4357644 2.6209283 -3.7474189
v 0.4357644 4.1923575 -3.7474189
v 0.2505875 2.6209283 -3.7474189
v 0.2505875 4.0285463 -3.7474189
v 0.2505875 3.8988538 -4.9909072
v 0.2505875 2.6209283 -4.9909072
v 0.1622034 3.7201469 -1.8852836
v 0.1039092 3.7130878 -1.8574458
v -0.1228541 2.3352404 -2.0673342
v 0.0657945 3.7016702 -1.8124214
v 0.1044834 3.7053373 -1.8268821
v 0.0950488 3.7067916 -1.8326178
v 0.1568646 3.7168794 -1.8723978
v 0.1765838 3.7260823 -1.9086895
v 0.1622613 3.7201490 -1.8852917
v 0.1765838 2.6209283 -1.9086895
v 0.1568646 2.6209283 -1.8723978
v 0.1044834 2.6209283 -1.8268821
v 0.0657945 2.6209283 -1.8124214
v 0.0054373 4.1255999 -3.4841628
v 0.1287310 4.0917001 -3.3504810
v 0.1459081 4.0914836 -3.3496289
v 0.2460949 4.1489263 -3.5761499
v 0.0066383 4.1301236 -3.5020018
v -0.1721876 3.7364132 -1.9494287
v 0.0754066 3.7185936 -1.8791581
v 0.1287310 4.2385378 -3.3132451
v 0.0054373 4.2724376 -3.4469268
v -0.0125751 3.7857831 -2.1441157
v -0.0552335 3.7654989 -2.0641258
v 0.0009826 3.7623703 -2.0517883
v -0.1357819 3.7477927 -1.9943030
v -0.2225379 3.7396295 -1.9621112
v -0.1721904 3.7364278 -1.9494853
v -0.2225379 3.8864672 -1.9248750
v -0.1357819 3.8946307 -1.9570668
v -0.0552335 3.9123366 -2.0268896
v -0.0125751 3.9326210 -2.1068795
v -0.1228541 2.2379236 -2.1026359
v -0.1337992 2.6209283 -1.8124214
v -0.1254460 2.1538370 -3.4930694
v -0.1228541 2.1538370 -2.1026359
v -0.1228541 2.6209283 -2.1026359
v -0.1254460 2.6209283 -3.4930694
v -0.1228541 2.5233669 -1.9522110
v -0.2069886 2.3600874 -4.6346974
v -0.2069641 2.3600874 -4.0679684
v -0.1636713 2.6209283 -4.0024443
v -0.1637015 2.6209283 -4.6999574
v -0.2848682 3.9951885 -4.0900888
v -0.2856347 3.9463899 -4.6093440
v -0.0125751 3.9326210 -2.1068795
v -0.0552335 3.9123366 -2.0268896
v -0.1357819 3.8946307 -1.9570668
v -0.2225379 3.8864672 -1.9248750
v -0.2225379 3.7396295 -1.9621112
v -0.1357819 3.7477927 -1.9943030
v -0.0552335 3.7654989 -2.0641258
v -0.0125751 3.7857831 -2.1441157
v 0.0054373 4.2724376 -3.4469268
v 0.1287310 4.2385378 -3.3132451
v 0.1287310 4.0917001 -3.3504810
v 0.0054373 4.1255999 -3.4841628
v 0.5102484 3.1045792 -2.8997765
v 0.2340031 3.4382503 -2.3160448
v 0.3180444 3.4921691 -2.9425788
v 0.3210441 3.1007583 -2.9335482
v 0.5072488 3.4959903 -2.9088073
v 0.2405869 3.0861342 -2.3131483
v 0.2759495 3.3867054 -4.1031685
v 0.2759495 3.2691221 -4.1031685
v 0.3053455 3.3867054 -4.1540833
v 0.3053455 3.2691221 -4.1540833
v 0.3641372 3.3867054 -4.1540833
v 0.3641372 3.2691221 -4.1540833
v 0.3935330 3.3867054 -4.1031685
v 0.3935330 3.2691221 -4.1031685
v 0.3641372 3.3867054 -4.0522532
v 0.3641372 3.2691221 -4.0522532
v 0.3053455 3.3867054 -4.0522532
v 0.3053455 3.2691221 -4.0522532
v 0.2759495 3.5069811 -4.1031685
v 0.3053455 3.5069811 -4.1540833
v 0.3641372 3.5069811 -4.1540833
v 0.3935330 3.5069811 -4.1031685
v 0.3641372 3.5069811 -4.0522532
v 0.3053455 3.5069811 -4.0522532
v 0.2759495 3.6259408 -4.1031685
v 0.3053455 3.6259408 -4.1540833
v 0.3641372 3.6259408 -4.1540833
v 0.3935330 3.6259408 -4.1031685
v 0.3641372 3.6259408 -4.0522532
v 0.3053455 3.6259408 -4.0522532
v 0.2759495 3.7401266 -4.1031685
v 0.3053455 3.7401266 -4.1540833
v 0.3641372 3.7401266 -4.1540833
v 0.3935330 3.7401266 -4.1031685
v 0.3641372 3.7401266 -4.0522532
v 0.3053455 3.7401266 -4.0522532
v 0.2759495 3.8451869 -4.1031685
v 0.3053455 3.8451869 -4.1540833
v 0.3641372 3.8451869 -4.1540833
v 0.3935330 3.8451869 -4.1031685
v 0.3641372 3.8451869 -4.0522532
v 0.3053455 3.8451869 -4.0522532
v 0.2759495 3.9403117 -4.1031685
v 0.3053455 3.9403117 -4.1540833
v 0.3641372 3.9403117 -4.1540833
v 0.3935330 3.9403117 -4.1031685
v 0.3641372 3.9403117 -4.0522532
v 0.3053455 3.9403117 -4.0522532
v 0.2656717 3.9747760 -4.1031685
v 0.2874669 3.9945014 -4.1540833
v 0.3310574 4.0339518 -4.1540833
v 0.3528526 4.0536771 -4.1031685
v 0.3310574 4.0339518 -4.0522532
v 0.2874669 3.9945014 -4.0522532
v 0.2240192 4.0087271 -4.1031685
v 0.2292149 4.0376601 -4.1540833
v 0.2396062 4.0955262 -4.1540833
v 0.2448019 4.1244593 -4.1031685
v 0.2396062 4.0955262 -4.0522532
v 0.2292149 4.0376601 -4.0522532
v 0.0889526 4.0162878 -4.1031685
v 0.0863707 4.0455699 -4.1540833
v 0.0812070 4.1041346 -4.1540833
v 0.0786251 4.1334167 -4.1031685
v 0.0812070 4.1041346 -4.0522532
v 0.0863707 4.0455699 -4.0522532
v -0.0353941 4.0053239 -4.1031685
v -0.0379760 4.0346060 -4.1540833
v -0.0431397 4.0931706 -4.1540833
v -0.0457216 4.1224527 -4.1031685
v -0.0431397 4.0931706 -4.0522532
v -0.0379760 4.0346060 -4.0522532
v 0.2759495 3.3486240 -4.5460215
v 0.2759495 3.2310407 -4.5460215
v 0.3053455 3.3486240 -4.5969362
v 0.3053455 3.2310407 -4.5969362
v 0.3641372 3.3486240 -4.5969362
v 0.3641372 3.2310407 -4.5969362
v 0.3935330 3.3486240 -4.5460215
v 0.3935330 3.2310407 -4.5460215
v 0.3641372 3.3486240 -4.4951062
v 0.3641372 3.2310407 -4.4951062
v 0.3053455 3.3486240 -4.4951062
v 0.3053455 3.2310407 -4.4951062
v 0.2759495 3.4688997 -4.5460215
v 0.3053455 3.4688997 -4.5969362
v 0.3641372 3.4688997 -4.5969362
v 0.3935330 3.4688997 -4.5460215
v 0.3641372 3.4688997 -4.4951062
v 0.3053455 3.4688997 -4.4951062
v 0.2759495 3.5878592 -4.5460215
v 0.3053455 3.5878592 -4.5969362
v 0.3641372 3.5878592 -4.5969362
v 0.3935330 3.5878592 -4.5460215
v 0.3641372 3.5878592 -4.4951062
v 0.3053455 3.5878592 -4.4951062
v 0.2759495 3.7020452 -4.5460215
v 0.3053455 3.7020452 -4.5969362
v 0.3641372 3.7020452 -4.5969362
v 0.3935330 3.7020452 -4.5460215
v 0.3641372 3.7020452 -4.4951062
v 0.3053455 3.7020452 -4.4951062
v 0.2759495 3.8071055 -4.5460215
v 0.3053455 3.8071055 -4.5969362
v 0.3641372 3.8071055 -4.5969362
v 0.3935330 3.8071055 -4.5460215
v 0.3641372 3.8071055 -4.4951062
v 0.3053455 3.8071055 -4.4951062
v 0.2759495 3.9022300 -4.5460215
v 0.3053455 3.9022300 -4.5969362
v 0.3641372 3.9022300 -4.5969362
v 0.3935330 3.9022300 -4.5460215
v 0.3641372 3.9022300 -4.4951062
v 0.3053455 3.9022300 -4.4951062
v 0.2656717 3.9366946 -4.5460215
v 0.2874669 3.9564197 -4.5969362
v 0.3310574 3.9958701 -4.5969362
v 0.3528526 4.0155954 -4.5460215
v 0.3310574 3.9958701 -4.4951062
v 0.2874669 3.9564197 -4.4951062
v 0.2240192 3.9706457 -4.5460215
v 0.2292149 3.9995787 -4.5969362
v 0.2396062 4.0574446 -4.5969362
v 0.2448019 4.0863776 -4.5460215
v 0.2396062 4.0574446 -4.4951062
v 0.2292149 3.9995787 -4.4951062
v 0.0889526 3.9782062 -4.5460215
v 0.0863707 4.0074883 -4.5969362
v 0.0812070 4.0660529 -4.5969362
v 0.0786251 4.0953350 -4.5460215
v 0.0812070 4.0660529 -4.4951062
v 0.0863707 4.0074883 -4.4951062
v -0.0353941 3.9672422 -4.5460215
v -0.0379760 3.9965243 -4.5969362
v -0.0431397 4.0550890 -4.5969362
v -0.0457216 4.0843711 -4.5460215
v -0.0431397 4.0550890 -4.4951062
v -0.0379760 3.9965243 -4.4951062
v -0.1330603 3.0341411 -1.7159219
v -0.4203908 3.0355568 -1.7126586
v -0.4209911 2.9466524 -1.6676812
v -0.4196683 3.1510315 -1.7663773
v -0.1325391 3.1516609 -1.7693124
v -0.1335894 2.9492397 -1.8124214
v -0.1316102 3.3882682 -1.8124214
v -0.4183993 3.3882506 -1.8124214
v -0.1335894 2.9492397 -1.6676812
v -0.4209911 2.9466524 -1.8124214
v -0.4190412 3.2655191 -1.7975796
v -0.1321051 3.2651131 -1.7972302
v -0.1330603 3.0341411 -1.7159219
v -0.4203908 3.0355568 -1.7126586
v -0.4209911 2.9466524 -1.6676812
v -0.4196683 3.1510315 -1.7663773
v -0.1325391 3.1516609 -1.7693124
v -0.1316102 3.3882682 -1.8124214
v -0.4183993 3.3882506 -1.8124214
v -0.1335894 2.9492397 -1.6676812
v -0.4190412 3.2655191 -1.7975796
v -0.1321051 3.2651131 -1.7972302
v 0.4357644 2.6209283 -3.7474189
v 0.4357644 4.1923575 -3.7474189
v 0.0657945 3.7016702 -1.8124214
v 0.1044834 3.7053373 -1.8268821
v 0.1568646 3.7168794 -1.8723978
v 0.1765838 3.7260823 -1.9086895
v 0.1765838 2.6209283 -1.9086895
v 0.1568646 2.6209283 -1.8723978
v 0.1044834 2.6209283 -1.8268821
v 0.0657945 2.6209283 -1.8124214
v -0.1337992 2.6209283 -1.8124214
v 0.2340031 3.4382503 -2.3160448
v 0.3180444 3.4921691 -2.9425788
v 0.3210441 3.1007583 -2.9335482
v 0.2405869 3.0861342 -2.3131483
v -0.1335894 2.9492397 -1.8124214
v -0.1316102 3.3882682 -1.8124214
v -0.4183993 3.3882506 -1.8124214
v -0.4209911 2.9466524 -1.8124214
v -0.1228541 2.3352404 -2.0673342
v -0.1228541 2.2379236 -2.1026359
v -0.1337992 2.6209283 -1.8124214
v -0.1228541 2.1538370 -2.1026359
v -0.1228541 2.5233669 -1.9522110
v 0.0979455 3.8794360 -2.2987661
v 0.0786680 3.9080777 -2.2926917
v 0.1096710 3.8977757 -2.3726268
v 0.0908193 3.9270411 -2.3689618
v 0.1562520 3.9147911 -2.2974966
v 0.1369745 3.9434328 -2.2943785
v 0.1679775 3.9331307 -2.3354111
v 0.1491258 3.9623961 -2.3335295
v 0.1221823 3.9173441 -2.4514372
v 0.1033594 3.9466109 -2.4476719
v 0.1348336 3.9371319 -2.5311303
v 0.1162089 3.9666638 -2.5283246
v 0.1777518 3.9508181 -2.4534416
v 0.1589289 3.9800849 -2.4515646
v 0.1904031 3.9706059 -2.4931688
v 0.1717784 4.0001378 -2.4917703
v -0.2878888 4.1816239 -4.1091580
v -0.2886554 4.1701698 -4.6305752
v -0.5448757 4.5073586 -4.4318743
v -0.5449405 4.5109401 -4.3223825
v -0.5443952 4.4281511 -4.3196955
v -0.5443304 4.4245691 -4.4291878
v -0.5426521 4.1697693 -4.4209175
v -0.5427169 4.1733508 -4.3114257
v -0.5458185 4.6505003 -4.4365201
v -0.5458833 4.6540823 -4.3270278
v -0.3868362 4.5084014 -4.4318151
v -0.3869010 4.5119834 -4.3223228
v -0.3863557 4.4291940 -4.3196359
v -0.3862909 4.4256124 -4.4291282
v -1.2135147 3.8161328 -1.9555922
v -1.2126529 3.7857378 -1.9729658
v -1.2156014 3.7555115 -1.9555268
v -1.2194114 3.7556801 -1.9207147
v -1.2787118 3.7593696 -1.9476817
v -1.2583597 3.7585170 -1.9761684
v -1.2425168 3.7877171 -1.9872500
v -1.2470262 3.8177698 -1.9698447
v -1.2673786 3.8186224 -1.9413580
v -1.2832212 3.7894220 -1.9302765
v -0.6386818 3.8120029 -1.8876804
v -0.6386818 3.7817767 -1.8699948
v -0.6386818 3.7513816 -1.8872515
v -0.6386818 3.7512131 -1.9221935
v -0.6386818 3.7814393 -1.9398794
v -0.6386818 3.8118343 -1.9226227
v -1.0243593 3.8118343 -1.9226227
v -1.0265476 3.7814393 -1.9398794
v -1.0264025 3.7512131 -1.9221935
v -1.0240695 3.7513816 -1.8872515
v -1.0218816 3.7817767 -1.8699948
v -1.0220264 3.8120029 -1.8876804
v -1.1607494 3.8148704 -1.9048883
v -1.1606047 3.7846441 -1.8872026
v -1.1627927 3.7542491 -1.9044594
v -1.1651256 3.7540805 -1.9394014
v -1.1652706 3.7843068 -1.9570873
v -1.1630825 3.8147018 -1.9398305
v -1.2202733 3.7860751 -1.9033413
v -1.2173249 3.8163016 -1.9207799
v -1.3258245 3.8020382 -1.9870547
v -1.3067939 3.8312383 -1.9836438
v -1.2722464 3.8303857 -1.9893156
v -1.2567292 3.8003330 -1.9983983
v -1.2757597 3.7711329 -2.0018091
v -1.3103073 3.7719855 -1.9961373
v -1.4233522 3.9545794 -2.6013982
v -1.4043218 3.9834390 -2.5957944
v -1.3697741 3.9830167 -2.6015143
v -1.3542571 3.9537349 -2.6128383
v -1.3732874 3.9248755 -2.6184421
v -1.4078352 3.9252977 -2.6127222
v -1.5088828 4.0977468 -3.1891444
v -1.4898522 4.1266065 -3.1835403
v -1.4553046 4.1261840 -3.1892605
v -1.4397875 4.0969024 -3.2005842
v -1.4588180 4.0680428 -3.2061882
v -1.4933656 4.0684652 -3.2004683
v -1.5090816 4.1434689 -3.3482459
v -1.4915938 4.1723285 -3.3388789
v -1.4566059 4.1719060 -3.3374333
v -1.4391055 4.1426244 -3.3453546
v -1.4565933 4.1137648 -3.3547215
v -1.4915812 4.1141868 -3.3561673
v -1.4503505 4.1682453 -3.4469728
v -1.4412730 4.1971049 -3.4293332
v -1.4132916 4.1966825 -3.4082787
v -1.3943880 4.1674008 -3.4048634
v -1.4034657 4.1385412 -3.4225030
v -1.4314469 4.1389632 -3.4435580
v -1.3282800 4.1950107 -3.5459869
v -1.3220575 4.2171340 -3.5195622
v -1.3106489 4.2048955 -3.4887967
v -1.3054632 4.1705346 -3.4844561
v -1.3116857 4.1484113 -3.5108809
v -1.3230940 4.1606493 -3.5416467
v -1.2193084 4.1983566 -3.5644813
v -1.2191761 4.2204800 -3.5373337
v -1.2149642 4.2082419 -3.5047927
v -1.2108850 4.1738806 -3.4993987
v -1.2110174 4.1517577 -3.5265462
v -1.2152290 4.1639957 -3.5590875
v -0.6386818 4.2023230 -3.5686059
v -0.6386818 4.2244463 -3.5414586
v -0.6386818 4.2122078 -3.5089173
v -0.6386818 4.1778469 -3.5035233
v -0.6386818 4.1557236 -3.5306709
v -0.6386818 4.1679616 -3.5632122
v -1.7131280 2.6209283 -3.7474189
v -1.7131280 4.1923575 -3.7474189
v -1.5279510 2.6209283 -3.7474189
v -0.6386818 3.7016702 -1.8124214
v -1.5279510 4.0285463 -3.7474189
v -0.6386818 4.1923575 -3.7474189
v -0.6386818 4.1507602 -3.5833814
v -0.6386818 3.7255838 -1.9067236
v -0.6386818 2.6209283 -3.7474189
v -0.6386818 4.0952477 -3.7474189
v -1.5279510 3.8988538 -4.9909072
v -1.5279510 2.6209283 -4.9909072
v -0.6386818 4.1254072 -3.4834042
v -0.6386818 3.7394750 -1.9615023
v -0.6386818 2.6209283 -4.9909072
v -0.6386818 4.0285463 -3.7474189
v -0.6386818 3.8988538 -4.9909072
v -0.6386818 3.8863127 -1.9242661
v -0.6386818 4.2722454 -3.4461682
v -1.4395669 3.7201469 -1.8852836
v -1.3812728 3.7130878 -1.8574458
v -1.1545095 2.3352404 -2.0673342
v -1.3431580 3.7016702 -1.8124214
v -1.3818469 3.7053373 -1.8268821
v -1.3724124 3.7067916 -1.8326178
v -1.4342282 3.7168794 -1.8723978
v -1.4539473 3.7260823 -1.9086895
v -1.4396248 3.7201490 -1.8852917
v -1.4539473 2.6209283 -1.9086895
v -1.4342282 2.6209283 -1.8723978
v -0.6386818 2.6209283 -3.4932818
v -1.3818469 2.6209283 -1.8268821
v -1.3431580 2.6209283 -1.8124214
v -0.6386818 2.6209283 -2.1067343
v -1.2828009 4.1255999 -3.4841628
v -1.4060946 4.0917001 -3.3504810
v -1.4232717 4.0914836 -3.3496289
v -1.5234585 4.1489263 -3.5761499
v -1.2840018 4.1301236 -3.5020018
v -1.1051760 3.7364132 -1.9494287
v -1.3527701 3.7185936 -1.8791581
v -1.4060946 4.2385378 -3.3132451
v -1.2828009 4.2724376 -3.4469268
v -1.2647884 3.7857831 -2.1441157
v -1.2221301 3.7654989 -2.0641258
v -1.2783462 3.7623703 -2.0517883
v -1.1415817 3.7477927 -1.9943030
v -1.0548257 3.7396295 -1.9621112
v -1.1051731 3.7364278 -1.9494853
v -1.0548257 3.8864672 -1.9248750
v -1.1415817 3.8946307 -1.9570668
v -1.2221301 3.9123366 -2.0268896
v -1.2647884 3.9326210 -2.1068795
v -1.1545095 2.2379236 -2.1026359
v -1.1435643 2.6209283 -1.8124214
v -1.1519176 2.1538370 -3.4930694
v -1.1545095 2.1538370 -2.1026359
v -0.6386818 2.1538370 -2.1067343
v -0.6386818 2.1538370 -3.4932818
v -1.1545095 2.6209283 -2.1026359
v -1.1519176 2.6209283 -3.4930694
v -1.1545095 2.5233669 -1.9522110
v -0.6386818 2.6209283 -4.0017014
v -0.6386818 2.6209283 -4.7035198
v -1.0703750 2.3600874 -4.6346974
v -1.0703994 2.3600874 -4.0679684
v -0.6386818 2.3600874 -4.6375923
v -0.6386818 2.3600874 -4.0673647
v -1.1136923 2.6209283 -4.0024443
v -1.1136620 2.6209283 -4.6999574
v -0.6386818 3.9932241 -4.0860863
v -0.6386818 3.9388070 -4.6078358
v -0.9924954 3.9951885 -4.0900888
v -0.9917288 3.9463899 -4.6093440
v -1.2647884 3.9326210 -2.1068795
v -1.2221301 3.9123366 -2.0268896
v -1.1415817 3.8946307 -1.9570668
v -1.0548257 3.8864672 -1.9248750
v -1.0548257 3.7396295 -1.9621112
v -1.1415817 3.7477927 -1.9943030
v -1.2221301 3.7654989 -2.0641258
v -1.2647884 3.7857831 -2.1441157
v -1.2828009 4.2724376 -3.4469268
v -1.4060946 4.2385378 -3.3132451
v -1.4060946 4.0917001 -3.3504810
v -1.2828009 4.1255999 -3.4841628
v -0.6386818 4.2722454 -3.4461682
v -0.6386818 3.8863127 -1.9242661
v -0.6386818 3.7394750 -1.9615023
v -0.6386818 4.1254072 -3.4834042
v -1.7876120 3.1045792 -2.8997765
v -1.5113666 3.4382503 -2.3160448
v -1.5954080 3.4921691 -2.9425788
v -1.5984077 3.1007583 -2.9335482
v -1.7846123 3.4959903 -2.9088073
v -1.5179505 3.0861342 -2.3131483
v -1.5533130 3.3867054 -4.1031685
v -1.5533130 3.2691221 -4.1031685
v -1.5827091 3.3867054 -4.1540833
v -1.5827091 3.2691221 -4.1540833
v -1.6415007 3.3867054 -4.1540833
v -1.6415007 3.2691221 -4.1540833
v -1.6708965 3.3867054 -4.1031685
v -1.6708965 3.2691221 -4.1031685
v -1.6415007 3.3867054 -4.0522532
v -1.6415007 3.2691221 -4.0522532
v -1.5827091 3.3867054 -4.0522532
v -1.5827091 3.2691221 -4.0522532
v -1.5533130 3.5069811 -4.1031685
v -1.5827091 3.5069811 -4.1540833
v -1.6415007 3.5069811 -4.1540833
v -1.6708965 3.5069811 -4.1031685
v -1.6415007 3.5069811 -4.0522532
v -1.5827091 3.5069811 -4.0522532
v -1.5533130 3.6259408 -4.1031685
v -1.5827091 3.6259408 -4.1540833
v -1.6415007 3.6259408 -4.1540833
v -1.6708965 3.6259408 -4.1031685
v -1.6415007 3.6259408 -4.0522532
v -1.5827091 3.6259408 -4.0522532
v -1.5533130 3.7401266 -4.1031685
v -1.5827091 3.7401266 -4.1540833
v -1.6415007 3.7401266 -4.1540833
v -1.6708965 3.7401266 -4.1031685
v -1.6415007 3.7401266 -4.0522532
v -1.5827091 3.7401266 -4.0522532
v -1.5533130 3.8451869 -4.1031685
v -1.5827091 3.8451869 -4.1540833
v -1.6415007 3.8451869 -4.1540833
v -1.6708965 3.8451869 -4.1031685
v -1.6415007 3.8451869 -4.0522532
v -1.5827091 3.8451869 -4.0522532
v -1.5533130 3.9403117 -4.1031685
v -1.5827091 3.9403117 -4.1540833
v -1.6415007 3.9403117 -4.1540833
v -1.6708965 3.9403117 -4.1031685
v -1.6415007 3.9403117 -4.0522532
v -1.5827091 3.9403117 -4.0522532
v -1.5430353 3.9747760 -4.1031685
v -1.5648305 3.9945014 -4.1540833
v -1.6084210 4.0339518 -4.1540833
v -1.6302161 4.0536771 -4.1031685
v -1.6084210 4.0339518 -4.0522532
v -1.5648305 3.9945014 -4.0522532
v -1.5013827 4.0087271 -4.1031685
v -1.5065784 4.0376601 -4.1540833
v -1.5169697 4.0955262 -4.1540833
v -1.5221654 4.1244593 -4.1031685
v -1.5169697 4.0955262 -4.0522532
v -1.5065784 4.0376601 -4.0522532
v -1.3663161 4.0162878 -4.1031685
v -1.3637342 4.0455699 -4.1540833
v -1.3585706 4.1041346 -4.1540833
v -1.3559886 4.1334167 -4.1031685
v -1.3585706 4.1041346 -4.0522532
v -1.3637342 4.0455699 -4.0522532
v -1.2419693 4.0053239 -4.1031685
v -1.2393875 4.0346060 -4.1540833
v -1.2342238 4.0931706 -4.1540833
v -1.2316420 4.1224527 -4.1031685
v -1.2342238 4.0931706 -4.0522532
v -1.2393875 4.0346060 -4.0522532
v -1.5533130 3.3486240 -4.5460215
v -1.5533130 3.2310407 -4.5460215
v -1.5827091 3.3486240 -4.5969362
v -1.5827091 3.2310407 -4.5969362
v -1.6415007 3.3486240 -4.5969362
v -1.6415007 3.2310407 -4.5969362
v -1.6708965 3.3486240 -4.5460215
v -1.6708965 3.2310407 -4.5460215
v -1.6415007 3.3486240 -4.4951062
v -1.6415007 3.2310407 -4.4951062
v -1.5827091 3.3486240 -4.4951062
v -1.5827091 3.2310407 -4.4951062
v -1.5533130 3.4688997 -4.5460215
v -1.5827091 3.4688997 -4.5969362
v -1.6415007 3.4688997 -4.5969362
v -1.6708965 3.4688997 -4.5460215
v -1.6415007 3.4688997 -4.4951062
v -1.5827091 3.4688997 -4.4951062
v -1.5533130 3.5878592 -4.5460215
v -1.5827091 3.5878592 -4.5969362
v -1.6415007 3.5878592 -4.5969362
v -1.6708965 3.5878592 -4.5460215
v -1.6415007 3.5878592 -4.4951062
v -1.5827091 3.5878592 -4.4951062
v -1.5533130 3.7020452 -4.5460215
v -1.5827091 3.7020452 -4.5969362
v -1.6415007 3.7020452 -4.5969362
v -1.6708965 3.7020452 -4.5460215
v -1.6415007 3.7020452 -4.4951062
v -1.5827091 3.7020452 -4.4951062
v -1.5533130 3.8071055 -4.5460215
v -1.5827091 3.8071055 -4.5969362
v -1.6415007 3.8071055 -4.5969362
v -1.6708965 3.8071055 -4.5460215
v -1.6415007 3.8071055 -4.4951062
v -1.5827091 3.8071055 -4.4951062
v -1.5533130 3.9022300 -4.5460215
v -1.5827091 3.9022300 -4.5969362
v -1.6415007 3.9022300 -4.5969362
v -1.6708965 3.9022300 -4.5460215
v -1.6415007 3.9022300 -4.4951062
v -1.5827091 3.9022300 -4.4951062
v -1.5430353 3.9366946 -4.5460215
v -1.5648305 3.9564197 -4.5969362
v -1.6084210 3.9958701 -4.5969362
v -1.6302161 4.0155954 -4.5460215
v -1.6084210 3.9958701 -4.4951062
v -1.5648305 3.9564197 -4.4951062
v -1.5013827 3.9706457 -4.5460215
v -1.5065784 3.9995787 -4.5969362
v -1.5169697 4.0574446 -4.5969362
v -1.5221654 4.0863776 -4.5460215
v -1.5169697 4.0574446 -4.4951062
v -1.5065784 3.9995787 -4.4951062
v -1.3663161 3.9782062 -4.5460215
v -1.3637342 4.0074883 -4.5969362
v -1.3585706 4.0660529 -4.5969362
v -1.3559886 4.0953350 -4.5460215
v -1.3585706 4.0660529 -4.4951062
v -1.3637342 4.0074883 -4.4951062
v -1.2419693 3.9672422 -4.5460215
v -1.2393875 3.9965243 -4.5969362
v -1.2342238 4.0550890 -4.5969362
v -1.2316420 4.0843711 -4.5460215
v -1.2342238 4.0550890 -4.4951062
v -1.2393875 3.9965243 -4.4951062
v -1.1443033 3.0341411 -1.7159219
v -0.8569727 3.0355568 -1.7126586
v -0.8563725 2.9466524 -1.6676812
v -0.8576953 3.1510315 -1.7663773
v -1.1448245 3.1516609 -1.7693124
v -1.1437742 2.9492397 -1.8124214
v -1.1457534 3.3882682 -1.8124214
v -0.8589643 3.3882506 -1.8124214
v -1.1437742 2.9492397 -1.6676812
v -0.8563725 2.9466524 -1.8124214
v -0.8583224 3.2655191 -1.7975796
v -1.1452584 3.2651131 -1.7972302
v -1.1443033 3.0341411 -1.7159219
v -0.8569727 3.0355568 -1.7126586
v -0.8563725 2.9466524 -1.6676812
v -0.8576953 3.1510315 -1.7663773
v -1.1448245 3.1516609 -1.7693124
v -1.1457534 3.3882682 -1.8124214
v -0.8589643 3.3882506 -1.8124214
v -1.1437742 2.9492397 -1.6676812
v -0.8583224 3.2655191 -1.7975796
v -1.1452584 3.2651131 -1.7972302
v -1.7131280 2.6209283 -3.7474189
v -1.7131280 4.1923575 -3.7474189
v -0.6386818 3.7016702 -1.8124214
v -0.6386818 2.6209283 -1.8124214
v -1.3431580 3.7016702 -1.8124214
v -1.3818469 3.7053373 -1.8268821
v -1.4342282 3.7168794 -1.8723978
v -1.4539473 3.7260823 -1.9086895
v -1.4539473 2.6209283 -1.9086895
v -1.4342282 2.6209283 -1.8723978
v -1.3818469 2.6209283 -1.8268821
v -1.3431580 2.6209283 -1.8124214
v -1.1435643 2.6209283 -1.8124214
v -1.5113666 3.4382503 -2.3160448
v -1.5954080 3.4921691 -2.9425788
v -1.5984077 3.1007583 -2.9335482
v -1.5179505 3.0861342 -2.3131483
v -1.1437742 2.9492397 -1.8124214
v -1.1457534 3.3882682 -1.8124214
v -0.8589643 3.3882506 -1.8124214
v -0.8563725 2.9466524 -1.8124214
v -0.6386818 2.6209283 -1.8124214
v -0.6386818 2.2379236 -2.1067343
v -0.6386818 2.3352404 -2.0714326
v -1.1545095 2.3352404 -2.0673342
v -1.1545095 2.2379236 -2.1026359
v -1.1435643 2.6209283 -1.8124214
v -1.1545095 2.1538370 -2.1026359
v -0.6386818 2.1538370 -2.1067343
v -0.6386818 2.5233669 -1.9563096
v -1.1545095 2.5233669 -1.9522110
v -1.3753090 3.8794360 -2.2987661
v -1.3560315 3.9080777 -2.2926917
v -1.3870345 3.8977757 -2.3726268
v -1.3681829 3.9270411 -2.3689618
v -1.4336156 3.9147911 -2.2974966
v -1.4143381 3.9434328 -2.2943785
v -1.4453411 3.9331307 -2.3354111
v -1.4264894 3.9623961 -2.3335295
v -1.3995458 3.9173441 -2.4514372
v -1.3807230 3.9466109 -2.4476719
v -1.4121971 3.9371319 -2.5311303
v -1.3935724 3.9666638 -2.5283246
v -1.4551153 3.9508181 -2.4534416
v -1.4362924 3.9800849 -2.4515646
v -1.4677666 3.9706059 -2.4931688
v -1.4491420 4.0001378 -2.4917703
v -0.6386818 4.1793780 -4.1053066
v -0.6386818 4.1624985 -4.6296144
v -0.9894747 4.1816239 -4.1091580
v -0.9887081 4.1701698 -4.6305752
v -0.6386818 4.1727405 -4.3114791
v -0.6386818 4.1692257 -4.4206610
v -0.7324878 4.5073586 -4.4318743
v -0.7324231 4.5109401 -4.3223825
v -0.7329683 4.4281511 -4.3196955
v -0.7330331 4.4245691 -4.4291878
v -0.6386818 4.4240255 -4.4289303
v -0.6386818 4.4275408 -4.3197489
v -0.7347115 4.1697693 -4.4209175
v -0.7346467 4.1733508 -4.3114257
v -0.6386818 4.5068150 -4.4316177
v -0.6386818 4.5103297 -4.3224359
v -0.7315450 4.6505003 -4.4365201
v -0.7314802 4.6540823 -4.3270278
v -0.6386818 4.6499567 -4.4362631
v -0.6386818 4.6534719 -4.3270817
v -0.8905273 4.5084014 -4.4318151
v -0.8904625 4.5119834 -4.3223228
v -0.8910078 4.4291940 -4.3196359
v -0.8910726 4.4256124 -4.4291282
f 29 7 28
f 29 5 6
f 15 354 355
f 30 10 5
f 16 359 354
f 11 358 359
f 13 358 12
f 14 357 13
f 15 356 14
f 18 14 19
f 19 13 20
f 20 12 21
f 22 12 11
f 17 11 16
f 18 16 15
f 23 17 18
f 24 22 17
f 1 21 22
f 3 21 2
f 4 20 3
f 23 19 4
f 10 4 5
f 5 3 6
f 7 3 2
f 316 314 36
f 8 2 1
f 9 1 24
f 9 23 10
f 26 10 25
f 27 9 26
f 36 37 31
f 29 36 30
f 29 34 35
f 28 33 34
f 323 325 33
f 25 315 26
f 42 43 37
f 35 42 36
f 35 40 41
f 34 39 40
f 33 38 39
f 31 38 32
f 48 49 43
f 41 48 42
f 40 47 41
f 40 45 46
f 39 44 45
f 38 43 44
f 54 55 49
f 47 54 48
f 46 53 47
f 46 51 52
f 45 50 51
f 44 49 50
f 60 61 55
f 54 59 60
f 53 58 59
f 52 57 58
f 50 57 51
f 49 56 50
f 66 416 61
f 59 66 60
f 59 64 65
f 58 63 64
f 57 62 63
f 55 62 56
f 65 421 66
f 64 420 65
f 64 418 419
f 63 417 418
f 62 416 417
f 434 90 428
f 68 89 88
f 72 438 71
f 68 67 69
f 68 69 70
f 427 70 431
f 431 70 437
f 117 116 70
f 69 71 70
f 485 112 488
f 91 100 99
f 92 91 76
f 440 439 104
f 92 98 91
f 110 430 67
f 74 79 73
f 76 77 78
f 79 80 81
f 110 480 452
f 479 107 108
f 88 89 90
f 427 90 68
f 95 96 97
f 98 99 100
f 97 92 73
f 110 75 105
f 112 489 488
f 72 69 115
f 115 113 112
f 484 113 114
f 122 120 121
f 118 124 125
f 125 127 118
f 126 128 129
f 130 135 133
f 119 123 124
f 126 511 508
f 131 134 132
f 132 130 133
f 131 130 134
f 138 137 136
f 140 139 138
f 142 141 140
f 144 143 142
f 147 137 141
f 136 147 146
f 146 145 144
f 153 136 146
f 159 148 153
f 152 146 144
f 151 144 142
f 150 142 140
f 148 138 136
f 165 154 159
f 158 153 152
f 157 152 151
f 156 151 150
f 155 150 149
f 154 149 148
f 171 160 165
f 164 159 158
f 163 158 157
f 162 157 156
f 219 138 149
f 160 155 154
f 177 166 171
f 170 165 164
f 169 164 163
f 168 163 162
f 167 162 161
f 166 161 160
f 177 178 172
f 176 171 170
f 175 170 169
f 174 169 168
f 231 155 161
f 172 167 166
f 183 184 178
f 176 183 177
f 175 182 176
f 180 175 174
f 179 174 173
f 178 173 172
f 189 190 184
f 182 189 183
f 181 188 182
f 186 181 180
f 243 167 173
f 184 179 178
f 201 190 195
f 188 195 189
f 187 194 188
f 192 187 186
f 191 186 185
f 190 185 184
f 201 199 197
f 200 195 194
f 193 200 194
f 192 199 193
f 191 198 192
f 190 197 191
f 204 203 202
f 206 205 204
f 208 207 206
f 210 209 208
f 213 203 207
f 202 213 212
f 212 211 210
f 219 202 212
f 225 214 219
f 217 210 208
f 216 208 206
f 215 206 204
f 214 204 202
f 231 220 225
f 224 219 218
f 223 218 217
f 222 217 216
f 221 216 215
f 220 215 214
f 237 226 231
f 229 224 223
f 228 223 222
f 227 222 221
f 226 221 220
f 243 232 237
f 236 231 230
f 235 230 229
f 234 229 228
f 233 228 227
f 232 227 226
f 243 244 238
f 255 179 185
f 241 236 235
f 240 235 234
f 239 234 233
f 238 233 232
f 249 250 244
f 242 249 243
f 241 248 242
f 246 241 240
f 245 240 239
f 244 239 238
f 255 256 250
f 180 254 186
f 247 254 248
f 252 247 246
f 251 246 245
f 250 245 244
f 267 256 261
f 254 261 255
f 253 260 254
f 258 253 252
f 257 252 251
f 256 251 250
f 264 263 267
f 266 261 260
f 265 260 259
f 258 265 259
f 257 264 258
f 256 263 257
f 210 219 212
f 218 149 150
f 212 140 138
f 224 231 225
f 140 218 150
f 230 161 162
f 225 156 155
f 236 243 237
f 156 230 162
f 242 173 174
f 237 168 167
f 248 255 249
f 254 185 186
f 168 242 174
f 179 248 180
f 121 510 122
f 273 270 277
f 273 279 272
f 277 271 278
f 281 287 282
f 286 289 288
f 283 280 281
f 288 284 283
f 293 297 294
f 292 307 306
f 292 298 293
f 296 294 297
f 295 301 302
f 296 304 295
f 308 674 675
f 701 309 695
f 695 310 694
f 694 312 700
f 311 701 693
f 317 320 316
f 317 322 323
f 319 320 321
f 317 319 321
f 316 318 314
f 314 319 315
f 325 328 324
f 325 31 32
f 327 328 329
f 325 327 329
f 324 326 322
f 322 327 323
f 337 730 723
f 117 720 331
f 117 330 116
f 492 330 719
f 337 723 719
f 337 335 334
f 336 729 335
f 335 733 332
f 333 342 341
f 334 734 730
f 737 339 338
f 332 737 338
f 333 338 339
f 333 738 734
f 28 8 27
f 332 343 335
f 333 340 332
f 334 343 342
f 350 378 377
f 378 348 379
f 364 354 365
f 379 353 374
f 365 359 360
f 360 358 361
f 358 362 361
f 357 363 362
f 356 364 363
f 363 367 368
f 362 368 369
f 361 369 370
f 371 361 370
f 366 360 371
f 367 365 366
f 372 366 373
f 373 371 344
f 344 370 345
f 370 346 345
f 369 347 346
f 368 372 347
f 347 353 348
f 346 348 349
f 350 346 349
f 711 713 385
f 351 345 350
f 352 344 351
f 372 352 353
f 353 375 374
f 352 376 375
f 386 385 380
f 385 378 379
f 378 383 377
f 377 382 376
f 382 714 712
f 704 374 375
f 392 391 386
f 391 384 385
f 384 389 383
f 383 388 382
f 382 387 381
f 387 380 381
f 398 397 392
f 397 390 391
f 396 389 390
f 389 394 388
f 388 393 387
f 387 392 386
f 404 403 398
f 403 396 397
f 402 395 396
f 395 400 394
f 394 399 393
f 393 398 392
f 410 409 404
f 403 408 402
f 402 407 401
f 401 406 400
f 406 399 400
f 405 398 399
f 416 415 410
f 415 408 409
f 408 413 407
f 407 412 406
f 406 411 405
f 411 404 405
f 421 414 415
f 420 413 414
f 413 418 412
f 412 417 411
f 411 416 410
f 479 452 455
f 434 460 456
f 423 448 458
f 438 433 432
f 423 424 422
f 423 426 424
f 427 426 423
f 431 437 426
f 426 495 432
f 424 432 433
f 485 486 491
f 469 470 461
f 446 444 462
f 474 473 472
f 461 470 468
f 428 437 431
f 428 431 427
f 481 454 450
f 447 445 442
f 444 446 445
f 447 449 448
f 480 482 452
f 479 477 480
f 459 458 457
f 427 423 460
f 465 467 466
f 468 470 469
f 458 441 465
f 443 483 482
f 489 486 488
f 491 490 424
f 491 487 490
f 487 484 490
f 498 500 499
f 502 496 503
f 723 719 492
f 503 505 506
f 506 504 507
f 512 515 517
f 501 497 502
f 508 507 504
f 513 514 516
f 512 514 515
f 512 513 516
f 519 520 518
f 521 522 520
f 523 524 522
f 525 526 524
f 527 525 523
f 529 518 528
f 527 528 526
f 518 535 528
f 530 541 535
f 528 534 526
f 526 533 524
f 524 532 522
f 520 530 518
f 536 547 541
f 535 540 534
f 534 539 533
f 533 538 532
f 532 537 531
f 531 536 530
f 542 553 547
f 541 546 540
f 540 545 539
f 539 544 538
f 520 601 531
f 537 542 536
f 548 559 553
f 547 552 546
f 546 551 545
f 545 550 544
f 544 549 543
f 543 548 542
f 559 560 565
f 553 558 552
f 552 557 551
f 551 556 550
f 537 613 543
f 549 554 548
f 565 566 571
f 558 565 564
f 557 564 563
f 557 562 556
f 556 561 555
f 555 560 554
f 571 572 577
f 564 571 570
f 563 570 569
f 563 568 562
f 549 625 555
f 561 566 560
f 572 583 577
f 570 577 576
f 569 576 575
f 569 574 568
f 568 573 567
f 567 572 566
f 579 581 583
f 577 582 576
f 575 582 581
f 575 580 574
f 573 580 579
f 572 579 578
f 585 586 584
f 587 588 586
f 589 590 588
f 591 592 590
f 593 591 589
f 595 584 594
f 593 594 592
f 584 601 594
f 596 607 601
f 592 599 590
f 590 598 588
f 588 597 586
f 586 596 584
f 602 613 607
f 601 606 600
f 600 605 599
f 599 604 598
f 598 603 597
f 597 602 596
f 608 619 613
f 606 611 605
f 605 610 604
f 604 609 603
f 603 608 602
f 614 625 619
f 613 618 612
f 612 617 611
f 611 616 610
f 610 615 609
f 609 614 608
f 625 626 631
f 561 637 567
f 618 623 617
f 617 622 616
f 616 621 615
f 615 620 614
f 631 632 637
f 624 631 630
f 623 630 629
f 623 628 622
f 622 627 621
f 621 626 620
f 637 638 643
f 562 636 630
f 629 636 635
f 629 634 628
f 628 633 627
f 627 632 626
f 638 649 643
f 636 643 642
f 635 642 641
f 635 640 634
f 634 639 633
f 633 638 632
f 648 649 645
f 643 648 642
f 642 647 641
f 640 647 646
f 639 646 645
f 638 645 644
f 601 592 594
f 531 600 532
f 522 594 520
f 613 606 607
f 522 600 592
f 543 612 544
f 538 607 537
f 625 618 619
f 538 612 606
f 555 624 556
f 550 619 549
f 637 630 631
f 567 636 568
f 550 624 618
f 561 630 631
f 500 509 499
f 652 655 659
f 654 661 655
f 659 653 651
f 669 663 664
f 671 668 670
f 662 665 663
f 666 670 665
f 677 681 682
f 691 674 676
f 676 682 683
f 680 678 679
f 686 679 673
f 687 672 680
f 674 691 692
f 696 701 695
f 697 695 694
f 699 694 700
f 698 701 702
f 709 706 705
f 706 711 705
f 708 709 707
f 706 708 704
f 707 705 703
f 708 703 704
f 717 714 713
f 714 380 713
f 716 717 715
f 714 716 712
f 715 713 711
f 716 711 712
f 730 732 723
f 495 720 493
f 721 495 494
f 492 721 494
f 729 734 730
f 721 732 731
f 732 728 731
f 731 729 724
f 724 730 723
f 733 738 734
f 728 733 729
f 726 741 727
f 734 727 730
f 737 736 738
f 725 737 733
f 726 735 725
f 738 726 734
f 351 377 376
f 742 725 728
f 739 726 725
f 727 742 728
f 29 6 7
f 29 30 5
f 15 16 354
f 30 25 10
f 16 11 359
f 11 12 358
f 13 357 358
f 14 356 357
f 15 355 356
f 18 15 14
f 19 14 13
f 20 13 12
f 22 21 12
f 17 22 11
f 18 17 16
f 23 24 17
f 24 1 22
f 1 2 21
f 3 20 21
f 4 19 20
f 23 18 19
f 10 23 4
f 5 4 3
f 7 6 3
f 314 25 30
f 30 36 314
f 36 31 324
f 322 36 324
f 322 316 36
f 8 7 2
f 9 8 1
f 9 24 23
f 26 9 10
f 27 8 9
f 36 42 37
f 29 35 36
f 29 28 34
f 28 27 33
f 33 27 315
f 27 26 315
f 315 317 33
f 317 323 33
f 325 32 33
f 25 314 315
f 42 48 43
f 35 41 42
f 35 34 40
f 34 33 39
f 33 32 38
f 31 37 38
f 48 54 49
f 41 47 48
f 40 46 47
f 40 39 45
f 39 38 44
f 38 37 43
f 54 60 55
f 47 53 54
f 46 52 53
f 46 45 51
f 45 44 50
f 44 43 49
f 60 66 61
f 54 53 59
f 53 52 58
f 52 51 57
f 50 56 57
f 49 55 56
f 66 421 416
f 59 65 66
f 59 58 64
f 58 57 63
f 57 56 62
f 55 61 62
f 65 420 421
f 64 419 420
f 64 63 418
f 63 62 417
f 62 61 416
f 434 86 90
f 88 73 80
f 73 81 80
f 80 68 88
f 72 436 438
f 427 68 70
f 71 438 117
f 438 493 117
f 492 437 116
f 437 70 116
f 71 117 70
f 69 72 71
f 485 115 112
f 435 429 99
f 429 91 99
f 429 425 91
f 425 76 91
f 76 78 92
f 78 74 92
f 439 101 104
f 101 102 104
f 102 103 104
f 104 93 440
f 93 94 440
f 92 97 98
f 97 96 98
f 98 100 91
f 85 106 109
f 110 452 430
f 85 109 82
f 109 110 67
f 85 82 83
f 83 84 85
f 67 82 109
f 74 78 77
f 77 79 74
f 79 81 73
f 110 107 480
f 479 480 107
f 90 86 87
f 87 88 90
f 428 90 427
f 90 89 68
f 92 74 73
f 73 88 95
f 88 87 95
f 95 97 73
f 108 107 105
f 107 110 105
f 110 106 111
f 110 111 75
f 112 113 489
f 69 430 114
f 430 484 114
f 485 436 115
f 436 72 115
f 69 114 115
f 115 114 113
f 484 489 113
f 122 123 120
f 118 119 124
f 125 128 127
f 126 127 128
f 119 120 123
f 126 129 511
f 132 134 130
f 131 135 130
f 138 139 137
f 140 141 139
f 142 143 141
f 144 145 143
f 137 139 141
f 141 143 145
f 145 147 141
f 136 137 147
f 146 147 145
f 153 148 136
f 159 154 148
f 152 153 146
f 151 152 144
f 150 151 142
f 148 149 138
f 165 160 154
f 158 159 153
f 157 158 152
f 156 157 151
f 155 156 150
f 154 155 149
f 171 166 160
f 164 165 159
f 163 164 158
f 162 163 157
f 219 212 138
f 160 161 155
f 177 172 166
f 170 171 165
f 169 170 164
f 168 169 163
f 167 168 162
f 166 167 161
f 177 183 178
f 176 177 171
f 175 176 170
f 174 175 169
f 231 225 155
f 172 173 167
f 183 189 184
f 176 182 183
f 175 181 182
f 180 181 175
f 179 180 174
f 178 179 173
f 189 195 190
f 182 188 189
f 181 187 188
f 186 187 181
f 243 237 167
f 184 185 179
f 201 196 190
f 188 194 195
f 187 193 194
f 192 193 187
f 191 192 186
f 190 191 185
f 197 196 201
f 201 200 199
f 199 198 197
f 200 201 195
f 193 199 200
f 192 198 199
f 191 197 198
f 190 196 197
f 204 205 203
f 206 207 205
f 208 209 207
f 210 211 209
f 203 205 207
f 207 209 211
f 211 213 207
f 202 203 213
f 212 213 211
f 219 214 202
f 225 220 214
f 217 218 210
f 216 217 208
f 215 216 206
f 214 215 204
f 231 226 220
f 224 225 219
f 223 224 218
f 222 223 217
f 221 222 216
f 220 221 215
f 237 232 226
f 229 230 224
f 228 229 223
f 227 228 222
f 226 227 221
f 243 238 232
f 236 237 231
f 235 236 230
f 234 235 229
f 233 234 228
f 232 233 227
f 243 249 244
f 255 249 179
f 241 242 236
f 240 241 235
f 239 240 234
f 238 239 233
f 249 255 250
f 242 248 249
f 241 247 248
f 246 247 241
f 245 246 240
f 244 245 239
f 255 261 256
f 180 248 254
f 247 253 254
f 252 253 247
f 251 252 246
f 250 251 245
f 267 262 256
f 254 260 261
f 253 259 260
f 258 259 253
f 257 258 252
f 256 257 251
f 263 262 267
f 267 266 265
f 265 264 267
f 266 267 261
f 265 266 260
f 258 264 265
f 257 263 264
f 256 262 263
f 210 218 219
f 218 219 149
f 212 210 140
f 224 230 231
f 140 210 218
f 230 231 161
f 225 224 156
f 236 242 243
f 156 224 230
f 242 243 173
f 237 236 168
f 248 254 255
f 254 255 185
f 168 236 242
f 179 249 248
f 121 509 510
f 273 276 270
f 268 276 273
f 273 274 279
f 272 268 273
f 277 270 269
f 277 269 271
f 278 275 277
f 281 280 287
f 286 285 289
f 283 284 280
f 288 289 284
f 293 298 297
f 300 299 305
f 299 292 305
f 305 292 306
f 292 674 307
f 292 299 298
f 296 295 294
f 303 290 302
f 290 291 302
f 291 295 302
f 296 290 303
f 304 301 295
f 296 303 304
f 675 300 308
f 300 305 308
f 308 307 674
f 701 313 309
f 695 309 310
f 694 310 312
f 311 313 701
f 317 321 320
f 317 316 322
f 319 318 320
f 317 315 319
f 316 320 318
f 314 318 319
f 325 329 328
f 325 324 31
f 327 326 328
f 325 323 327
f 324 328 326
f 322 326 327
f 337 334 730
f 117 493 720
f 117 331 330
f 492 116 330
f 331 720 336
f 720 724 336
f 719 330 337
f 330 331 336
f 337 330 336
f 337 336 335
f 336 724 729
f 335 729 733
f 333 334 342
f 334 333 734
f 737 738 339
f 332 733 737
f 333 332 338
f 333 339 738
f 28 7 8
f 332 340 343
f 333 341 340
f 334 335 343
f 350 349 378
f 378 349 348
f 364 355 354
f 379 348 353
f 365 354 359
f 360 359 358
f 358 357 362
f 357 356 363
f 356 355 364
f 363 364 367
f 362 363 368
f 361 362 369
f 371 360 361
f 366 365 360
f 367 364 365
f 372 367 366
f 373 366 371
f 344 371 370
f 370 369 346
f 369 368 347
f 368 367 372
f 347 372 353
f 346 347 348
f 350 345 346
f 379 374 703
f 379 703 385
f 703 705 385
f 380 385 713
f 711 385 705
f 351 344 345
f 352 373 344
f 372 373 352
f 353 352 375
f 352 351 376
f 386 391 385
f 385 384 378
f 378 384 383
f 377 383 382
f 375 376 704
f 376 382 704
f 382 381 714
f 712 706 382
f 706 704 382
f 704 703 374
f 392 397 391
f 391 390 384
f 384 390 389
f 383 389 388
f 382 388 387
f 387 386 380
f 398 403 397
f 397 396 390
f 396 395 389
f 389 395 394
f 388 394 393
f 387 393 392
f 404 409 403
f 403 402 396
f 402 401 395
f 395 401 400
f 394 400 399
f 393 399 398
f 410 415 409
f 403 409 408
f 402 408 407
f 401 407 406
f 406 405 399
f 405 404 398
f 416 421 415
f 415 414 408
f 408 414 413
f 407 413 412
f 406 412 411
f 411 410 404
f 421 420 414
f 420 419 413
f 413 419 418
f 412 418 417
f 411 417 416
f 479 480 452
f 434 428 460
f 449 441 448
f 441 458 448
f 458 459 423
f 438 436 433
f 427 431 426
f 426 437 494
f 437 492 494
f 493 438 495
f 438 432 495
f 426 494 495
f 424 426 432
f 485 488 486
f 461 429 469
f 429 435 469
f 444 425 461
f 425 429 461
f 461 462 444
f 462 442 446
f 472 471 474
f 471 439 474
f 439 440 474
f 440 464 463
f 474 440 463
f 466 467 468
f 467 462 468
f 462 461 468
f 428 434 437
f 481 476 454
f 454 453 451
f 451 450 454
f 450 422 481
f 422 430 482
f 430 452 482
f 482 481 422
f 445 446 442
f 442 441 447
f 441 449 447
f 480 477 482
f 479 478 477
f 457 456 460
f 460 459 457
f 459 460 423
f 460 428 427
f 441 442 462
f 462 467 441
f 467 465 441
f 465 457 458
f 482 477 475
f 477 478 475
f 483 476 482
f 482 475 443
f 489 487 486
f 433 436 491
f 436 485 491
f 484 430 490
f 430 424 490
f 433 491 424
f 491 486 487
f 487 489 484
f 498 501 500
f 502 497 496
f 492 493 723
f 493 720 724
f 723 493 724
f 503 496 505
f 506 505 504
f 501 498 497
f 508 511 507
f 512 516 514
f 512 517 513
f 519 521 520
f 521 523 522
f 523 525 524
f 525 527 526
f 523 521 527
f 521 519 527
f 519 529 527
f 529 519 518
f 527 529 528
f 518 530 535
f 530 536 541
f 528 535 534
f 526 534 533
f 524 533 532
f 520 531 530
f 536 542 547
f 535 541 540
f 534 540 539
f 533 539 538
f 532 538 537
f 531 537 536
f 542 548 553
f 541 547 546
f 540 546 545
f 539 545 544
f 520 594 601
f 537 543 542
f 548 554 559
f 547 553 552
f 546 552 551
f 545 551 550
f 544 550 549
f 543 549 548
f 559 554 560
f 553 559 558
f 552 558 557
f 551 557 556
f 537 607 613
f 549 555 554
f 565 560 566
f 558 559 565
f 557 558 564
f 557 563 562
f 556 562 561
f 555 561 560
f 571 566 572
f 564 565 571
f 563 564 570
f 563 569 568
f 549 619 625
f 561 567 566
f 572 578 583
f 570 571 577
f 569 570 576
f 569 575 574
f 568 574 573
f 567 573 572
f 583 578 579
f 579 580 581
f 581 582 583
f 577 583 582
f 575 576 582
f 575 581 580
f 573 574 580
f 572 573 579
f 585 587 586
f 587 589 588
f 589 591 590
f 591 593 592
f 589 587 593
f 587 585 593
f 585 595 593
f 595 585 584
f 593 595 594
f 584 596 601
f 596 602 607
f 592 600 599
f 590 599 598
f 588 598 597
f 586 597 596
f 602 608 613
f 601 607 606
f 600 606 605
f 599 605 604
f 598 604 603
f 597 603 602
f 608 614 619
f 606 612 611
f 605 611 610
f 604 610 609
f 603 609 608
f 614 620 625
f 613 619 618
f 612 618 617
f 611 617 616
f 610 616 615
f 609 615 614
f 625 620 626
f 561 631 637
f 618 624 623
f 617 623 622
f 616 622 621
f 615 621 620
f 631 626 632
f 624 625 631
f 623 624 630
f 623 629 628
f 622 628 627
f 621 627 626
f 637 632 638
f 562 568 636
f 629 630 636
f 629 635 634
f 628 634 633
f 627 633 632
f 638 644 649
f 636 637 643
f 635 636 642
f 635 641 640
f 634 640 639
f 633 639 638
f 649 644 645
f 645 646 647
f 647 648 645
f 643 649 648
f 642 648 647
f 640 641 647
f 639 640 646
f 638 639 645
f 601 600 592
f 531 601 600
f 522 592 594
f 613 612 606
f 522 532 600
f 543 613 612
f 538 606 607
f 625 624 618
f 538 544 612
f 555 625 624
f 550 618 619
f 637 636 630
f 567 637 636
f 550 556 624
f 561 562 630
f 500 510 509
f 652 658 655
f 655 658 650
f 655 650 654
f 661 656 655
f 659 657 660
f 659 660 653
f 651 652 659
f 669 662 663
f 671 667 668
f 662 666 665
f 666 671 670
f 677 678 681
f 676 683 689
f 683 684 689
f 676 689 690
f 690 691 676
f 676 677 682
f 680 681 678
f 673 672 686
f 672 687 686
f 686 685 679
f 680 679 688
f 679 685 688
f 688 687 680
f 689 684 692
f 684 675 692
f 675 674 692
f 696 702 701
f 697 696 695
f 699 697 694
f 698 693 701
f 709 710 706
f 706 712 711
f 708 710 709
f 706 710 708
f 707 709 705
f 708 707 703
f 717 718 714
f 714 381 380
f 716 718 717
f 714 718 716
f 715 717 713
f 716 715 711
f 730 727 732
f 495 722 720
f 721 722 495
f 492 719 721
f 729 733 734
f 724 720 731
f 720 722 731
f 722 721 731
f 721 719 732
f 719 723 732
f 732 727 728
f 731 728 729
f 724 729 730
f 733 737 738
f 728 725 733
f 726 740 741
f 734 726 727
f 737 735 736
f 725 735 737
f 726 736 735
f 738 736 726
f 351 350 377
f 742 739 725
f 739 740 726
f 727 741 742
v 0.3011841 2.5828979 -2.5169129
v 0.0180667 2.5828981 -2.5169129
v 0.3011841 2.5561678 -2.3825314
v 0.0180667 2.5561678 -2.3825314
v 0.3011841 2.4800470 -2.2686083
v 0.0180667 2.4800470 -2.2686083
v 0.3011841 2.3661239 -2.1924875
v 0.0180667 2.3661239 -2.1924875
v 0.3011841 2.2317424 -2.1657572
v 0.0180667 2.2317424 -2.1657572
v 0.3011841 2.0973608 -2.1924875
v 0.0180667 2.0973608 -2.1924875
v 0.3011841 1.9834379 -2.2686083
v 0.0180667 1.9834379 -2.2686083
v 0.3011841 1.9073169 -2.3825314
v 0.0180667 1.9073169 -2.3825314
v 0.3011841 1.8805867 -2.5169129
v 0.0180667 1.8805867 -2.5169129
v 0.3011841 1.9073168 -2.6512942
v 0.0180667 1.9073168 -2.6512942
v 0.3011841 1.9834378 -2.7652173
v 0.0180667 1.9834378 -2.7652173
v 0.3011841 2.0973608 -2.8413384
v 0.0180667 2.0973608 -2.8413384
v 0.3011841 2.2317424 -2.8680687
v 0.0180667 2.2317424 -2.8680687
v 0.3011841 2.3661239 -2.8413384
v 0.0180667 2.3661239 -2.8413384
v 0.3011841 2.4800470 -2.7652173
v 0.0180667 2.4800470 -2.7652173
v 0.3011841 2.5561678 -2.6512942
v 0.0180667 2.5561681 -2.6512942
v 0.3515151 2.5234010 -2.5169129
v 0.3515151 2.5011997 -2.4052999
v 0.3515151 2.4379761 -2.3106792
v 0.3515151 2.3433552 -2.2474556
v 0.3515151 2.2317424 -2.2252543
v 0.3515151 2.1201293 -2.2474556
v 0.3515151 2.0255086 -2.3106792
v 0.3515151 1.9622849 -2.4052999
v 0.3515151 1.9400837 -2.5169129
v 0.3515151 1.9622849 -2.6285257
v 0.3515151 2.0255086 -2.7231467
v 0.3515151 2.1201293 -2.7863703
v 0.3515151 2.2317424 -2.8085716
v 0.3515151 2.3433554 -2.7863703
v 0.3515151 2.4379761 -2.7231467
v 0.3515151 2.5011997 -2.6285257
v 0.3515151 2.4083991 -2.5169129
v 0.3515151 2.3949518 -2.4493093
v 0.3515151 2.3566575 -2.3919978
v 0.3515151 2.2993460 -2.3537035
v 0.3515151 2.2317424 -2.3402562
v 0.3515151 2.1641388 -2.3537035
v 0.3515151 2.1068273 -2.3919978
v 0.3515151 2.0685329 -2.4493093
v 0.3515151 2.0550857 -2.5169129
v 0.3515151 2.0685329 -2.5845165
v 0.3515151 2.1068273 -2.6418281
v 0.3515151 2.1641388 -2.6801224
v 0.3515151 2.2317424 -2.6935697
v 0.3515151 2.2993460 -2.6801224
v 0.3515151 2.3566575 -2.6418281
v 0.3515151 2.3949518 -2.5845165
v 0.3050595 2.3614461 -2.5169129
v 0.3050595 2.3515730 -2.4672775
v 0.3050595 2.3234568 -2.4251986
v 0.3050595 2.2813778 -2.3970823
v 0.3050594 2.2317424 -2.3872092
v 0.3050594 2.1821070 -2.3970823
v 0.3050594 2.1400280 -2.4251986
v 0.3050594 2.1119118 -2.4672775
v 0.3050594 2.1020386 -2.5169129
v 0.3050594 2.1119118 -2.5665483
v 0.3050594 2.1400280 -2.6086273
v 0.3050594 2.1821070 -2.6367435
v 0.3050594 2.2317424 -2.6466167
v 0.3050595 2.2813778 -2.6367435
v 0.3050595 2.3234568 -2.6086273
v 0.3050595 2.3515730 -2.5665483
v -0.0377616 2.5239170 -2.5169129
v -0.0377616 2.5016763 -2.4051025
v -0.0377616 2.4383409 -2.3103144
v -0.0377616 2.3435528 -2.2469790
v -0.0377616 2.2317424 -2.2247384
v -0.0377616 2.1199319 -2.2469790
v -0.0377616 2.0251439 -2.3103144
v -0.0377616 1.9618084 -2.4051025
v -0.0377616 1.9395679 -2.5169129
v -0.0377616 1.9618083 -2.6287231
v -0.0377616 2.0251439 -2.7235115
v -0.0377616 2.1199319 -2.7868469
v -0.0377616 2.2317424 -2.8090873
v -0.0377616 2.3435528 -2.7868469
v -0.0377616 2.4383409 -2.7235115
v -0.0377616 2.5016766 -2.6287231
f 744 745 743
f 746 747 745
f 748 749 747
f 750 751 749
f 752 753 751
f 754 755 753
f 756 757 755
f 758 759 757
f 760 761 759
f 762 763 761
f 764 765 763
f 766 767 765
f 768 769 767
f 770 771 769
f 754 827 828
f 774 743 773
f 772 773 771
f 761 783 759
f 786 801 785
f 765 787 786
f 749 779 778
f 773 789 771
f 757 781 755
f 761 785 784
f 747 776 745
f 767 788 787
f 753 779 751
f 743 790 773
f 745 775 743
f 759 782 757
f 765 785 763
f 747 778 777
f 771 788 769
f 755 780 753
f 791 808 807
f 784 799 783
f 781 798 797
f 780 795 779
f 775 806 790
f 778 793 777
f 789 804 788
f 775 792 791
f 787 802 786
f 785 800 784
f 782 799 798
f 780 797 796
f 779 794 778
f 790 805 789
f 776 793 792
f 787 804 803
f 818 820 822
f 803 818 802
f 801 816 800
f 799 814 798
f 797 812 796
f 795 810 794
f 806 821 805
f 793 808 792
f 804 819 803
f 802 817 801
f 800 815 799
f 798 813 797
f 795 812 811
f 791 822 806
f 794 809 793
f 805 820 804
f 833 829 825
f 774 823 744
f 744 824 746
f 758 831 760
f 764 834 766
f 748 826 750
f 772 836 837
f 754 829 756
f 762 831 832
f 766 835 768
f 752 826 827
f 774 837 838
f 756 830 758
f 762 833 764
f 748 824 825
f 770 835 836
f 744 746 745
f 746 748 747
f 748 750 749
f 750 752 751
f 752 754 753
f 754 756 755
f 756 758 757
f 758 760 759
f 760 762 761
f 762 764 763
f 764 766 765
f 766 768 767
f 768 770 769
f 770 772 771
f 754 752 827
f 774 744 743
f 772 774 773
f 761 784 783
f 786 802 801
f 765 767 787
f 749 751 779
f 773 790 789
f 757 782 781
f 761 763 785
f 747 777 776
f 767 769 788
f 753 780 779
f 743 775 790
f 745 776 775
f 759 783 782
f 765 786 785
f 747 749 778
f 771 789 788
f 755 781 780
f 791 792 808
f 784 800 799
f 781 782 798
f 780 796 795
f 775 791 806
f 778 794 793
f 789 805 804
f 775 776 792
f 787 803 802
f 785 801 800
f 782 783 799
f 780 781 797
f 779 795 794
f 790 806 805
f 776 777 793
f 787 788 804
f 822 807 808
f 808 809 810
f 810 811 812
f 812 813 814
f 814 815 816
f 816 817 818
f 818 819 820
f 820 821 822
f 822 808 810
f 810 812 822
f 812 814 822
f 814 816 822
f 816 818 822
f 803 819 818
f 801 817 816
f 799 815 814
f 797 813 812
f 795 811 810
f 806 822 821
f 793 809 808
f 804 820 819
f 802 818 817
f 800 816 815
f 798 814 813
f 795 796 812
f 791 807 822
f 794 810 809
f 805 821 820
f 825 824 823
f 823 838 837
f 837 836 835
f 835 834 833
f 833 832 831
f 831 830 829
f 829 828 827
f 827 826 825
f 825 823 837
f 837 835 825
f 835 833 825
f 833 831 829
f 829 827 825
f 774 838 823
f 744 823 824
f 758 830 831
f 764 833 834
f 748 825 826
f 772 770 836
f 754 828 829
f 762 760 831
f 766 834 835
f 752 750 826
f 774 772 837
f 756 829 830
f 762 832 833
f 748 746 824
f 770 768 835
v 0.2982348 2.5828979 -3.3089361
v 0.0151174 2.5828981 -3.3089361
v 0.2982348 2.5561678 -3.1745546
v 0.0151174 2.5561678 -3.1745546
v 0.2982348 2.4800470 -3.0606315
v 0.0151174 2.4800470 -3.0606315
v 0.2982348 2.3661239 -2.9845107
v 0.0151174 2.3661239 -2.9845107
v 0.2982348 2.2317424 -2.9577804
v 0.0151173 2.2317424 -2.9577804
v 0.2982348 2.0973608 -2.9845107
v 0.0151173 2.0973608 -2.9845107
v 0.2982347 1.9834379 -3.0606315
v 0.0151173 1.9834379 -3.0606315
v 0.2982347 1.9073169 -3.1745546
v 0.0151173 1.9073169 -3.1745546
v 0.2982347 1.8805867 -3.3089361
v 0.0151173 1.8805867 -3.3089361
v 0.2982347 1.9073168 -3.4433174
v 0.0151173 1.9073168 -3.4433174
v 0.2982347 1.9834378 -3.5572405
v 0.0151173 1.9834378 -3.5572405
v 0.2982348 2.0973608 -3.6333616
v 0.0151173 2.0973608 -3.6333616
v 0.2982348 2.2317424 -3.6600919
v 0.0151173 2.2317424 -3.6600919
v 0.2982348 2.3661239 -3.6333616
v 0.0151174 2.3661239 -3.6333616
v 0.2982348 2.4800470 -3.5572405
v 0.0151174 2.4800470 -3.5572405
v 0.2982348 2.5561678 -3.4433174
v 0.0151174 2.5561681 -3.4433174
v 0.3485658 2.5234010 -3.3089361
v 0.3485658 2.5011997 -3.1973231
v 0.3485658 2.4379761 -3.1027024
v 0.3485658 2.3433552 -3.0394788
v 0.3485658 2.2317424 -3.0172775
v 0.3485658 2.1201293 -3.0394788
v 0.3485657 2.0255086 -3.1027024
v 0.3485657 1.9622849 -3.1973231
v 0.3485657 1.9400837 -3.3089361
v 0.3485657 1.9622849 -3.4205489
v 0.3485657 2.0255086 -3.5151699
v 0.3485658 2.1201293 -3.5783935
v 0.3485658 2.2317424 -3.6005948
v 0.3485658 2.3433554 -3.5783935
v 0.3485658 2.4379761 -3.5151699
v 0.3485658 2.5011997 -3.4205489
v 0.3485658 2.4083991 -3.3089361
v 0.3485658 2.3949518 -3.2413325
v 0.3485658 2.3566575 -3.1840210
v 0.3485658 2.2993460 -3.1457267
v 0.3485658 2.2317424 -3.1322794
v 0.3485658 2.1641388 -3.1457267
v 0.3485658 2.1068273 -3.1840210
v 0.3485658 2.0685329 -3.2413325
v 0.3485658 2.0550857 -3.3089361
v 0.3485658 2.0685329 -3.3765397
v 0.3485658 2.1068273 -3.4338512
v 0.3485658 2.1641388 -3.4721456
v 0.3485658 2.2317424 -3.4855928
v 0.3485658 2.2993460 -3.4721456
v 0.3485658 2.3566575 -3.4338512
v 0.3485658 2.3949518 -3.3765397
v 0.3021101 2.3614461 -3.3089361
v 0.3021101 2.3515730 -3.2593007
v 0.3021101 2.3234568 -3.2172217
v 0.3021101 2.2813778 -3.1891055
v 0.3021101 2.2317424 -3.1792324
v 0.3021101 2.1821070 -3.1891055
v 0.3021101 2.1400280 -3.2172217
v 0.3021101 2.1119118 -3.2593007
v 0.3021101 2.1020386 -3.3089361
v 0.3021101 2.1119118 -3.3585715
v 0.3021101 2.1400280 -3.4006505
v 0.3021101 2.1821070 -3.4287667
v 0.3021101 2.2317424 -3.4386399
v 0.3021101 2.2813778 -3.4287667
v 0.3021101 2.3234568 -3.4006505
v 0.3021101 2.3515730 -3.3585715
v -0.0407109 2.5239170 -3.3089361
v -0.0407109 2.5016763 -3.1971257
v -0.0407109 2.4383409 -3.1023376
v -0.0407109 2.3435528 -3.0390022
v -0.0407110 2.2317424 -3.0167615
v -0.0407110 2.1199319 -3.0390022
v -0.0407110 2.0251439 -3.1023376
v -0.0407110 1.9618084 -3.1971257
v -0.0407110 1.9395679 -3.3089361
v -0.0407110 1.9618083 -3.4207463
v -0.0407110 2.0251439 -3.5155346
v -0.0407110 2.1199319 -3.5788701
v -0.0407110 2.2317424 -3.6011105
v -0.0407109 2.3435528 -3.5788701
v -0.0407109 2.4383409 -3.5155346
v -0.0407109 2.5016766 -3.4207463
f 840 841 839
f 842 843 841
f 844 845 843
f 846 847 845
f 848 849 847
f 850 851 849
f 852 853 851
f 854 855 853
f 856 857 855
f 858 859 857
f 860 861 859
f 862 863 861
f 864 865 863
f 866 867 865
f 850 923 924
f 870 839 869
f 868 869 867
f 857 879 855
f 882 897 881
f 861 883 882
f 845 875 874
f 869 885 867
f 853 877 851
f 857 881 880
f 843 872 841
f 863 884 883
f 849 875 847
f 839 886 869
f 841 871 839
f 855 878 853
f 861 881 859
f 843 874 873
f 867 884 865
f 851 876 849
f 887 904 903
f 880 895 879
f 877 894 893
f 876 891 875
f 871 902 886
f 874 889 873
f 885 900 884
f 871 888 887
f 883 898 882
f 881 896 880
f 878 895 894
f 876 893 892
f 875 890 874
f 886 901 885
f 872 889 888
f 883 900 899
f 914 916 918
f 899 914 898
f 897 912 896
f 895 910 894
f 893 908 892
f 891 906 890
f 902 917 901
f 889 904 888
f 900 915 899
f 898 913 897
f 896 911 895
f 894 909 893
f 891 908 907
f 887 918 902
f 890 905 889
f 901 916 900
f 929 925 921
f 870 919 840
f 840 920 842
f 854 927 856
f 860 930 862
f 844 922 846
f 868 932 933
f 850 925 852
f 858 927 928
f 862 931 864
f 848 922 923
f 870 933 934
f 852 926 854
f 858 929 860
f 844 920 921
f 866 931 932
f 840 842 841
f 842 844 843
f 844 846 845
f 846 848 847
f 848 850 849
f 850 852 851
f 852 854 853
f 854 856 855
f 856 858 857
f 858 860 859
f 860 862 861
f 862 864 863
f 864 866 865
f 866 868 867
f 850 848 923
f 870 840 839
f 868 870 869
f 857 880 879
f 882 898 897
f 861 863 883
f 845 847 875
f 869 886 885
f 853 878 877
f 857 859 881
f 843 873 872
f 863 865 884
f 849 876 875
f 839 871 886
f 841 872 871
f 855 879 878
f 861 882 881
f 843 845 874
f 867 885 884
f 851 877 876
f 887 888 904
f 880 896 895
f 877 878 894
f 876 892 891
f 871 887 902
f 874 890 889
f 885 901 900
f 871 872 888
f 883 899 898
f 881 897 896
f 878 879 895
f 876 877 893
f 875 891 890
f 886 902 901
f 872 873 889
f 883 884 900
f 918 903 904
f 904 905 906
f 906 907 908
f 908 909 910
f 910 911 912
f 912 913 914
f 914 915 916
f 916 917 918
f 918 904 906
f 906 908 918
f 908 910 918
f 910 912 918
f 912 914 918
f 899 915 914
f 897 913 912
f 895 911 910
f 893 909 908
f 891 907 906
f 902 918 917
f 889 905 904
f 900 916 915
f 898 914 913
f 896 912 911
f 894 910 909
f 891 892 908
f 887 903 918
f 890 906 905
f 901 917 916
f 921 920 919
f 919 934 933
f 933 932 931
f 931 930 929
f 929 928 927
f 927 926 925
f 925 924 923
f 923 922 921
f 921 919 933
f 933 931 921
f 931 929 921
f 929 927 925
f 925 923 921
f 870 934 919
f 840 919 920
f 854 926 927
f 860 929 930
f 844 921 922
f 868 866 932
f 850 924 925
f 858 856 927
f 862 930 931
f 848 846 922
f 870 868 933
f 852 925 926
f 858 928 929
f 844 842 920
f 866 864 931
v 0.2672959 2.5828979 -4.3554792
v -0.0158215 2.5828981 -4.3554792
v 0.2672959 2.5561678 -4.2210979
v -0.0158215 2.5561678 -4.2210979
v 0.2672959 2.4800470 -4.1071749
v -0.0158215 2.4800470 -4.1071749
v 0.2672959 2.3661239 -4.0310535
v -0.0158215 2.3661239 -4.0310535
v 0.2672959 2.2317424 -4.0043235
v -0.0158215 2.2317424 -4.0043235
v 0.2672959 2.0973608 -4.0310535
v -0.0158215 2.0973608 -4.0310535
v 0.2672959 1.9834379 -4.1071749
v -0.0158215 1.9834379 -4.1071749
v 0.2672959 1.9073169 -4.2210979
v -0.0158215 1.9073169 -4.2210979
v 0.2672959 1.8805867 -4.3554792
v -0.0158215 1.8805867 -4.3554792
v 0.2672959 1.9073168 -4.4898605
v -0.0158215 1.9073168 -4.4898605
v 0.2672959 1.9834378 -4.6037836
v -0.0158215 1.9834378 -4.6037836
v 0.2672959 2.0973608 -4.6799049
v -0.0158215 2.0973608 -4.6799049
v 0.2672959 2.2317424 -4.7066350
v -0.0158215 2.2317424 -4.7066350
v 0.2672959 2.3661239 -4.6799049
v -0.0158215 2.3661239 -4.6799049
v 0.2672959 2.4800470 -4.6037836
v -0.0158215 2.4800470 -4.6037836
v 0.2672959 2.5561678 -4.4898605
v -0.0158215 2.5561681 -4.4898605
v 0.3176269 2.5234010 -4.3554792
v 0.3176269 2.5011997 -4.2438664
v 0.3176269 2.4379761 -4.1492453
v 0.3176269 2.3433552 -4.0860219
v 0.3176269 2.2317424 -4.0638208
v 0.3176269 2.1201293 -4.0860219
v 0.3176269 2.0255086 -4.1492453
v 0.3176269 1.9622849 -4.2438664
v 0.3176269 1.9400837 -4.3554792
v 0.3176269 1.9622849 -4.4670920
v 0.3176269 2.0255086 -4.5617127
v 0.3176269 2.1201293 -4.6249366
v 0.3176269 2.2317424 -4.6471376
v 0.3176269 2.3433554 -4.6249366
v 0.3176269 2.4379761 -4.5617127
v 0.3176269 2.5011997 -4.4670920
v 0.3176269 2.4083991 -4.3554792
v 0.3176269 2.3949518 -4.2878757
v 0.3176269 2.3566575 -4.2305641
v 0.3176269 2.2993460 -4.1922698
v 0.3176269 2.2317424 -4.1788225
v 0.3176269 2.1641388 -4.1922698
v 0.3176269 2.1068273 -4.2305641
v 0.3176269 2.0685329 -4.2878757
v 0.3176269 2.0550857 -4.3554792
v 0.3176269 2.0685329 -4.4230828
v 0.3176269 2.1068273 -4.4803944
v 0.3176269 2.1641388 -4.5186887
v 0.3176269 2.2317424 -4.5321360
v 0.3176269 2.2993460 -4.5186887
v 0.3176269 2.3566575 -4.4803944
v 0.3176269 2.3949518 -4.4230828
v 0.2711712 2.3614461 -4.3554792
v 0.2711712 2.3515730 -4.3058438
v 0.2711712 2.3234568 -4.2637649
v 0.2711712 2.2813778 -4.2356486
v 0.2711712 2.2317424 -4.2257752
v 0.2711712 2.1821070 -4.2356486
v 0.2711712 2.1400280 -4.2637649
v 0.2711712 2.1119118 -4.3058438
v 0.2711712 2.1020386 -4.3554792
v 0.2711712 2.1119118 -4.4051147
v 0.2711712 2.1400280 -4.4471936
v 0.2711712 2.1821070 -4.4753098
v 0.2711712 2.2317424 -4.4851832
v 0.2711712 2.2813778 -4.4753098
v 0.2711712 2.3234568 -4.4471936
v 0.2711712 2.3515730 -4.4051147
v -0.0716498 2.5239170 -4.3554792
v -0.0716498 2.5016763 -4.2436690
v -0.0716498 2.4383409 -4.1488805
v -0.0716498 2.3435528 -4.0855451
v -0.0716498 2.2317424 -4.0633049
v -0.0716498 2.1199319 -4.0855451
v -0.0716498 2.0251439 -4.1488805
v -0.0716498 1.9618084 -4.2436690
v -0.0716498 1.9395679 -4.3554792
v -0.0716498 1.9618083 -4.4672894
v -0.0716498 2.0251439 -4.5620775
v -0.0716498 2.1199319 -4.6254134
v -0.0716498 2.2317424 -4.6476536
v -0.0716498 2.3435528 -4.6254134
v -0.0716498 2.4383409 -4.5620775
v -0.0716498 2.5016766 -4.4672894
f 936 937 935
f 938 939 937
f 940 941 939
f 942 943 941
f 944 945 943
f 946 947 945
f 948 949 947
f 950 951 949
f 952 953 951
f 954 955 953
f 956 957 955
f 958 959 957
f 960 961 959
f 962 963 961
f 946 1019 1020
f 966 935 965
f 964 965 963
f 953 975 951
f 978 993 977
f 957 979 978
f 941 971 970
f 965 981 963
f 949 973 947
f 953 977 976
f 939 968 937
f 959 980 979
f 945 971 943
f 935 982 965
f 937 967 935
f 951 974 949
f 957 977 955
f 939 970 969
f 963 980 961
f 947 972 945
f 983 1000 999
f 976 991 975
f 973 990 989
f 972 987 971
f 967 998 982
f 970 985 969
f 981 996 980
f 967 984 983
f 979 994 978
f 977 992 976
f 974 991 990
f 972 989 988
f 971 986 970
f 982 997 981
f 968 985 984
f 979 996 995
f 1010 1012 1014
f 995 1010 994
f 993 1008 992
f 991 1006 990
f 989 1004 988
f 987 1002 986
f 998 1013 997
f 985 1000 984
f 996 1011 995
f 994 1009 993
f 992 1007 991
f 990 1005 989
f 987 1004 1003
f 983 1014 998
f 986 1001 985
f 997 1012 996
f 1025 1021 1017
f 966 1015 936
f 936 1016 938
f 950 1023 952
f 956 1026 958
f 940 1018 942
f 964 1028 1029
f 946 1021 948
f 954 1023 1024
f 958 1027 960
f 944 1018 1019
f 966 1029 1030
f 948 1022 950
f 954 1025 956
f 940 1016 1017
f 962 1027 1028
f 936 938 937
f 938 940 939
f 940 942 941
f 942 944 943
f 944 946 945
f 946 948 947
f 948 950 949
f 950 952 951
f 952 954 953
f 954 956 955
f 956 958 957
f 958 960 959
f 960 962 961
f 962 964 963
f 946 944 1019
f 966 936 935
f 964 966 965
f 953 976 975
f 978 994 993
f 957 959 979
f 941 943 971
f 965 982 981
f 949 974 973
f 953 955 977
f 939 969 968
f 959 961 980
f 945 972 971
f 935 967 982
f 937 968 967
f 951 975 974
f 957 978 977
f 939 941 970
f 963 981 980
f 947 973 972
f 983 984 1000
f 976 992 991
f 973 974 990
f 972 988 987
f 967 983 998
f 970 986 985
f 981 997 996
f 967 968 984
f 979 995 994
f 977 993 992
f 974 975 991
f 972 973 989
f 971 987 986
f 982 998 997
f 968 969 985
f 979 980 996
f 1014 999 1000
f 1000 1001 1002
f 1002 1003 1004
f 1004 1005 1006
f 1006 1007 1008
f 1008 1009 1010
f 1010 1011 1012
f 1012 1013 1014
f 1014 1000 1002
f 1002 1004 1014
f 1004 1006 1014
f 1006 1008 1014
f 1008 1010 1014
f 995 1011 1010
f 993 1009 1008
f 991 1007 1006
f 989 1005 1004
f 987 1003 1002
f 998 1014 1013
f 985 1001 1000
f 996 1012 1011
f 994 1010 1009
f 992 1008 1007
f 990 1006 1005
f 987 988 1004
f 983 999 1014
f 986 1002 1001
f 997 1013 1012
f 1017 1016 1015
f 1015 1030 1029
f 1029 1028 1027
f 1027 1026 1025
f 1025 1024 1023
f 1023 1022 1021
f 1021 1020 1019
f 1019 1018 1017
f 1017 1015 1029
f 1029 1027 1017
f 1027 1025 1017
f 1025 1023 1021
f 1021 1019 1017
f 966 1030 1015
f 936 1015 1016
f 950 1022 1023
f 956 1025 1026
f 940 1017 1018
f 964 962 1028
f 946 1020 1021
f 954 952 1023
f 958 1026 1027
f 944 942 1018
f 966 964 1029
f 948 1021 1022
f 954 1024 1025
f 940 938 1016
f 962 960 1027
v -1.4959301 2.5828979 -4.3554792
v -1.2128127 2.5828979 -4.3554792
v -1.4959301 2.5561678 -4.2210979
v -1.2128127 2.5561678 -4.2210979
v -1.4959301 2.4800470 -4.1071749
v -1.2128127 2.4800470 -4.1071749
v -1.4959301 2.3661239 -4.0310535
v -1.2128127 2.3661239 -4.0310535
v -1.4959302 2.2317424 -4.0043235
v -1.2128128 2.2317424 -4.0043235
v -1.4959302 2.0973608 -4.0310535
v -1.2128128 2.0973608 -4.0310535
v -1.4959302 1.9834379 -4.1071749
v -1.2128128 1.9834379 -4.1071749
v -1.4959302 1.9073169 -4.2210979
v -1.2128128 1.9073169 -4.2210979
v -1.4959302 1.8805867 -4.3554792
v -1.2128128 1.8805867 -4.3554792
v -1.4959302 1.9073169 -4.4898605
v -1.2128128 1.9073168 -4.4898605
v -1.4959302 1.9834378 -4.6037836
v -1.2128128 1.9834378 -4.6037836
v -1.4959302 2.0973608 -4.6799049
v -1.2128128 2.0973608 -4.6799049
v -1.4959301 2.2317424 -4.7066350
v -1.2128127 2.2317424 -4.7066350
v -1.4959301 2.3661239 -4.6799049
v -1.2128127 2.3661239 -4.6799049
v -1.4959301 2.4800470 -4.6037836
v -1.2128127 2.4800470 -4.6037836
v -1.4959301 2.5561678 -4.4898605
v -1.2128127 2.5561678 -4.4898605
v -1.5462611 2.5234010 -4.3554792
v -1.5462611 2.5011997 -4.2438664
v -1.5462611 2.4379761 -4.1492453
v -1.5462611 2.3433554 -4.0860219
v -1.5462612 2.2317424 -4.0638208
v -1.5462612 2.1201296 -4.0860219
v -1.5462612 2.0255086 -4.1492453
v -1.5462612 1.9622850 -4.2438664
v -1.5462612 1.9400839 -4.3554792
v -1.5462612 1.9622849 -4.4670920
v -1.5462612 2.0255086 -4.5617127
v -1.5462612 2.1201293 -4.6249366
v -1.5462611 2.2317424 -4.6471376
v -1.5462611 2.3433554 -4.6249366
v -1.5462611 2.4379761 -4.5617127
v -1.5462611 2.5011997 -4.4670920
v -1.5462611 2.4083991 -4.3554792
v -1.5462611 2.3949518 -4.2878757
v -1.5462611 2.3566575 -4.2305641
v -1.5462611 2.2993460 -4.1922698
v -1.5462612 2.2317424 -4.1788225
v -1.5462612 2.1641388 -4.1922698
v -1.5462612 2.1068273 -4.2305641
v -1.5462612 2.0685329 -4.2878757
v -1.5462612 2.0550857 -4.3554792
v -1.5462612 2.0685329 -4.4230828
v -1.5462612 2.1068273 -4.4803944
v -1.5462612 2.1641388 -4.5186887
v -1.5462611 2.2317424 -4.5321360
v -1.5462611 2.2993460 -4.5186887
v -1.5462611 2.3566575 -4.4803944
v -1.5462611 2.3949518 -4.4230828
v -1.4998055 2.3614461 -4.3554792
v -1.4998055 2.3515730 -4.3058438
v -1.4998055 2.3234568 -4.2637649
v -1.4998055 2.2813778 -4.2356486
v -1.4998055 2.2317424 -4.2257752
v -1.4998055 2.1821070 -4.2356486
v -1.4998055 2.1400280 -4.2637649
v -1.4998055 2.1119118 -4.3058438
v -1.4998055 2.1020386 -4.3554792
v -1.4998055 2.1119118 -4.4051147
v -1.4998055 2.1400280 -4.4471936
v -1.4998055 2.1821070 -4.4753098
v -1.4998055 2.2317424 -4.4851832
v -1.4998055 2.2813778 -4.4753098
v -1.4998055 2.3234568 -4.4471936
v -1.4998055 2.3515730 -4.4051147
v -1.1569844 2.5239167 -4.3554792
v -1.1569844 2.5016763 -4.2436690
v -1.1569844 2.4383409 -4.1488805
v -1.1569844 2.3435526 -4.0855451
v -1.1569844 2.2317424 -4.0633049
v -1.1569844 2.1199319 -4.0855451
v -1.1569844 2.0251439 -4.1488805
v -1.1569844 1.9618083 -4.2436690
v -1.1569844 1.9395679 -4.3554792
v -1.1569844 1.9618083 -4.4672894
v -1.1569844 2.0251439 -4.5620775
v -1.1569844 2.1199319 -4.6254134
v -1.1569844 2.2317424 -4.6476536
v -1.1569844 2.3435528 -4.6254134
v -1.1569844 2.4383409 -4.5620775
v -1.1569844 2.5016763 -4.4672894
f 1032 1033 1031
f 1034 1035 1033
f 1036 1037 1035
f 1038 1039 1037
f 1040 1041 1039
f 1042 1043 1041
f 1044 1045 1043
f 1046 1047 1045
f 1048 1049 1047
f 1050 1051 1049
f 1052 1053 1051
f 1054 1055 1053
f 1056 1057 1055
f 1058 1059 1057
f 1042 1115 1116
f 1062 1031 1061
f 1060 1061 1059
f 1049 1071 1047
f 1074 1089 1073
f 1053 1075 1074
f 1037 1067 1066
f 1061 1077 1059
f 1045 1069 1043
f 1049 1073 1072
f 1035 1064 1033
f 1055 1076 1075
f 1041 1067 1039
f 1031 1078 1061
f 1033 1063 1031
f 1047 1070 1045
f 1053 1073 1051
f 1035 1066 1065
f 1059 1076 1057
f 1043 1068 1041
f 1079 1096 1095
f 1072 1087 1071
f 1069 1086 1085
f 1068 1083 1067
f 1063 1094 1078
f 1066 1081 1065
f 1077 1092 1076
f 1063 1080 1079
f 1075 1090 1074
f 1073 1088 1072
f 1070 1087 1086
f 1068 1085 1084
f 1067 1082 1066
f 1078 1093 1077
f 1064 1081 1080
f 1075 1092 1091
f 1106 1108 1110
f 1091 1106 1090
f 1089 1104 1088
f 1087 1102 1086
f 1085 1100 1084
f 1083 1098 1082
f 1094 1109 1093
f 1081 1096 1080
f 1092 1107 1091
f 1090 1105 1089
f 1088 1103 1087
f 1086 1101 1085
f 1083 1100 1099
f 1079 1110 1094
f 1082 1097 1081
f 1093 1108 1092
f 1121 1117 1113
f 1062 1111 1032
f 1032 1112 1034
f 1046 1119 1048
f 1052 1122 1054
f 1036 1114 1038
f 1060 1124 1125
f 1042 1117 1044
f 1050 1119 1120
f 1054 1123 1056
f 1040 1114 1115
f 1062 1125 1126
f 1044 1118 1046
f 1050 1121 1052
f 1036 1112 1113
f 1058 1123 1124
f 1032 1034 1033
f 1034 1036 1035
f 1036 1038 1037
f 1038 1040 1039
f 1040 1042 1041
f 1042 1044 1043
f 1044 1046 1045
f 1046 1048 1047
f 1048 1050 1049
f 1050 1052 1051
f 1052 1054 1053
f 1054 1056 1055
f 1056 1058 1057
f 1058 1060 1059
f 1042 1040 1115
f 1062 1032 1031
f 1060 1062 1061
f 1049 1072 1071
f 1074 1090 1089
f 1053 1055 1075
f 1037 1039 1067
f 1061 1078 1077
f 1045 1070 1069
f 1049 1051 1073
f 1035 1065 1064
f 1055 1057 1076
f 1041 1068 1067
f 1031 1063 1078
f 1033 1064 1063
f 1047 1071 1070
f 1053 1074 1073
f 1035 1037 1066
f 1059 1077 1076
f 1043 1069 1068
f 1079 1080 1096
f 1072 1088 1087
f 1069 1070 1086
f 1068 1084 1083
f 1063 1079 1094
f 1066 1082 1081
f 1077 1093 1092
f 1063 1064 1080
f 1075 1091 1090
f 1073 1089 1088
f 1070 1071 1087
f 1068 1069 1085
f 1067 1083 1082
f 1078 1094 1093
f 1064 1065 1081
f 1075 1076 1092
f 1110 1095 1096
f 1096 1097 1098
f 1098 1099 1100
f 1100 1101 1102
f 1102 1103 1104
f 1104 1105 1106
f 1106 1107 1108
f 1108 1109 1110
f 1110 1096 1098
f 1098 1100 1110
f 1100 1102 1110
f 1102 1104 1110
f 1104 1106 1110
f 1091 1107 1106
f 1089 1105 1104
f 1087 1103 1102
f 1085 1101 1100
f 1083 1099 1098
f 1094 1110 1109
f 1081 1097 1096
f 1092 1108 1107
f 1090 1106 1105
f 1088 1104 1103
f 1086 1102 1101
f 1083 1084 1100
f 1079 1095 1110
f 1082 1098 1097
f 1093 1109 1108
f 1113 1112 1111
f 1111 1126 1125
f 1125 1124 1123
f 1123 1122 1121
f 1121 1120 1119
f 1119 1118 1117
f 1117 1116 1115
f 1115 1114 1113
f 1113 1111 1125
f 1125 1123 1113
f 1123 1121 1113
f 1121 1119 1117
f 1117 1115 1113
f 1062 1126 1111
f 1032 1111 1112
f 1046 1118 1119
f 1052 1121 1122
f 1036 1113 1114
f 1060 1058 1124
f 1042 1116 1117
f 1050 1048 1119
f 1054 1122 1123
f 1040 1038 1114
f 1062 1060 1125
f 1044 1117 1118
f 1050 1120 1121
f 1036 1034 1112
f 1058 1056 1123
v -1.5268691 2.5828979 -3.3089361
v -1.2437516 2.5828979 -3.3089361
v -1.5268691 2.5561678 -3.1745546
v -1.2437516 2.5561678 -3.1745546
v -1.5268691 2.4800470 -3.0606315
v -1.2437516 2.4800470 -3.0606315
v -1.5268691 2.3661239 -2.9845107
v -1.2437516 2.3661239 -2.9845107
v -1.5268692 2.2317424 -2.9577806
v -1.2437518 2.2317424 -2.9577806
v -1.5268692 2.0973608 -2.9845107
v -1.2437518 2.0973608 -2.9845107
v -1.5268692 1.9834379 -3.0606315
v -1.2437518 1.9834379 -3.0606315
v -1.5268692 1.9073169 -3.1745546
v -1.2437518 1.9073169 -3.1745546
v -1.5268692 1.8805867 -3.3089361
v -1.2437518 1.8805867 -3.3089361
v -1.5268692 1.9073169 -3.4433174
v -1.2437518 1.9073168 -3.4433174
v -1.5268692 1.9834378 -3.5572405
v -1.2437518 1.9834378 -3.5572405
v -1.5268692 2.0973608 -3.6333616
v -1.2437518 2.0973608 -3.6333616
v -1.5268691 2.2317424 -3.6600916
v -1.2437516 2.2317424 -3.6600916
v -1.5268691 2.3661239 -3.6333616
v -1.2437516 2.3661239 -3.6333616
v -1.5268691 2.4800470 -3.5572405
v -1.2437516 2.4800470 -3.5572405
v -1.5268691 2.5561678 -3.4433174
v -1.2437516 2.5561678 -3.4433174
v -1.5772001 2.5234010 -3.3089361
v -1.5772001 2.5011997 -3.1973233
v -1.5772001 2.4379761 -3.1027024
v -1.5772001 2.3433554 -3.0394788
v -1.5772002 2.2317424 -3.0172775
v -1.5772002 2.1201296 -3.0394788
v -1.5772002 2.0255086 -3.1027024
v -1.5772002 1.9622850 -3.1973231
v -1.5772002 1.9400839 -3.3089361
v -1.5772002 1.9622849 -3.4205489
v -1.5772002 2.0255086 -3.5151699
v -1.5772002 2.1201293 -3.5783935
v -1.5772001 2.2317424 -3.6005948
v -1.5772001 2.3433554 -3.5783935
v -1.5772001 2.4379761 -3.5151699
v -1.5772001 2.5011997 -3.4205489
v -1.5772001 2.4083991 -3.3089361
v -1.5772001 2.3949518 -3.2413325
v -1.5772001 2.3566575 -3.1840210
v -1.5772001 2.2993460 -3.1457267
v -1.5772002 2.2317424 -3.1322794
v -1.5772002 2.1641388 -3.1457267
v -1.5772002 2.1068273 -3.1840210
v -1.5772002 2.0685329 -3.2413325
v -1.5772002 2.0550857 -3.3089361
v -1.5772002 2.0685329 -3.3765397
v -1.5772002 2.1068273 -3.4338512
v -1.5772002 2.1641388 -3.4721456
v -1.5772001 2.2317424 -3.4855928
v -1.5772001 2.2993460 -3.4721456
v -1.5772001 2.3566575 -3.4338512
v -1.5772001 2.3949518 -3.3765397
v -1.5307444 2.3614461 -3.3089361
v -1.5307444 2.3515730 -3.2593007
v -1.5307444 2.3234568 -3.2172217
v -1.5307444 2.2813778 -3.1891055
v -1.5307444 2.2317424 -3.1792324
v -1.5307444 2.1821070 -3.1891055
v -1.5307444 2.1400280 -3.2172217
v -1.5307444 2.1119118 -3.2593007
v -1.5307444 2.1020386 -3.3089361
v -1.5307444 2.1119118 -3.3585715
v -1.5307444 2.1400280 -3.4006505
v -1.5307444 2.1821070 -3.4287667
v -1.5307444 2.2317424 -3.4386399
v -1.5307444 2.2813778 -3.4287667
v -1.5307444 2.3234568 -3.4006505
v -1.5307444 2.3515730 -3.3585715
v -1.1879234 2.5239167 -3.3089361
v -1.1879234 2.5016763 -3.1971257
v -1.1879234 2.4383409 -3.1023376
v -1.1879234 2.3435526 -3.0390022
v -1.1879234 2.2317424 -3.0167618
v -1.1879234 2.1199319 -3.0390022
v -1.1879234 2.0251439 -3.1023376
v -1.1879234 1.9618083 -3.1971257
v -1.1879234 1.9395679 -3.3089361
v -1.1879234 1.9618083 -3.4207463
v -1.1879234 2.0251439 -3.5155346
v -1.1879234 2.1199319 -3.5788701
v -1.1879234 2.2317424 -3.6011105
v -1.1879234 2.3435528 -3.5788701
v -1.1879234 2.4383409 -3.5155346
v -1.1879234 2.5016763 -3.4207463
f 1128 1129 1127
f 1130 1131 1129
f 1132 1133 1131
f 1134 1135 1133
f 1136 1137 1135
f 1138 1139 1137
f 1140 1141 1139
f 1142 1143 1141
f 1144 1145 1143
f 1146 1147 1145
f 1148 1149 1147
f 1150 1151 1149
f 1152 1153 1151
f 1154 1155 1153
f 1138 1211 1212
f 1158 1127 1157
f 1156 1157 1155
f 1145 1167 1143
f 1170 1185 1169
f 1149 1171 1170
f 1133 1163 1162
f 1157 1173 1155
f 1141 1165 1139
f 1145 1169 1168
f 1131 1160 1129
f 1151 1172 1171
f 1137 1163 1135
f 1127 1174 1157
f 1129 1159 1127
f 1143 1166 1141
f 1149 1169 1147
f 1131 1162 1161
f 1155 1172 1153
f 1139 1164 1137
f 1175 1192 1191
f 1168 1183 1167
f 1165 1182 1181
f 1164 1179 1163
f 1159 1190 1174
f 1162 1177 1161
f 1173 1188 1172
f 1159 1176 1175
f 1171 1186 1170
f 1169 1184 1168
f 1166 1183 1182
f 1164 1181 1180
f 1163 1178 1162
f 1174 1189 1173
f 1160 1177 1176
f 1171 1188 1187
f 1202 1204 1206
f 1187 1202 1186
f 1185 1200 1184
f 1183 1198 1182
f 1181 1196 1180
f 1179 1194 1178
f 1190 1205 1189
f 1177 1192 1176
f 1188 1203 1187
f 1186 1201 1185
f 1184 1199 1183
f 1182 1197 1181
f 1179 1196 1195
f 1175 1206 1190
f 1178 1193 1177
f 1189 1204 1188
f 1217 1213 1209
f 1158 1207 1128
f 1128 1208 1130
f 1142 1215 1144
f 1148 1218 1150
f 1132 1210 1134
f 1156 1220 1221
f 1138 1213 1140
f 1146 1215 1216
f 1150 1219 1152
f 1136 1210 1211
f 1158 1221 1222
f 1140 1214 1142
f 1146 1217 1148
f 1132 1208 1209
f 1154 1219 1220
f 1128 1130 1129
f 1130 1132 1131
f 1132 1134 1133
f 1134 1136 1135
f 1136 1138 1137
f 1138 1140 1139
f 1140 1142 1141
f 1142 1144 1143
f 1144 1146 1145
f 1146 1148 1147
f 1148 1150 1149
f 1150 1152 1151
f 1152 1154 1153
f 1154 1156 1155
f 1138 1136 1211
f 1158 1128 1127
f 1156 1158 1157
f 1145 1168 1167
f 1170 1186 1185
f 1149 1151 1171
f 1133 1135 1163
f 1157 1174 1173
f 1141 1166 1165
f 1145 1147 1169
f 1131 1161 1160
f 1151 1153 1172
f 1137 1164 1163
f 1127 1159 1174
f 1129 1160 1159
f 1143 1167 1166
f 1149 1170 1169
f 1131 1133 1162
f 1155 1173 1172
f 1139 1165 1164
f 1175 1176 1192
f 1168 1184 1183
f 1165 1166 1182
f 1164 1180 1179
f 1159 1175 1190
f 1162 1178 1177
f 1173 1189 1188
f 1159 1160 1176
f 1171 1187 1186
f 1169 1185 1184
f 1166 1167 1183
f 1164 1165 1181
f 1163 1179 1178
f 1174 1190 1189
f 1160 1161 1177
f 1171 1172 1188
f 1206 1191 1192
f 1192 1193 1194
f 1194 1195 1196
f 1196 1197 1198
f 1198 1199 1200
f 1200 1201 1202
f 1202 1203 1204
f 1204 1205 1206
f 1206 1192 1194
f 1194 1196 1206
f 1196 1198 1206
f 1198 1200 1206
f 1200 1202 1206
f 1187 1203 1202
f 1185 1201 1200
f 1183 1199 1198
f 1181 1197 1196
f 1179 1195 1194
f 1190 1206 1205
f 1177 1193 1192
f 1188 1204 1203
f 1186 1202 1201
f 1184 1200 1199
f 1182 1198 1197
f 1179 1180 1196
f 1175 1191 1206
f 1178 1194 1193
f 1189 1205 1204
f 1209 1208 1207
f 1207 1222 1221
f 1221 1220 1219
f 1219 1218 1217
f 1217 1216 1215
f 1215 1214 1213
f 1213 1212 1211
f 1211 1210 1209
f 1209 1207 1221
f 1221 1219 1209
f 1219 1217 1209
f 1217 1215 1213
f 1213 1211 1209
f 1158 1222 1207
f 1128 1207 1208
f 1142 1214 1215
f 1148 1217 1218
f 1132 1209 1210
f 1156 1154 1220
f 1138 1212 1213
f 1146 1144 1215
f 1150 1218 1219
f 1136 1134 1210
f 1158 1156 1221
f 1140 1213 1214
f 1146 1216 1217
f 1132 1130 1208
f 1154 1152 1219
v -1.5298183 2.5828979 -2.5169129
v -1.2467009 2.5828979 -2.5169129
v -1.5298183 2.5561678 -2.3825314
v -1.2467009 2.5561678 -2.3825314
v -1.5298183 2.4800470 -2.2686083
v -1.2467009 2.4800470 -2.2686083
v -1.5298183 2.3661239 -2.1924875
v -1.2467009 2.3661239 -2.1924875
v -1.5298184 2.2317424 -2.1657574
v -1.2467010 2.2317424 -2.1657574
v -1.5298184 2.0973608 -2.1924875
v -1.2467010 2.0973608 -2.1924875
v -1.5298184 1.9834379 -2.2686083
v -1.2467010 1.9834379 -2.2686083
v -1.5298184 1.9073169 -2.3825314
v -1.2467010 1.9073169 -2.3825314
v -1.5298184 1.8805867 -2.5169129
v -1.2467010 1.8805867 -2.5169129
v -1.5298184 1.9073169 -2.6512942
v -1.2467010 1.9073168 -2.6512942
v -1.5298184 1.9834378 -2.7652173
v -1.2467010 1.9834378 -2.7652173
v -1.5298184 2.0973608 -2.8413384
v -1.2467010 2.0973608 -2.8413384
v -1.5298183 2.2317424 -2.8680685
v -1.2467009 2.2317424 -2.8680685
v -1.5298183 2.3661239 -2.8413384
v -1.2467009 2.3661239 -2.8413384
v -1.5298183 2.4800470 -2.7652173
v -1.2467009 2.4800470 -2.7652173
v -1.5298183 2.5561678 -2.6512942
v -1.2467009 2.5561678 -2.6512942
v -1.5801493 2.5234010 -2.5169129
v -1.5801493 2.5011997 -2.4053001
v -1.5801493 2.4379761 -2.3106792
v -1.5801493 2.3433554 -2.2474556
v -1.5801494 2.2317424 -2.2252543
v -1.5801494 2.1201296 -2.2474556
v -1.5801494 2.0255086 -2.3106792
v -1.5801494 1.9622850 -2.4052999
v -1.5801494 1.9400839 -2.5169129
v -1.5801494 1.9622849 -2.6285257
v -1.5801494 2.0255086 -2.7231467
v -1.5801494 2.1201293 -2.7863703
v -1.5801493 2.2317424 -2.8085716
v -1.5801493 2.3433554 -2.7863703
v -1.5801493 2.4379761 -2.7231467
v -1.5801493 2.5011997 -2.6285257
v -1.5801493 2.4083991 -2.5169129
v -1.5801493 2.3949518 -2.4493093
v -1.5801493 2.3566575 -2.3919978
v -1.5801493 2.2993460 -2.3537035
v -1.5801494 2.2317424 -2.3402562
v -1.5801494 2.1641388 -2.3537035
v -1.5801494 2.1068273 -2.3919978
v -1.5801494 2.0685329 -2.4493093
v -1.5801494 2.0550857 -2.5169129
v -1.5801494 2.0685329 -2.5845165
v -1.5801494 2.1068273 -2.6418281
v -1.5801494 2.1641388 -2.6801224
v -1.5801493 2.2317424 -2.6935697
v -1.5801493 2.2993460 -2.6801224
v -1.5801493 2.3566575 -2.6418281
v -1.5801493 2.3949518 -2.5845165
v -1.5336937 2.3614461 -2.5169129
v -1.5336937 2.3515730 -2.4672775
v -1.5336937 2.3234568 -2.4251986
v -1.5336937 2.2813778 -2.3970823
v -1.5336937 2.2317424 -2.3872092
v -1.5336937 2.1821070 -2.3970823
v -1.5336937 2.1400280 -2.4251986
v -1.5336937 2.1119118 -2.4672775
v -1.5336937 2.1020386 -2.5169129
v -1.5336937 2.1119118 -2.5665483
v -1.5336937 2.1400280 -2.6086273
v -1.5336937 2.1821070 -2.6367435
v -1.5336937 2.2317424 -2.6466167
v -1.5336937 2.2813778 -2.6367435
v -1.5336937 2.3234568 -2.6086273
v -1.5336937 2.3515730 -2.5665483
v -1.1908727 2.5239167 -2.5169129
v -1.1908727 2.5016763 -2.4051025
v -1.1908727 2.4383409 -2.3103144
v -1.1908727 2.3435526 -2.2469790
v -1.1908727 2.2317424 -2.2247386
v -1.1908727 2.1199319 -2.2469790
v -1.1908727 2.0251439 -2.3103144
v -1.1908727 1.9618083 -2.4051025
v -1.1908727 1.9395679 -2.5169129
v -1.1908727 1.9618083 -2.6287231
v -1.1908727 2.0251439 -2.7235115
v -1.1908727 2.1199319 -2.7868469
v -1.1908727 2.2317424 -2.8090873
v -1.1908727 2.3435528 -2.7868469
v -1.1908727 2.4383409 -2.7235115
v -1.1908727 2.5016763 -2.6287231
f 1224 1225 1223
f 1226 1227 1225
f 1228 1229 1227
f 1230 1231 1229
f 1232 1233 1231
f 1234 1235 1233
f 1236 1237 1235
f 1238 1239 1237
f 1240 1241 1239
f 1242 1243 1241
f 1244 1245 1243
f 1246 1247 1245
f 1248 1249 1247
f 1250 1251 1249
f 1234 1307 1308
f 1254 1223 1253
f 1252 1253 1251
f 1241 1263 1239
f 1266 1281 1265
f 1245 1267 1266
f 1229 1259 1258
f 1253 1269 1251
f 1237 1261 1235
f 1241 1265 1264
f 1227 1256 1225
f 1247 1268 1267
f 1233 1259 1231
f 1223 1270 1253
f 1225 1255 1223
f 1239 1262 1237
f 1245 1265 1243
f 1227 1258 1257
f 1251 1268 1249
f 1235 1260 1233
f 1271 1288 1287
f 1264 1279 1263
f 1261 1278 1277
f 1260 1275 1259
f 1255 1286 1270
f 1258 1273 1257
f 1269 1284 1268
f 1255 1272 1271
f 1267 1282 1266
f 1265 1280 1264
f 1262 1279 1278
f 1260 1277 1276
f 1259 1274 1258
f 1270 1285 1269
f 1256 1273 1272
f 1267 1284 1283
f 1298 1300 1302
f 1283 1298 1282
f 1281 1296 1280
f 1279 1294 1278
f 1277 1292 1276
f 1275 1290 1274
f 1286 1301 1285
f 1273 1288 1272
f 1284 1299 1283
f 1282 1297 1281
f 1280 1295 1279
f 1278 1293 1277
f 1275 1292 1291
f 1271 1302 1286
f 1274 1289 1273
f 1285 1300 1284
f 1313 1309 1305
f 1254 1303 1224
f 1224 1304 1226
f 1238 1311 1240
f 1244 1314 1246
f 1228 1306 1230
f 1252 1316 1317
f 1234 1309 1236
f 1242 1311 1312
f 1246 1315 1248
f 1232 1306 1307
f 1254 1317 1318
f 1236 1310 1238
f 1242 1313 1244
f 1228 1304 1305
f 1250 1315 1316
f 1224 1226 1225
f 1226 1228 1227
f 1228 1230 1229
f 1230 1232 1231
f 1232 1234 1233
f 1234 1236 1235
f 1236 1238 1237
f 1238 1240 1239
f 1240 1242 1241
f 1242 1244 1243
f 1244 1246 1245
f 1246 1248 1247
f 1248 1250 1249
f 1250 1252 1251
f 1234 1232 1307
f 1254 1224 1223
f 1252 1254 1253
f 1241 1264 1263
f 1266 1282 1281
f 1245 1247 1267
f 1229 1231 1259
f 1253 1270 1269
f 1237 1262 1261
f 1241 1243 1265
f 1227 1257 1256
f 1247 1249 1268
f 1233 1260 1259
f 1223 1255 1270
f 1225 1256 1255
f 1239 1263 1262
f 1245 1266 1265
f 1227 1229 1258
f 1251 1269 1268
f 1235 1261 1260
f 1271 1272 1288
f 1264 1280 1279
f 1261 1262 1278
f 1260 1276 1275
f 1255 1271 1286
f 1258 1274 1273
f 1269 1285 1284
f 1255 1256 1272
f 1267 1283 1282
f 1265 1281 1280
f 1262 1263 1279
f 1260 1261 1277
f 1259 1275 1274
f 1270 1286 1285
f 1256 1257 1273
f 1267 1268 1284
f 1302 1287 1288
f 1288 1289 1290
f 1290 1291 1292
f 1292 1293 1294
f 1294 1295 1296
f 1296 1297 1298
f 1298 1299 1300
f 1300 1301 1302
f 1302 1288 1290
f 1290 1292 1302
f 1292 1294 1302
f 1294 1296 1302
f 1296 1298 1302
f 1283 1299 1298
f 1281 1297 1296
f 1279 1295 1294
f 1277 1293 1292
f 1275 1291 1290
f 1286 1302 1301
f 1273 1289 1288
f 1284 1300 1299
f 1282 1298 1297
f 1280 1296 1295
f 1278 1294 1293
f 1275 1276 1292
f 1271 1287 1302
f 1274 1290 1289
f 1285 1301 1300
f 1305 1304 1303
f 1303 1318 1317
f 1317 1316 1315
f 1315 1314 1313
f 1313 1312 1311
f 1311 1310 1309
f 1309 1308 1307
f 1307 1306 1305
f 1305 1303 1317
f 1317 1315 1305
f 1315 1313 1305
f 1313 1311 1309
f 1309 1307 1305
f 1254 1318 1303
f 1224 1303 1304
f 1238 1310 1311
f 1244 1313 1314
f 1228 1305 1306
f 1252 1250 1316
f 1234 1308 1309
f 1242 1240 1311
f 1246 1314 1315
f 1232 1230 1306
f 1254 1252 1317
f 1236 1309 1310
f 1242 1312 1313
f 1228 1226 1304
f 1250 1248 1315
