# Sci-fi chess by Drummyfish (CC0); converted for OTBMaster3D
v 3.5578964 3.1934550 -1.8430146
v 3.5578964 3.4920831 -1.8430146
v 3.5401907 3.1934550 -1.8123474
v 3.5401907 3.4920831 -1.8123474
v 3.5047791 3.1934550 -1.8123474
v 3.5047791 3.4920831 -1.8123474
v 3.4870734 3.1934550 -1.8430146
v 3.4870734 3.4920831 -1.8430146
v 3.5047791 3.1934550 -1.8736819
v 3.5047791 3.4920831 -1.8736819
v 3.5401907 3.1934550 -1.8736819
v 3.5401907 3.4920831 -1.8736819
v 3.5578964 2.9893742 -1.8430146
v 3.5401907 2.9893742 -1.8123474
v 3.5047791 2.9893742 -1.8123474
v 3.4870734 2.9893742 -1.8430146
v 3.5047791 2.9893742 -1.8736819
v 3.5401907 2.9893742 -1.8736819
v 3.5274968 2.9138799 -1.8430146
v 3.5129066 2.9239106 -1.8123474
v 3.4837260 2.9439723 -1.8123474
v 3.4691358 2.9540031 -1.8430146
v 3.4837260 2.9439723 -1.8736819
v 3.5129066 2.9239106 -1.8736819
v 3.4595318 2.8659754 -1.8430146
v 3.4550271 2.8830984 -1.8123474
v 3.4460173 2.9173446 -1.8123474
v 3.4415126 2.9344676 -1.8430146
v 3.4460173 2.9173446 -1.8736819
v 3.4550271 2.8830984 -1.8736819
v 3.2622755 2.8579273 -1.8430146
v 3.3950956 2.8755815 -1.8123474
v 3.3977962 2.9108899 -1.8123474
v 3.3991463 2.9285440 -1.8430146
v 3.3977962 2.9108899 -1.8736819
v 3.3950956 2.8755815 -1.8736819
v 3.5578964 3.7833493 -1.8430146
v 3.5401907 3.7833493 -1.8123474
v 3.5047791 3.7833493 -1.8123474
v 3.4870734 3.7833493 -1.8430146
v 3.5047791 3.7833493 -1.8736819
v 3.5401907 3.7833493 -1.8736819
v 3.5578964 3.8272455 -1.8581026
v 3.5401907 3.8474057 -1.8349930
v 3.5047791 3.8474057 -1.8349930
v 3.4870734 3.8272455 -1.8581026
v 3.5047791 3.8070855 -1.8812122
v 3.5401907 3.8070855 -1.8812122
v 3.5637450 3.8480158 -1.8862674
v 3.5445023 3.8767011 -1.8784679
v 3.5095689 3.8767011 -1.8842676
v 3.4938786 3.8480158 -1.8978666
v 3.5131216 3.8193305 -1.9056661
v 3.5480547 3.8193305 -1.8998666
v 3.5957246 3.9057882 -2.0789578
v 3.5764818 3.9353144 -2.0755088
v 3.5415485 3.9344523 -2.0812440
v 3.5258579 3.9040642 -2.0904281
v 3.5451009 3.8745382 -2.0938771
v 3.5800343 3.8754001 -2.0881419
v 3.6943412 4.0600324 -2.7001600
v 3.6750984 4.0892143 -2.6944935
v 3.6401649 4.0887871 -2.7002773
v 3.6244745 4.0591788 -2.7117276
v 3.6437175 4.0299969 -2.7173941
v 3.6786509 4.0304241 -2.7116103
v 3.7808266 4.2047982 -3.2944677
v 3.7615836 4.2339802 -3.2888012
v 3.7266502 4.2335529 -3.2945852
v 3.7109599 4.2039442 -3.3060353
v 3.7302029 4.1747627 -3.3117018
v 3.7651362 4.1751895 -3.3059180
v 3.7810278 4.2510309 -3.4553454
v 3.7633448 4.2802124 -3.4458740
v 3.7279661 4.2797852 -3.4444122
v 3.7102704 4.2501769 -3.4524219
v 3.7279534 4.2209949 -3.4618936
v 3.7633319 4.2214217 -3.4633553
v 3.7216411 4.2760839 -3.5551746
v 3.7124619 4.3052654 -3.5373380
v 3.6841683 4.3048382 -3.5160484
v 3.6650536 4.2752299 -3.5125949
v 3.6742325 4.2460480 -3.5304315
v 3.7025263 4.2464747 -3.5517216
v 3.5982075 4.3031478 -3.6552942
v 3.5919156 4.3255181 -3.6285744
v 3.5803797 4.3131433 -3.5974653
v 3.5751362 4.2783985 -3.5930762
v 3.5814281 4.2560282 -3.6197963
v 3.5929637 4.2684031 -3.6509054
v 3.4880195 4.3065314 -3.6739948
v 3.4878855 4.3289018 -3.6465445
v 3.4836266 4.3165269 -3.6136398
v 3.4795020 4.2817822 -3.6081858
v 3.4796357 4.2594118 -3.6356363
v 3.4838943 4.2717867 -3.6685410
v 3.9873519 2.7114923 -3.8589747
v 3.9873519 4.3004651 -3.8589747
v 3.8001077 2.7114923 -3.8589747
v 3.8001077 4.1348252 -3.8589747
v 3.8001077 4.0036845 -5.1163454
v 3.8001077 2.7114923 -5.1163454
v 3.7107368 3.8229828 -1.9760505
v 3.6517920 3.8158448 -1.9479020
v 3.4224970 2.4226151 -2.1601334
v 3.6132517 3.8042998 -1.9023750
v 3.6523724 3.8080077 -1.9169971
v 3.6428328 3.8094785 -1.9227967
v 3.7053385 3.8196788 -1.9630208
v 3.7252779 3.8289845 -1.9997177
v 3.7107954 3.8229849 -1.9760587
v 3.7252779 2.7114923 -1.9997177
v 3.7053385 2.7114923 -1.9630208
v 3.6523724 2.7114923 -1.9169971
v 3.6132517 2.7114923 -1.9023750
v 3.5522206 4.2329621 -3.5927796
v 3.6768909 4.1986837 -3.4576056
v 3.6942596 4.1984653 -3.4567440
v 3.7955651 4.2565489 -3.6857939
v 3.5534351 4.2375364 -3.6108179
v 3.3726127 3.8394308 -2.0409117
v 3.6229711 3.8214123 -1.9698567
v 3.6768909 4.3471608 -3.4199538
v 3.5522206 4.3814392 -3.5551281
v 3.5340071 3.8893518 -2.2377722
v 3.4908726 3.8688412 -2.1568894
v 3.5477161 3.8656776 -2.1444142
v 3.4094248 3.8509374 -2.0862870
v 3.3217003 3.8426828 -2.0537357
v 3.3726099 3.8394454 -2.0409689
v 3.3217003 3.9911599 -2.0160840
v 3.4094248 3.9994144 -2.0486350
v 3.4908724 4.0173182 -2.1192374
v 3.5340071 4.0378289 -2.2001204
v 3.4224970 2.3242116 -2.1958294
v 3.4114299 2.7114923 -1.9023750
v 3.4198761 2.2391863 -3.6017859
v 3.4224970 2.2391863 -2.1958294
v 3.4224970 2.7114923 -2.1958294
v 3.4198761 2.7114923 -3.6017859
v 3.4224970 2.6128418 -2.0437250
v 3.3374233 2.4477394 -4.7561588
v 3.3374479 2.4477394 -4.1831031
v 3.3812242 2.7114923 -4.1168475
v 3.3811936 2.7114923 -4.8221474
v 3.2514544 4.4676456 -4.7549744
v 3.2522295 4.4625297 -4.2276335
v 3.2586741 4.1010947 -4.2054701
v 3.2578990 4.0517516 -4.7305226
v 3.5340071 4.0378289 -2.2001204
v 3.4908724 4.0173182 -2.1192374
v 3.3127337 4.4458899 -4.1774063
v 3.4094248 3.9994144 -2.0486350
v 3.3964419 4.4242883 -4.2604332
v 3.3675466 4.4234071 -4.1899066
v 3.3606091 4.4333158 -4.2013068
v 3.3141296 4.4225187 -4.1358204
v 3.2439663 4.4217529 -4.1060481
v 3.2994196 4.4343667 -4.1431527
v 3.3217003 3.9911599 -2.0160840
v 3.3217003 3.8426828 -2.0537357
v 3.4094248 3.8509374 -2.0862870
v 3.4908726 3.8688412 -2.1568894
v 3.5340071 3.8893518 -2.2377722
v 3.5522206 4.3814392 -3.5551281
v 3.3288383 4.4475679 -4.8201261
v 3.6768909 4.3471608 -3.4199538
v 3.2685161 4.4274049 -4.8760147
v 3.3336973 4.4286084 -4.8491573
v 3.3200514 4.4399166 -4.8423090
v 3.3686385 4.4290552 -4.8143339
v 3.3957233 4.4290304 -4.7492366
v 3.3623734 4.4384513 -4.8037024
v 3.6768909 4.1986837 -3.4576056
v 3.5522206 4.2329621 -3.5927796
v 2.9460721 4.4829826 -4.1024857
v 2.9828730 4.5155301 -4.1027741
v 2.9831119 4.5808315 -4.1024961
v 2.9463084 4.6099420 -4.1019268
v 3.2648053 4.6804976 -4.8748541
v 3.3299866 4.6817012 -4.8479967
v 3.3649278 4.6821480 -4.8131733
v 3.3920126 4.6821232 -4.7480755
v 3.3957233 4.4290304 -4.7492366
v 3.3686385 4.4290552 -4.8143339
v 3.3336973 4.4286084 -4.8491573
v 3.2685161 4.4274049 -4.8760147
v 4.0626678 3.2005429 -3.0018694
v 3.7833381 3.5379391 -2.4116209
v 3.8683176 3.5924599 -3.0451493
v 3.8713510 3.1966794 -3.0360179
v 4.0596342 3.5963235 -3.0110009
v 3.7899957 3.1818919 -2.4086919
v 3.8257530 3.4858189 -4.2186956
v 3.8257530 3.3669229 -4.2186956
v 3.8554771 3.4858189 -4.2701793
v 3.8554771 3.3669229 -4.2701793
v 3.9149251 3.4858189 -4.2701793
v 3.9149251 3.3669229 -4.2701793
v 3.9446492 3.4858189 -4.2186956
v 3.9446492 3.3669229 -4.2186956
v 3.9149251 3.4858189 -4.1672125
v 3.9149251 3.3669229 -4.1672125
v 3.8554771 3.4858189 -4.1672125
v 3.8554771 3.3669229 -4.1672125
v 3.8257530 3.6074374 -4.2186956
v 3.8554771 3.6074374 -4.2701793
v 3.9149251 3.6074374 -4.2701793
v 3.9446492 3.6074374 -4.2186956
v 3.9149251 3.6074374 -4.1672125
v 3.8554771 3.6074374 -4.1672125
v 3.8257530 3.7277248 -4.2186956
v 3.8554771 3.7277248 -4.2701793
v 3.9149251 3.7277248 -4.2701793
v 3.9446492 3.7277248 -4.2186956
v 3.9149251 3.7277248 -4.1672125
v 3.8554771 3.7277248 -4.1672125
v 3.8257530 3.8431857 -4.2186956
v 3.8554771 3.8431857 -4.2701793
v 3.9149251 3.8431857 -4.2701793
v 3.9446492 3.8431857 -4.2186956
v 3.9149251 3.8431857 -4.1672125
v 3.8554771 3.8431857 -4.1672125
v 3.8257530 3.9494188 -4.2186956
v 3.8554771 3.9494188 -4.2701793
v 3.9149251 3.9494188 -4.2701793
v 3.9446492 3.9494188 -4.2186956
v 3.9149251 3.9494188 -4.1672125
v 3.8554771 3.9494188 -4.1672125
v 3.8257530 4.0456052 -4.2186956
v 3.8554771 4.0456052 -4.2701793
v 3.9149251 4.0456052 -4.2701793
v 3.9446492 4.0456052 -4.2186956
v 3.9149251 4.0456052 -4.1672125
v 3.8554771 4.0456052 -4.1672125
v 3.8153603 4.0804548 -4.2186956
v 3.8373990 4.1004000 -4.2701793
v 3.8814759 4.1402907 -4.2701793
v 3.9035144 4.1602364 -4.2186956
v 3.8814759 4.1402907 -4.1672125
v 3.8373990 4.1004000 -4.1672125
v 3.7732427 4.1147847 -4.2186956
v 3.7784965 4.1440406 -4.2701793
v 3.7890038 4.2025528 -4.2701793
v 3.7942576 4.2318087 -4.2186956
v 3.7890038 4.2025528 -4.1672125
v 3.7784965 4.1440406 -4.1672125
v 3.6366682 4.1224298 -4.2186956
v 3.6340575 4.1520391 -4.2701793
v 3.6288362 4.2112570 -4.2701793
v 3.6262255 4.2408662 -4.2186956
v 3.6288362 4.2112570 -4.1672125
v 3.6340575 4.1520391 -4.1672125
v 3.5109334 4.1113434 -4.2186956
v 3.5083227 4.1409526 -4.2701793
v 3.5031013 4.2001705 -4.2701793
v 3.5004907 4.2297797 -4.2186956
v 3.5031013 4.2001705 -4.1672125
v 3.5083227 4.1409526 -4.1672125
v 3.8257530 3.4473124 -4.6664929
v 3.8257530 3.3284161 -4.6664929
v 3.8554771 3.4473124 -4.7179766
v 3.8554771 3.3284161 -4.7179766
v 3.9149251 3.4473124 -4.7179766
v 3.9149251 3.3284161 -4.7179766
v 3.9446492 3.4473124 -4.6664929
v 3.9446492 3.3284161 -4.6664929
v 3.9149251 3.4473124 -4.6150093
v 3.9149251 3.3284161 -4.6150093
v 3.8554771 3.4473124 -4.6150093
v 3.8554771 3.3284161 -4.6150093
v 3.8257530 3.5689306 -4.6664929
v 3.8554771 3.5689306 -4.7179766
v 3.9149251 3.5689306 -4.7179766
v 3.9446492 3.5689306 -4.6664929
v 3.9149251 3.5689306 -4.6150093
v 3.8554771 3.5689306 -4.6150093
v 3.8257530 3.6892183 -4.6664929
v 3.8554771 3.6892183 -4.7179766
v 3.9149251 3.6892183 -4.7179766
v 3.9446492 3.6892183 -4.6664929
v 3.9149251 3.6892183 -4.6150093
v 3.8554771 3.6892183 -4.6150093
v 3.8257530 3.8046789 -4.6664929
v 3.8554771 3.8046789 -4.7179766
v 3.9149251 3.8046789 -4.7179766
v 3.9446492 3.8046789 -4.6664929
v 3.9149251 3.8046789 -4.6150093
v 3.8554771 3.8046789 -4.6150093
v 3.8257530 3.9109123 -4.6664929
v 3.8554771 3.9109123 -4.7179766
v 3.9149251 3.9109123 -4.7179766
v 3.9446492 3.9109123 -4.6664929
v 3.9149251 3.9109123 -4.6150093
v 3.8554771 3.9109123 -4.6150093
v 3.8257530 4.0070987 -4.6664929
v 3.8554771 4.0070987 -4.7179766
v 3.9149251 4.0070987 -4.7179766
v 3.9446492 4.0070987 -4.6664929
v 3.9149251 4.0070987 -4.6150093
v 3.8554771 4.0070987 -4.6150093
v 3.8153603 4.0419478 -4.6664929
v 3.8373990 4.0618935 -4.7179766
v 3.8814759 4.1017842 -4.7179766
v 3.9035144 4.1217299 -4.6664929
v 3.8814759 4.1017842 -4.6150093
v 3.8373990 4.0618935 -4.6150093
v 3.7732427 4.0762782 -4.6664929
v 3.7784965 4.1055341 -4.7179766
v 3.7890038 4.1640463 -4.7179766
v 3.7942576 4.1933022 -4.6664929
v 3.7890038 4.1640463 -4.6150093
v 3.7784965 4.1055341 -4.6150093
v 3.6366682 4.0839233 -4.6664929
v 3.6340575 4.1135321 -4.7179766
v 3.6288362 4.1727505 -4.7179766
v 3.6262255 4.2023597 -4.6664929
v 3.6288362 4.1727505 -4.6150093
v 3.6340575 4.1135321 -4.6150093
v 3.5109334 4.0728369 -4.6664929
v 3.5083227 4.1024456 -4.7179766
v 3.5031013 4.1616640 -4.7179766
v 3.5004907 4.1912732 -4.6664929
v 3.5031013 4.1616640 -4.6150093
v 3.5083227 4.1024456 -4.6150093
v 3.4121768 3.1293182 -1.8047980
v 3.1216385 3.1307497 -1.8014984
v 3.1210315 3.0408530 -1.7560189
v 3.1223693 3.2475138 -1.8558167
v 3.4127040 3.2481503 -1.8587847
v 3.4116418 3.0434690 -1.9023750
v 3.4136431 3.4873989 -1.9023750
v 3.1236525 3.4873810 -1.9023750
v 3.4116418 3.0434690 -1.7560189
v 3.1210315 3.0408530 -1.9023750
v 3.1230032 3.3632796 -1.8873675
v 3.4131427 3.3628690 -1.8870142
v 3.3927310 4.6773810 -4.2592726
v 3.3638358 4.6764998 -4.1887460
v 3.3104186 4.6756115 -4.1346598
v 3.2402556 4.6748457 -4.1048870
v 3.2439663 4.4217529 -4.1060481
v 3.3141296 4.4225187 -4.1358204
v 3.3675466 4.4234071 -4.1899066
v 3.3964419 4.4242883 -4.2604332
v 3.2514544 4.4676456 -4.7549744
v 3.2522295 4.4625297 -4.2276335
v 3.2586741 4.1010947 -4.2054701
v 3.2578990 4.0517516 -4.7305226
v 2.9551377 4.4793682 -2.8924246
v 2.9919386 4.5119157 -2.8927128
v 2.9921775 4.5772176 -2.8924351
v 2.9553740 4.6063275 -2.8918655
v 2.9463084 4.6099420 -4.1019268
v 2.9831119 4.5808315 -4.1024961
v 2.9828730 4.5155301 -4.1027741
v 2.9460721 4.4829826 -4.1024857
v 2.9364011 4.5093994 -3.3964458
v 2.9569027 4.5444078 -3.3965590
v 2.9356122 4.5725994 -3.3962252
v 2.9356122 4.5725994 -2.8918238
v 2.9569027 4.5444078 -2.8921578
v 2.9364011 4.5093994 -2.8920445
v 3.4121768 3.1293182 -1.8047980
v 3.1216385 3.1307497 -1.8014984
v 3.1210315 3.0408530 -1.7560189
v 3.1223693 3.2475138 -1.8558167
v 3.4127040 3.2481503 -1.8587847
v 3.4136431 3.4873989 -1.9023750
v 3.1236525 3.4873810 -1.9023750
v 3.4116418 3.0434690 -1.7560189
v 3.1230032 3.3632796 -1.8873675
v 3.4131427 3.3628690 -1.8870142
v 3.2685161 4.4274049 -4.8760147
v 3.2648053 4.6804976 -4.8748541
v 3.9873519 2.7114923 -3.8589747
v 3.9873519 4.3004651 -3.8589747
v 3.6132517 3.8042998 -1.9023750
v 3.6523724 3.8080077 -1.9169971
v 3.7053385 3.8196788 -1.9630208
v 3.7252779 3.8289845 -1.9997177
v 3.7252779 2.7114923 -1.9997177
v 3.7053385 2.7114923 -1.9630208
v 3.6523724 2.7114923 -1.9169971
v 3.6132517 2.7114923 -1.9023750
v 3.4114299 2.7114923 -1.9023750
v 3.2489083 4.6413050 -4.7541780
v 3.2496834 4.6361890 -4.2268367
v 3.3094156 4.6527452 -4.1766958
v 3.2402556 4.6748457 -4.1048870
v 3.3104186 4.6756115 -4.1346598
v 3.2958918 4.6635752 -4.1421738
v 3.3638358 4.6764998 -4.1887460
v 3.3927310 4.6773810 -4.2592726
v 3.3570673 4.6665964 -4.2003388
v 3.3256214 4.6638761 -4.8190956
v 3.3920126 4.6821232 -4.7480755
v 3.3649278 4.6821480 -4.8131733
v 3.3587928 4.6731858 -4.8026638
v 3.3299866 4.6817012 -4.8479967
v 3.2648053 4.6804976 -4.8748541
v 3.3167415 4.6707249 -4.8409739
v 3.7833381 3.5379391 -2.4116209
v 3.8683176 3.5924599 -3.0451493
v 3.8713510 3.1966794 -3.0360179
v 3.7899957 3.1818919 -2.4086919
v 3.4116418 3.0434690 -1.9023750
v 3.4136431 3.4873989 -1.9023750
v 3.1236525 3.4873810 -1.9023750
v 3.1210315 3.0408530 -1.9023750
v 3.4224970 2.4226151 -2.1601334
v 3.4224970 2.3242116 -2.1958294
v 3.4114299 2.7114923 -1.9023750
v 3.4224970 2.2391863 -2.1958294
v 3.4224970 2.6128418 -2.0437250
v 3.6457617 3.9840503 -2.3941493
v 3.6262689 4.0130115 -2.3880072
v 3.6576180 4.0025945 -2.4688346
v 3.6385560 4.0321865 -2.4651284
v 3.7047191 4.0198002 -2.3928654
v 3.6852264 4.0487614 -2.3897126
v 3.7165756 4.0383444 -2.4312031
v 3.6975133 4.0679364 -2.4293008
v 3.6702690 4.0223818 -2.5485249
v 3.6512361 4.0519753 -2.5447173
v 3.6830616 4.0423903 -2.6291075
v 3.6642289 4.0722518 -2.6262703
v 3.7264588 4.0562291 -2.5505514
v 3.7074258 4.0858226 -2.5486536
v 3.7392514 4.0762377 -2.5907223
v 3.7204189 4.1060996 -2.5893080
v 2.2439249 3.1934550 -1.8430146
v 2.2439249 3.4920831 -1.8430146
v 2.2616305 3.1934550 -1.8123474
v 2.2616305 3.4920831 -1.8123474
v 2.2970421 3.1934550 -1.8123474
v 2.2970421 3.4920831 -1.8123474
v 2.3147478 3.1934550 -1.8430146
v 2.3147478 3.4920831 -1.8430146
v 2.2970421 3.1934550 -1.8736819
v 2.2970421 3.4920831 -1.8736819
v 2.2616305 3.1934550 -1.8736819
v 2.2616305 3.4920831 -1.8736819
v 2.2439249 2.9893742 -1.8430146
v 2.2616305 2.9893742 -1.8123474
v 2.2970421 2.9893742 -1.8123474
v 2.3147478 2.9893742 -1.8430146
v 2.2970421 2.9893742 -1.8736819
v 2.2616305 2.9893742 -1.8736819
v 2.2743244 2.9138799 -1.8430146
v 2.2889147 2.9239106 -1.8123474
v 2.3180952 2.9439723 -1.8123474
v 2.3326855 2.9540031 -1.8430146
v 2.3180952 2.9439723 -1.8736819
v 2.2889147 2.9239106 -1.8736819
v 2.3422894 2.8659754 -1.8430146
v 2.3467941 2.8830984 -1.8123474
v 2.3558040 2.9173446 -1.8123474
v 2.3603086 2.9344676 -1.8430146
v 2.3558040 2.9173446 -1.8736819
v 2.3467941 2.8830984 -1.8736819
v 2.5395458 2.8579273 -1.8430146
v 2.4067256 2.8755815 -1.8123474
v 2.4040251 2.9108899 -1.8123474
v 2.4026749 2.9285440 -1.8430146
v 2.4040251 2.9108899 -1.8736819
v 2.4067256 2.8755815 -1.8736819
v 2.9009106 2.8579273 -1.8430146
v 2.9009106 2.8755815 -1.8123474
v 2.9009106 2.9108899 -1.8123474
v 2.9009106 2.9285440 -1.8430146
v 2.9009106 2.9108899 -1.8736819
v 2.9009106 2.8755815 -1.8736819
v 2.2439249 3.7833493 -1.8430146
v 2.2616305 3.7833493 -1.8123474
v 2.2970421 3.7833493 -1.8123474
v 2.3147478 3.7833493 -1.8430146
v 2.2970421 3.7833493 -1.8736819
v 2.2616305 3.7833493 -1.8736819
v 2.2439249 3.8272455 -1.8581026
v 2.2616305 3.8474057 -1.8349930
v 2.2970421 3.8474057 -1.8349930
v 2.3147478 3.8272455 -1.8581026
v 2.2970421 3.8070855 -1.8812122
v 2.2616305 3.8070855 -1.8812122
v 2.2380762 3.8480158 -1.8862674
v 2.2573190 3.8767011 -1.8784679
v 2.2922523 3.8767011 -1.8842676
v 2.3079426 3.8480158 -1.8978666
v 2.2886996 3.8193305 -1.9056661
v 2.2537665 3.8193305 -1.8998666
v 2.2060966 3.9057882 -2.0789578
v 2.2253394 3.9353144 -2.0755088
v 2.2602727 3.9344523 -2.0812440
v 2.2759633 3.9040642 -2.0904281
v 2.2567203 3.8745382 -2.0938771
v 2.2217870 3.8754001 -2.0881419
v 2.1074800 4.0600324 -2.7001600
v 2.1267228 4.0892143 -2.6944935
v 2.1616564 4.0887871 -2.7002773
v 2.1773467 4.0591788 -2.7117276
v 2.1581037 4.0299969 -2.7173941
v 2.1231704 4.0304241 -2.7116103
v 2.0209947 4.2047982 -3.2944677
v 2.0402377 4.2339802 -3.2888012
v 2.0751710 4.2335529 -3.2945852
v 2.0908613 4.2039442 -3.3060353
v 2.0716183 4.1747627 -3.3117018
v 2.0366850 4.1751895 -3.3059180
v 2.0207934 4.2510309 -3.4553454
v 2.0384765 4.2802124 -3.4458740
v 2.0738552 4.2797852 -3.4444122
v 2.0915508 4.2501769 -3.4524219
v 2.0738678 4.2209949 -3.4618936
v 2.0384893 4.2214217 -3.4633553
v 2.0801802 4.2760839 -3.5551746
v 2.0893593 4.3052654 -3.5373380
v 2.1176529 4.3048382 -3.5160484
v 2.1367676 4.2752299 -3.5125949
v 2.1275887 4.2460480 -3.5304315
v 2.0992949 4.2464747 -3.5517216
v 2.2036138 4.3031478 -3.6552942
v 2.2099056 4.3255181 -3.6285744
v 2.2214415 4.3131433 -3.5974653
v 2.2266850 4.2783985 -3.5930762
v 2.2203932 4.2560282 -3.6197963
v 2.2088575 4.2684031 -3.6509054
v 2.3138018 4.3065314 -3.6739948
v 2.3139358 4.3289018 -3.6465445
v 2.3181946 4.3165269 -3.6136398
v 2.3223193 4.2817822 -3.6081858
v 2.3221855 4.2594118 -3.6356363
v 2.3179269 4.2717867 -3.6685410
v 2.9009106 4.3105421 -3.6781654
v 2.9009106 4.3329120 -3.6507151
v 2.9009106 4.3205371 -3.6178105
v 2.9009106 4.2857924 -3.6123564
v 2.9009106 4.2634225 -3.6398070
v 2.9009106 4.2757969 -3.6727116
v 1.8144692 2.7114923 -3.8589747
v 1.8144692 4.3004651 -3.8589747
v 2.0017135 2.7114923 -3.8589747
v 2.9009106 3.8042998 -1.9023750
v 2.0017135 4.1348252 -3.8589747
v 2.9009106 4.3004651 -3.8589747
v 2.9009106 4.2584033 -3.6931059
v 2.9009106 3.8284805 -1.9977299
v 2.9009106 2.7114923 -3.8589747
v 2.9009106 4.2022715 -3.8589747
v 2.0017135 4.0036845 -5.1163454
v 2.0017135 2.7114923 -5.1163454
v 2.9009106 4.2327676 -3.5920124
v 2.9009106 3.8425267 -2.0531201
v 2.9009106 2.7114923 -5.1163454
v 2.9009106 4.1348252 -3.8589747
v 2.9009106 4.0036845 -5.1163454
v 2.9009106 3.9910038 -2.0154681
v 2.9009106 4.3812447 -3.5543609
v 2.0910845 3.8229828 -1.9760505
v 2.1500292 3.8158448 -1.9479020
v 2.3793242 2.4226151 -2.1601334
v 2.1885695 3.8042998 -1.9023750
v 2.1494489 3.8080077 -1.9169971
v 2.1589885 3.8094785 -1.9227967
v 2.0964828 3.8196788 -1.9630208
v 2.0765433 3.8289845 -1.9997177
v 2.0910258 3.8229849 -1.9760587
v 2.0765433 2.7114923 -1.9997177
v 2.0964828 2.7114923 -1.9630208
v 2.9009106 2.7114923 -3.6020007
v 2.1494489 2.7114923 -1.9169971
v 2.1885695 2.7114923 -1.9023750
v 2.9009106 2.7114923 -2.1999736
v 2.2496006 4.2329621 -3.5927796
v 2.1249304 4.1986837 -3.4576056
v 2.1075616 4.1984653 -3.4567440
v 2.0062561 4.2565489 -3.6857939
v 2.2483861 4.2375364 -3.6108179
v 2.4292085 3.8394308 -2.0409117
v 2.1788502 3.8214123 -1.9698567
v 2.1249304 4.3471608 -3.4199538
v 2.2496006 4.3814392 -3.5551281
v 2.2678142 3.8893518 -2.2377722
v 2.3109486 3.8688412 -2.1568894
v 2.2541051 3.8656776 -2.1444142
v 2.3923965 3.8509374 -2.0862870
v 2.4801209 3.8426828 -2.0537357
v 2.4292114 3.8394454 -2.0409689
v 2.4801209 3.9911599 -2.0160840
v 2.3923965 3.9994144 -2.0486350
v 2.3109488 4.0173182 -2.1192374
v 2.2678142 4.0378289 -2.2001204
v 2.3793242 2.3242116 -2.1958294
v 2.3903913 2.7114923 -1.9023750
v 2.3819451 2.2391863 -3.6017859
v 2.3793242 2.2391863 -2.1958294
v 2.9009106 2.2391863 -2.1999736
v 2.9009106 2.2391863 -3.6020007
v 2.3793242 2.7114923 -2.1958294
v 2.3819451 2.7114923 -3.6017859
v 2.3793242 2.6128418 -2.0437250
v 2.9009106 2.7114923 -4.1160960
v 2.9009106 2.7114923 -4.8257499
v 2.4643979 2.4477394 -4.7561588
v 2.4643734 2.4477394 -4.1831031
v 2.9009106 2.4477394 -4.7590861
v 2.9009106 2.4477394 -4.1824923
v 2.4205971 2.7114923 -4.1168475
v 2.4206276 2.7114923 -4.8221474
v 2.9009106 4.0991087 -4.2014232
v 2.9009106 4.0440841 -4.7289972
v 2.5503669 4.4676456 -4.7549744
v 2.5495918 4.4625297 -4.2276335
v 2.9009106 4.4598613 -4.7542486
v 2.9009106 4.4601364 -4.2238131
v 2.5431471 4.1010947 -4.2054701
v 2.5439222 4.0517516 -4.7305226
v 2.2678142 4.0378289 -2.2001204
v 2.3109488 4.0173182 -2.1192374
v 2.9009106 4.6335211 -4.7534523
v 2.9009106 4.6337957 -4.2230163
v 2.9009106 4.4189181 -4.8752232
v 2.9009106 4.4193192 -4.1021624
v 2.9009106 4.6720109 -4.8740625
v 2.9009106 4.6724119 -4.1010017
v 2.4890876 4.4458899 -4.1774063
v 2.3923965 3.9994144 -2.0486350
v 2.4053793 4.4242883 -4.2604332
v 2.4342747 4.4234071 -4.1899066
v 2.4412122 4.4333158 -4.2013068
v 2.4876916 4.4225187 -4.1358204
v 2.5578549 4.4217529 -4.1060481
v 2.5024016 4.4343667 -4.1431527
v 2.4801209 3.9911599 -2.0160840
v 2.4801209 3.8426828 -2.0537357
v 2.3923965 3.8509374 -2.0862870
v 2.3109486 3.8688412 -2.1568894
v 2.2678142 3.8893518 -2.2377722
v 2.2496006 4.3814392 -3.5551281
v 2.4729829 4.4475679 -4.8201261
v 2.1249304 4.3471608 -3.4199538
v 2.5333052 4.4274049 -4.8760147
v 2.4681239 4.4286084 -4.8491573
v 2.4817698 4.4399166 -4.8423090
v 2.4331827 4.4290552 -4.8143339
v 2.4060979 4.4290304 -4.7492366
v 2.4394479 4.4384513 -4.8037024
v 2.1249304 4.1986837 -3.4576056
v 2.2496006 4.2329621 -3.5927796
v 2.9009106 4.3812447 -3.5543609
v 2.9009106 3.9910038 -2.0154681
v 2.9009106 3.8425267 -2.0531201
v 2.9009106 4.2327676 -3.5920124
v 2.9009106 4.4831591 -4.1018910
v 2.9009106 4.6099091 -4.1012993
v 2.9009106 4.6720109 -4.8740625
v 2.9009106 4.4189181 -4.8752232
v 2.8557491 4.4829826 -4.1024857
v 2.8189483 4.5155301 -4.1027741
v 2.8187094 4.5808315 -4.1024961
v 2.8555129 4.6099420 -4.1019268
v 2.9009106 4.6099091 -4.1012993
v 2.9009106 4.4831591 -4.1018910
v 2.5370159 4.6804976 -4.8748541
v 2.4718347 4.6817012 -4.8479967
v 2.4368935 4.6821480 -4.8131733
v 2.4098086 4.6821232 -4.7480755
v 2.4060979 4.4290304 -4.7492366
v 2.4331827 4.4290552 -4.8143339
v 2.4681239 4.4286084 -4.8491573
v 2.5333052 4.4274049 -4.8760147
v 1.7391536 3.2005429 -3.0018694
v 2.0184832 3.5379391 -2.4116209
v 1.9335036 3.5924599 -3.0451493
v 1.9304702 3.1966794 -3.0360179
v 1.7421869 3.5963235 -3.0110009
v 2.0118256 3.1818919 -2.4086919
v 1.9760683 3.4858189 -4.2186956
v 1.9760683 3.3669229 -4.2186956
v 1.9463441 3.4858189 -4.2701793
v 1.9463441 3.3669229 -4.2701793
v 1.8868961 3.4858189 -4.2701793
v 1.8868961 3.3669229 -4.2701793
v 1.8571721 3.4858189 -4.2186956
v 1.8571721 3.3669229 -4.2186956
v 1.8868961 3.4858189 -4.1672125
v 1.8868961 3.3669229 -4.1672125
v 1.9463441 3.4858189 -4.1672125
v 1.9463441 3.3669229 -4.1672125
v 1.9760683 3.6074374 -4.2186956
v 1.9463441 3.6074374 -4.2701793
v 1.8868961 3.6074374 -4.2701793
v 1.8571721 3.6074374 -4.2186956
v 1.8868961 3.6074374 -4.1672125
v 1.9463441 3.6074374 -4.1672125
v 1.9760683 3.7277248 -4.2186956
v 1.9463441 3.7277248 -4.2701793
v 1.8868961 3.7277248 -4.2701793
v 1.8571721 3.7277248 -4.2186956
v 1.8868961 3.7277248 -4.1672125
v 1.9463441 3.7277248 -4.1672125
v 1.9760683 3.8431857 -4.2186956
v 1.9463441 3.8431857 -4.2701793
v 1.8868961 3.8431857 -4.2701793
v 1.8571721 3.8431857 -4.2186956
v 1.8868961 3.8431857 -4.1672125
v 1.9463441 3.8431857 -4.1672125
v 1.9760683 3.9494188 -4.2186956
v 1.9463441 3.9494188 -4.2701793
v 1.8868961 3.9494188 -4.2701793
v 1.8571721 3.9494188 -4.2186956
v 1.8868961 3.9494188 -4.1672125
v 1.9463441 3.9494188 -4.1672125
v 1.9760683 4.0456052 -4.2186956
v 1.9463441 4.0456052 -4.2701793
v 1.8868961 4.0456052 -4.2701793
v 1.8571721 4.0456052 -4.2186956
v 1.8868961 4.0456052 -4.1672125
v 1.9463441 4.0456052 -4.1672125
v 1.9864609 4.0804548 -4.2186956
v 1.9644223 4.1004000 -4.2701793
v 1.9203452 4.1402907 -4.2701793
v 1.8983067 4.1602364 -4.2186956
v 1.9203452 4.1402907 -4.1672125
v 1.9644223 4.1004000 -4.1672125
v 2.0285785 4.1147847 -4.2186956
v 2.0233247 4.1440406 -4.2701793
v 2.0128174 4.2025528 -4.2701793
v 2.0075636 4.2318087 -4.2186956
v 2.0128174 4.2025528 -4.1672125
v 2.0233247 4.1440406 -4.1672125
v 2.1651530 4.1224298 -4.2186956
v 2.1677637 4.1520391 -4.2701793
v 2.1729851 4.2112570 -4.2701793
v 2.1755958 4.2408662 -4.2186956
v 2.1729851 4.2112570 -4.1672125
v 2.1677637 4.1520391 -4.1672125
v 2.2908878 4.1113434 -4.2186956
v 2.2934985 4.1409526 -4.2701793
v 2.2987199 4.2001705 -4.2701793
v 2.3013306 4.2297797 -4.2186956
v 2.2987199 4.2001705 -4.1672125
v 2.2934985 4.1409526 -4.1672125
v 1.9760683 3.4473124 -4.6664929
v 1.9760683 3.3284161 -4.6664929
v 1.9463441 3.4473124 -4.7179766
v 1.9463441 3.3284161 -4.7179766
v 1.8868961 3.4473124 -4.7179766
v 1.8868961 3.3284161 -4.7179766
v 1.8571721 3.4473124 -4.6664929
v 1.8571721 3.3284161 -4.6664929
v 1.8868961 3.4473124 -4.6150093
v 1.8868961 3.3284161 -4.6150093
v 1.9463441 3.4473124 -4.6150093
v 1.9463441 3.3284161 -4.6150093
v 1.9760683 3.5689306 -4.6664929
v 1.9463441 3.5689306 -4.7179766
v 1.8868961 3.5689306 -4.7179766
v 1.8571721 3.5689306 -4.6664929
v 1.8868961 3.5689306 -4.6150093
v 1.9463441 3.5689306 -4.6150093
v 1.9760683 3.6892183 -4.6664929
v 1.9463441 3.6892183 -4.7179766
v 1.8868961 3.6892183 -4.7179766
v 1.8571721 3.6892183 -4.6664929
v 1.8868961 3.6892183 -4.6150093
v 1.9463441 3.6892183 -4.6150093
v 1.9760683 3.8046789 -4.6664929
v 1.9463441 3.8046789 -4.7179766
v 1.8868961 3.8046789 -4.7179766
v 1.8571721 3.8046789 -4.6664929
v 1.8868961 3.8046789 -4.6150093
v 1.9463441 3.8046789 -4.6150093
v 1.9760683 3.9109123 -4.6664929
v 1.9463441 3.9109123 -4.7179766
v 1.8868961 3.9109123 -4.7179766
v 1.8571721 3.9109123 -4.6664929
v 1.8868961 3.9109123 -4.6150093
v 1.9463441 3.9109123 -4.6150093
v 1.9760683 4.0070987 -4.6664929
v 1.9463441 4.0070987 -4.7179766
v 1.8868961 4.0070987 -4.7179766
v 1.8571721 4.0070987 -4.6664929
v 1.8868961 4.0070987 -4.6150093
v 1.9463441 4.0070987 -4.6150093
v 1.9864609 4.0419478 -4.6664929
v 1.9644223 4.0618935 -4.7179766
v 1.9203452 4.1017842 -4.7179766
v 1.8983067 4.1217299 -4.6664929
v 1.9203452 4.1017842 -4.6150093
v 1.9644223 4.0618935 -4.6150093
v 2.0285785 4.0762782 -4.6664929
v 2.0233247 4.1055341 -4.7179766
v 2.0128174 4.1640463 -4.7179766
v 2.0075636 4.1933022 -4.6664929
v 2.0128174 4.1640463 -4.6150093
v 2.0233247 4.1055341 -4.6150093
v 2.1651530 4.0839233 -4.6664929
v 2.1677637 4.1135321 -4.7179766
v 2.1729851 4.1727505 -4.7179766
v 2.1755958 4.2023597 -4.6664929
v 2.1729851 4.1727505 -4.6150093
v 2.1677637 4.1135321 -4.6150093
v 2.2908878 4.0728369 -4.6664929
v 2.2934985 4.1024456 -4.7179766
v 2.2987199 4.1616640 -4.7179766
v 2.3013306 4.1912732 -4.6664929
v 2.2987199 4.1616640 -4.6150093
v 2.2934985 4.1024456 -4.6150093
v 2.3896444 3.1293182 -1.8047980
v 2.6801827 3.1307497 -1.8014984
v 2.6807897 3.0408530 -1.7560189
v 2.6794519 3.2475138 -1.8558167
v 2.3891172 3.2481503 -1.8587847
v 2.3901794 3.0434690 -1.9023750
v 2.3881781 3.4873989 -1.9023750
v 2.6781688 3.4873810 -1.9023750
v 2.3901794 3.0434690 -1.7560189
v 2.6807897 3.0408530 -1.9023750
v 2.6788180 3.3632796 -1.8873675
v 2.3886786 3.3628690 -1.8870142
v 2.4090903 4.6773810 -4.2592726
v 2.4379854 4.6764998 -4.1887460
v 2.4914026 4.6756115 -4.1346598
v 2.5615656 4.6748457 -4.1048870
v 2.5578549 4.4217529 -4.1060481
v 2.4876916 4.4225187 -4.1358204
v 2.4342747 4.4234071 -4.1899066
v 2.4053793 4.4242883 -4.2604332
v 2.9009106 4.6724119 -4.1010017
v 2.9009106 4.4193192 -4.1021624
v 2.9009106 4.0991087 -4.2014232
v 2.9009106 4.0440841 -4.7289972
v 2.5503669 4.4676456 -4.7549744
v 2.5495918 4.4625297 -4.2276335
v 2.9009106 4.4598613 -4.7542486
v 2.9009106 4.4601364 -4.2238131
v 2.5431471 4.1010947 -4.2054701
v 2.5439222 4.0517516 -4.7305226
v 2.9009106 4.4831591 -4.1018910
v 2.9009106 4.6099091 -4.1012993
v 2.8466835 4.4793682 -2.8924246
v 2.8098826 4.5119157 -2.8927128
v 2.8096437 4.5772176 -2.8924351
v 2.8464472 4.6063275 -2.8918655
v 2.9009106 4.6062946 -2.8912380
v 2.9009106 4.4795446 -2.8918300
v 2.8555129 4.6099420 -4.1019268
v 2.8187094 4.5808315 -4.1024961
v 2.8189483 4.5155301 -4.1027741
v 2.8557491 4.4829826 -4.1024857
v 2.9009106 4.5722151 -2.8914001
v 2.9009106 4.5094037 -2.8916905
v 2.8654201 4.5093994 -3.3964458
v 2.8449185 4.5444078 -3.3965590
v 2.8662090 4.5725994 -3.3962252
v 2.9009106 4.5094037 -3.3960917
v 2.9009106 4.5722151 -3.3958015
v 2.8662090 4.5725994 -2.8918238
v 2.8449185 4.5444078 -2.8921578
v 2.8654201 4.5093994 -2.8920445
v 2.3896444 3.1293182 -1.8047980
v 2.6801827 3.1307497 -1.8014984
v 2.6807897 3.0408530 -1.7560189
v 2.6794519 3.2475138 -1.8558167
v 2.3891172 3.2481503 -1.8587847
v 2.3881781 3.4873989 -1.9023750
v 2.6781688 3.4873810 -1.9023750
v 2.3901794 3.0434690 -1.7560189
v 2.6788180 3.3632796 -1.8873675
v 2.3886786 3.3628690 -1.8870142
v 2.5333052 4.4274049 -4.8760147
v 2.5370159 4.6804976 -4.8748541
v 1.8144692 2.7114923 -3.8589747
v 1.8144692 4.3004651 -3.8589747
v 2.9009106 3.8042998 -1.9023750
v 2.9009106 2.7114923 -1.9023750
v 2.1885695 3.8042998 -1.9023750
v 2.1494489 3.8080077 -1.9169971
v 2.0964828 3.8196788 -1.9630208
v 2.0765433 3.8289845 -1.9997177
v 2.0765433 2.7114923 -1.9997177
v 2.0964828 2.7114923 -1.9630208
v 2.1494489 2.7114923 -1.9169971
v 2.1885695 2.7114923 -1.9023750
v 2.3903913 2.7114923 -1.9023750
v 2.5529130 4.6413050 -4.7541780
v 2.5521379 4.6361890 -4.2268367
v 2.9009106 4.6335211 -4.7534523
v 2.9009106 4.6337957 -4.2230163
v 2.9009106 4.6720109 -4.8740625
v 2.9009106 4.6724119 -4.1010017
v 2.4924057 4.6527452 -4.1766958
v 2.5615656 4.6748457 -4.1048870
v 2.4914026 4.6756115 -4.1346598
v 2.5059295 4.6635752 -4.1421738
v 2.4379854 4.6764998 -4.1887460
v 2.4090903 4.6773810 -4.2592726
v 2.4447539 4.6665964 -4.2003388
v 2.4761999 4.6638761 -4.8190956
v 2.4098086 4.6821232 -4.7480755
v 2.4368935 4.6821480 -4.8131733
v 2.4430285 4.6731858 -4.8026638
v 2.4718347 4.6817012 -4.8479967
v 2.5370159 4.6804976 -4.8748541
v 2.4850798 4.6707249 -4.8409739
v 2.0184832 3.5379391 -2.4116209
v 1.9335036 3.5924599 -3.0451493
v 1.9304702 3.1966794 -3.0360179
v 2.0118256 3.1818919 -2.4086919
v 2.3901794 3.0434690 -1.9023750
v 2.3881781 3.4873989 -1.9023750
v 2.6781688 3.4873810 -1.9023750
v 2.6807897 3.0408530 -1.9023750
v 2.9009106 2.7114923 -1.9023750
v 2.9009106 2.3242116 -2.1999736
v 2.9009106 2.4226151 -2.1642776
v 2.3793242 2.4226151 -2.1601334
v 2.3793242 2.3242116 -2.1958294
v 2.3903913 2.7114923 -1.9023750
v 2.3793242 2.2391863 -2.1958294
v 2.9009106 2.2391863 -2.1999736
v 2.9009106 2.6128418 -2.0478694
v 2.3793242 2.6128418 -2.0437250
v 2.1560595 3.9840503 -2.3941493
v 2.1755524 4.0130115 -2.3880072
v 2.1442032 4.0025945 -2.4688346
v 2.1632652 4.0321865 -2.4651284
v 2.0971022 4.0198002 -2.3928654
v 2.1165948 4.0487614 -2.3897126
v 2.0852456 4.0383444 -2.4312031
v 2.1043079 4.0679364 -2.4293008
v 2.1315522 4.0223818 -2.5485249
v 2.1505852 4.0519753 -2.5447173
v 2.1187596 4.0423903 -2.6291075
v 2.1375923 4.0722518 -2.6262703
v 2.0753624 4.0562291 -2.5505514
v 2.0943954 4.0858226 -2.5486536
v 2.0625699 4.0762377 -2.5907223
v 2.0814023 4.1060996 -2.5893080
f 2 3 1
f 4 5 3
f 6 7 5
f 8 9 7
f 12 37 2
f 12 1 11
f 10 11 9
f 1 18 11
f 18 19 24
f 11 17 9
f 9 16 7
f 7 15 5
f 5 14 3
f 3 13 1
f 19 30 24
f 17 24 23
f 16 23 22
f 16 21 15
f 15 20 14
f 14 19 13
f 25 36 30
f 24 29 23
f 23 28 22
f 21 28 27
f 20 27 26
f 19 26 25
f 31 473 36
f 30 35 29
f 29 34 28
f 27 34 33
f 26 33 32
f 25 32 31
f 36 472 35
f 35 471 34
f 33 471 470
f 32 470 469
f 31 469 468
f 37 48 43
f 10 42 12
f 8 41 10
f 6 40 8
f 4 39 6
f 2 38 4
f 43 54 49
f 41 48 42
f 40 47 41
f 39 46 40
f 38 45 39
f 38 43 44
f 49 60 55
f 48 53 54
f 47 52 53
f 46 51 52
f 44 51 45
f 43 50 44
f 418 416 66
f 54 59 60
f 53 58 59
f 52 57 58
f 50 57 51
f 49 56 50
f 66 67 61
f 59 66 60
f 59 64 65
f 58 63 64
f 425 427 63
f 55 417 56
f 72 73 67
f 65 72 66
f 65 70 71
f 64 69 70
f 63 68 69
f 61 68 62
f 78 79 73
f 71 78 72
f 70 77 71
f 70 75 76
f 69 74 75
f 68 73 74
f 84 85 79
f 77 84 78
f 76 83 77
f 76 81 82
f 75 80 81
f 74 79 80
f 90 91 85
f 84 89 90
f 83 88 89
f 82 87 88
f 80 87 81
f 79 86 80
f 96 534 91
f 89 96 90
f 89 94 95
f 88 93 94
f 87 92 93
f 85 92 86
f 95 539 96
f 94 538 95
f 94 536 537
f 93 535 536
f 92 534 535
f 552 120 546
f 98 119 118
f 102 556 101
f 98 97 99
f 98 99 100
f 545 100 549
f 549 100 555
f 149 148 100
f 99 101 100
f 603 142 606
f 121 130 129
f 122 121 106
f 558 557 134
f 122 128 121
f 140 548 97
f 104 109 103
f 106 107 108
f 109 110 111
f 140 598 570
f 597 137 138
f 118 119 120
f 545 120 98
f 125 126 127
f 128 129 130
f 127 122 103
f 140 105 135
f 142 607 606
f 102 99 145
f 145 143 142
f 602 143 144
f 149 147 148
f 157 159 152
f 154 156 147
f 159 158 147
f 171 173 166
f 154 155 156
f 157 158 159
f 161 153 160
f 150 163 164
f 168 169 170
f 171 172 173
f 164 167 150
f 165 174 175
f 168 170 146
f 374 656 375
f 341 178 177
f 183 185 182
f 180 186 187
f 184 338 345
f 188 193 191
f 151 162 163
f 165 653 650
f 189 192 190
f 190 188 191
f 189 188 192
f 196 195 194
f 198 197 196
f 200 199 198
f 202 201 200
f 205 195 199
f 194 205 204
f 204 203 202
f 211 194 204
f 217 206 211
f 210 204 202
f 209 202 200
f 208 200 198
f 206 196 194
f 223 212 217
f 216 211 210
f 215 210 209
f 214 209 208
f 213 208 207
f 212 207 206
f 229 218 223
f 222 217 216
f 221 216 215
f 220 215 214
f 277 196 207
f 218 213 212
f 235 224 229
f 228 223 222
f 227 222 221
f 226 221 220
f 225 220 219
f 224 219 218
f 235 236 230
f 234 229 228
f 233 228 227
f 232 227 226
f 289 213 219
f 230 225 224
f 241 242 236
f 234 241 235
f 233 240 234
f 238 233 232
f 237 232 231
f 236 231 230
f 247 248 242
f 240 247 241
f 239 246 240
f 244 239 238
f 301 225 231
f 242 237 236
f 259 248 253
f 246 253 247
f 245 252 246
f 250 245 244
f 249 244 243
f 248 243 242
f 259 257 255
f 258 253 252
f 251 258 252
f 250 257 251
f 249 256 250
f 248 255 249
f 262 261 260
f 264 263 262
f 266 265 264
f 268 267 266
f 271 261 265
f 260 271 270
f 270 269 268
f 277 260 270
f 283 272 277
f 275 268 266
f 274 266 264
f 273 264 262
f 272 262 260
f 289 278 283
f 282 277 276
f 281 276 275
f 280 275 274
f 279 274 273
f 278 273 272
f 295 284 289
f 287 282 281
f 286 281 280
f 285 280 279
f 284 279 278
f 301 290 295
f 294 289 288
f 293 288 287
f 292 287 286
f 291 286 285
f 290 285 284
f 301 302 296
f 313 237 243
f 299 294 293
f 298 293 292
f 297 292 291
f 296 291 290
f 307 308 302
f 300 307 301
f 299 306 300
f 304 299 298
f 303 298 297
f 302 297 296
f 313 314 308
f 238 312 244
f 305 312 306
f 310 305 304
f 309 304 303
f 308 303 302
f 325 314 319
f 312 319 313
f 311 318 312
f 316 311 310
f 315 310 309
f 314 309 308
f 322 321 325
f 324 319 318
f 323 318 317
f 316 323 317
f 315 322 316
f 314 321 315
f 268 277 270
f 276 207 208
f 270 198 196
f 282 289 283
f 198 276 208
f 288 219 220
f 283 214 213
f 294 301 295
f 214 288 220
f 300 231 232
f 295 226 225
f 306 313 307
f 312 243 244
f 226 300 232
f 237 306 238
f 160 652 161
f 331 328 335
f 331 337 330
f 335 329 336
f 840 350 847
f 832 347 837
f 349 836 346
f 181 185 186
f 342 340 341
f 345 339 344
f 339 343 344
f 363 857 853
f 357 351 350
f 355 351 356
f 354 352 355
f 841 353 354
f 362 358 363
f 362 363 351
f 362 360 359
f 361 858 360
f 358 359 360
f 365 371 366
f 370 373 372
f 367 364 365
f 372 368 367
f 379 383 380
f 378 409 408
f 378 384 379
f 382 380 383
f 889 388 890
f 390 892 890
f 389 393 391
f 395 389 388
f 396 400 398
f 390 392 391
f 393 395 394
f 402 396 387
f 397 399 398
f 400 402 401
f 381 403 404
f 382 406 381
f 410 876 877
f 923 411 917
f 917 412 916
f 916 414 922
f 413 923 915
f 419 422 418
f 419 424 425
f 421 422 423
f 419 421 423
f 418 420 416
f 416 421 417
f 427 430 426
f 427 61 62
f 429 430 431
f 427 429 431
f 426 428 424
f 424 429 425
f 434 433 432
f 436 435 434
f 438 437 436
f 440 439 438
f 474 443 433
f 432 443 442
f 442 441 440
f 449 432 442
f 449 450 444
f 448 442 440
f 447 440 438
f 446 438 436
f 445 436 434
f 444 434 432
f 461 450 455
f 448 455 449
f 447 454 448
f 452 447 446
f 451 446 445
f 450 445 444
f 467 456 461
f 460 455 454
f 459 454 453
f 452 459 453
f 451 458 452
f 450 457 451
f 473 462 467
f 466 461 460
f 465 460 459
f 458 465 459
f 457 464 458
f 456 463 457
f 472 467 466
f 471 466 465
f 464 471 465
f 463 470 464
f 462 469 463
f 474 485 479
f 479 441 443
f 478 439 441
f 477 437 439
f 476 435 437
f 475 433 435
f 480 491 485
f 485 478 479
f 484 477 478
f 483 476 477
f 482 475 476
f 475 480 474
f 486 497 491
f 485 490 484
f 484 489 483
f 483 488 482
f 488 481 482
f 487 480 481
f 933 935 503
f 491 496 490
f 490 495 489
f 489 494 488
f 494 487 488
f 493 486 487
f 504 503 498
f 503 496 497
f 496 501 495
f 495 500 494
f 500 936 934
f 926 492 493
f 510 509 504
f 509 502 503
f 502 507 501
f 501 506 500
f 500 505 499
f 505 498 499
f 516 515 510
f 515 508 509
f 514 507 508
f 507 512 506
f 506 511 505
f 505 510 504
f 522 521 516
f 521 514 515
f 520 513 514
f 513 518 512
f 512 517 511
f 511 516 510
f 528 527 522
f 521 526 520
f 520 525 519
f 519 524 518
f 524 517 518
f 523 516 517
f 534 533 528
f 533 526 527
f 526 531 525
f 525 530 524
f 524 529 523
f 529 522 523
f 539 532 533
f 538 531 532
f 531 536 530
f 530 535 529
f 529 534 528
f 597 570 573
f 552 578 574
f 541 566 576
f 556 551 550
f 541 542 540
f 541 544 542
f 545 544 541
f 549 555 544
f 544 617 550
f 542 550 551
f 603 604 609
f 587 588 579
f 564 562 580
f 592 591 590
f 579 588 586
f 546 555 549
f 546 549 545
f 599 572 568
f 565 563 560
f 562 564 563
f 565 567 566
f 598 600 570
f 597 595 598
f 577 576 575
f 545 541 578
f 583 585 584
f 586 588 587
f 576 559 583
f 561 601 600
f 607 604 606
f 609 608 542
f 609 605 608
f 605 602 608
f 620 615 614
f 613 617 616
f 614 624 620
f 654 623 615
f 626 631 629
f 647 640 612
f 633 626 613
f 640 645 643
f 628 630 629
f 631 633 632
f 627 635 634
f 637 618 638
f 642 644 643
f 645 647 646
f 638 641 648
f 648 639 649
f 642 622 612
f 872 656 657
f 826 658 659
f 667 669 668
f 670 664 671
f 822 668 829
f 672 675 677
f 636 619 637
f 650 649 639
f 673 674 676
f 672 674 675
f 672 673 676
f 679 680 678
f 681 682 680
f 683 684 682
f 685 686 684
f 687 685 683
f 689 678 688
f 687 688 686
f 678 695 688
f 690 701 695
f 688 694 686
f 686 693 684
f 684 692 682
f 680 690 678
f 696 707 701
f 695 700 694
f 694 699 693
f 693 698 692
f 692 697 691
f 691 696 690
f 702 713 707
f 701 706 700
f 700 705 699
f 699 704 698
f 680 761 691
f 697 702 696
f 708 719 713
f 707 712 706
f 706 711 705
f 705 710 704
f 704 709 703
f 703 708 702
f 719 720 725
f 713 718 712
f 712 717 711
f 711 716 710
f 697 773 703
f 709 714 708
f 725 726 731
f 718 725 724
f 717 724 723
f 717 722 716
f 716 721 715
f 715 720 714
f 731 732 737
f 724 731 730
f 723 730 729
f 723 728 722
f 709 785 715
f 721 726 720
f 732 743 737
f 730 737 736
f 729 736 735
f 729 734 728
f 728 733 727
f 727 732 726
f 739 741 743
f 737 742 736
f 735 742 741
f 735 740 734
f 733 740 739
f 732 739 738
f 745 746 744
f 747 748 746
f 749 750 748
f 751 752 750
f 753 751 749
f 755 744 754
f 753 754 752
f 744 761 754
f 756 767 761
f 752 759 750
f 750 758 748
f 748 757 746
f 746 756 744
f 762 773 767
f 761 766 760
f 760 765 759
f 759 764 758
f 758 763 757
f 757 762 756
f 768 779 773
f 766 771 765
f 765 770 764
f 764 769 763
f 763 768 762
f 774 785 779
f 773 778 772
f 772 777 771
f 771 776 770
f 770 775 769
f 769 774 768
f 785 786 791
f 721 797 727
f 778 783 777
f 777 782 776
f 776 781 775
f 775 780 774
f 791 792 797
f 784 791 790
f 783 790 789
f 783 788 782
f 782 787 781
f 781 786 780
f 797 798 803
f 722 796 790
f 789 796 795
f 789 794 788
f 788 793 787
f 787 792 786
f 798 809 803
f 796 803 802
f 795 802 801
f 795 800 794
f 794 799 793
f 793 798 792
f 808 809 805
f 803 808 802
f 802 807 801
f 800 807 806
f 799 806 805
f 798 805 804
f 761 752 754
f 691 760 692
f 682 754 680
f 773 766 767
f 682 760 752
f 703 772 704
f 698 767 697
f 785 778 779
f 698 772 766
f 715 784 716
f 710 779 709
f 797 790 791
f 727 796 728
f 710 784 778
f 721 790 791
f 635 651 634
f 812 815 819
f 814 821 815
f 819 813 811
f 840 842 851
f 832 835 838
f 839 836 833
f 669 665 670
f 824 826 825
f 829 823 822
f 827 823 828
f 857 861 853
f 851 843 850
f 843 849 850
f 844 848 849
f 845 841 848
f 854 860 861
f 860 859 844
f 860 856 859
f 859 858 852
f 856 854 857
f 869 863 864
f 871 868 870
f 862 865 863
f 866 870 865
f 879 883 884
f 913 876 878
f 878 884 885
f 882 880 881
f 888 889 890
f 894 896 888
f 897 899 893
f 901 903 887
f 904 906 900
f 894 895 896
f 897 898 899
f 905 891 887
f 901 902 903
f 904 905 906
f 908 881 875
f 909 874 882
f 876 913 914
f 918 923 917
f 919 917 916
f 921 916 922
f 920 923 924
f 931 928 927
f 928 933 927
f 930 931 929
f 928 930 926
f 929 927 925
f 930 925 926
f 939 936 935
f 936 498 935
f 938 939 937
f 936 938 934
f 937 935 933
f 938 933 934
f 2 4 3
f 4 6 5
f 6 8 7
f 8 10 9
f 12 42 37
f 12 2 1
f 10 12 11
f 1 13 18
f 18 13 19
f 11 18 17
f 9 17 16
f 7 16 15
f 5 15 14
f 3 14 13
f 19 25 30
f 17 18 24
f 16 17 23
f 16 22 21
f 15 21 20
f 14 20 19
f 25 31 36
f 24 30 29
f 23 29 28
f 21 22 28
f 20 21 27
f 19 20 26
f 31 468 473
f 30 36 35
f 29 35 34
f 27 28 34
f 26 27 33
f 25 26 32
f 36 473 472
f 35 472 471
f 33 34 471
f 32 33 470
f 31 32 469
f 37 42 48
f 10 41 42
f 8 40 41
f 6 39 40
f 4 38 39
f 2 37 38
f 43 48 54
f 41 47 48
f 40 46 47
f 39 45 46
f 38 44 45
f 38 37 43
f 49 54 60
f 48 47 53
f 47 46 52
f 46 45 51
f 44 50 51
f 43 49 50
f 416 55 60
f 60 66 416
f 66 61 426
f 424 66 426
f 424 418 66
f 54 53 59
f 53 52 58
f 52 51 57
f 50 56 57
f 49 55 56
f 66 72 67
f 59 65 66
f 59 58 64
f 58 57 63
f 63 57 417
f 57 56 417
f 417 419 63
f 419 425 63
f 427 62 63
f 55 416 417
f 72 78 73
f 65 71 72
f 65 64 70
f 64 63 69
f 63 62 68
f 61 67 68
f 78 84 79
f 71 77 78
f 70 76 77
f 70 69 75
f 69 68 74
f 68 67 73
f 84 90 85
f 77 83 84
f 76 82 83
f 76 75 81
f 75 74 80
f 74 73 79
f 90 96 91
f 84 83 89
f 83 82 88
f 82 81 87
f 80 86 87
f 79 85 86
f 96 539 534
f 89 95 96
f 89 88 94
f 88 87 93
f 87 86 92
f 85 91 92
f 95 538 539
f 94 537 538
f 94 93 536
f 93 92 535
f 92 91 534
f 552 116 120
f 118 103 110
f 103 111 110
f 110 98 118
f 102 554 556
f 545 98 100
f 101 556 149
f 556 611 149
f 610 555 148
f 555 100 148
f 101 149 100
f 99 102 101
f 603 145 142
f 553 547 129
f 547 121 129
f 547 543 121
f 543 106 121
f 106 108 122
f 108 104 122
f 557 131 134
f 131 132 134
f 132 133 134
f 134 123 558
f 123 124 558
f 122 127 128
f 127 126 128
f 128 130 121
f 115 136 139
f 140 570 548
f 115 139 112
f 139 140 97
f 115 112 113
f 113 114 115
f 97 112 139
f 104 108 107
f 107 109 104
f 109 111 103
f 140 137 598
f 597 598 137
f 120 116 117
f 117 118 120
f 546 120 545
f 120 119 98
f 122 104 103
f 103 118 125
f 118 117 125
f 125 127 103
f 138 137 135
f 137 140 135
f 140 136 141
f 140 141 105
f 142 143 607
f 99 548 144
f 548 602 144
f 603 554 145
f 554 102 145
f 99 144 145
f 145 144 143
f 602 607 143
f 149 146 147
f 152 156 155
f 155 157 152
f 152 147 156
f 147 146 154
f 146 166 173
f 173 172 146
f 172 154 146
f 623 615 158
f 615 147 158
f 147 152 159
f 166 170 169
f 169 171 166
f 161 162 153
f 150 151 163
f 164 174 167
f 165 167 174
f 166 146 170
f 146 614 622
f 168 146 622
f 374 657 656
f 663 831 176
f 831 342 176
f 342 341 177
f 341 830 179
f 178 341 179
f 830 662 179
f 177 176 342
f 183 184 185
f 180 181 186
f 184 183 338
f 151 153 162
f 165 175 653
f 190 192 188
f 189 193 188
f 196 197 195
f 198 199 197
f 200 201 199
f 202 203 201
f 195 197 199
f 199 201 203
f 203 205 199
f 194 195 205
f 204 205 203
f 211 206 194
f 217 212 206
f 210 211 204
f 209 210 202
f 208 209 200
f 206 207 196
f 223 218 212
f 216 217 211
f 215 216 210
f 214 215 209
f 213 214 208
f 212 213 207
f 229 224 218
f 222 223 217
f 221 222 216
f 220 221 215
f 277 270 196
f 218 219 213
f 235 230 224
f 228 229 223
f 227 228 222
f 226 227 221
f 225 226 220
f 224 225 219
f 235 241 236
f 234 235 229
f 233 234 228
f 232 233 227
f 289 283 213
f 230 231 225
f 241 247 242
f 234 240 241
f 233 239 240
f 238 239 233
f 237 238 232
f 236 237 231
f 247 253 248
f 240 246 247
f 239 245 246
f 244 245 239
f 301 295 225
f 242 243 237
f 259 254 248
f 246 252 253
f 245 251 252
f 250 251 245
f 249 250 244
f 248 249 243
f 255 254 259
f 259 258 257
f 257 256 255
f 258 259 253
f 251 257 258
f 250 256 257
f 249 255 256
f 248 254 255
f 262 263 261
f 264 265 263
f 266 267 265
f 268 269 267
f 261 263 265
f 265 267 269
f 269 271 265
f 260 261 271
f 270 271 269
f 277 272 260
f 283 278 272
f 275 276 268
f 274 275 266
f 273 274 264
f 272 273 262
f 289 284 278
f 282 283 277
f 281 282 276
f 280 281 275
f 279 280 274
f 278 279 273
f 295 290 284
f 287 288 282
f 286 287 281
f 285 286 280
f 284 285 279
f 301 296 290
f 294 295 289
f 293 294 288
f 292 293 287
f 291 292 286
f 290 291 285
f 301 307 302
f 313 307 237
f 299 300 294
f 298 299 293
f 297 298 292
f 296 297 291
f 307 313 308
f 300 306 307
f 299 305 306
f 304 305 299
f 303 304 298
f 302 303 297
f 313 319 314
f 238 306 312
f 305 311 312
f 310 311 305
f 309 310 304
f 308 309 303
f 325 320 314
f 312 318 319
f 311 317 318
f 316 317 311
f 315 316 310
f 314 315 309
f 321 320 325
f 325 324 323
f 323 322 325
f 324 325 319
f 323 324 318
f 316 322 323
f 315 321 322
f 314 320 321
f 268 276 277
f 276 277 207
f 270 268 198
f 282 288 289
f 198 268 276
f 288 289 219
f 283 282 214
f 294 300 301
f 214 282 288
f 300 301 231
f 295 294 226
f 306 312 313
f 312 313 243
f 226 294 300
f 237 307 306
f 160 651 652
f 331 334 328
f 326 334 331
f 331 332 337
f 330 326 331
f 335 328 327
f 335 327 329
f 336 333 335
f 840 357 350
f 832 348 347
f 349 833 836
f 181 182 185
f 342 343 340
f 345 338 339
f 339 340 343
f 363 358 857
f 357 356 351
f 355 352 351
f 354 353 352
f 841 846 353
f 362 359 358
f 853 847 363
f 847 350 363
f 350 351 363
f 351 352 362
f 352 353 361
f 353 846 361
f 846 852 361
f 352 361 362
f 362 361 360
f 361 852 858
f 360 858 857
f 857 358 360
f 365 364 371
f 370 369 373
f 367 368 364
f 372 373 368
f 379 384 383
f 386 385 407
f 385 378 407
f 407 378 408
f 378 876 409
f 378 385 384
f 382 381 380
f 889 387 388
f 890 388 390
f 388 389 392
f 390 388 392
f 391 392 389
f 389 395 393
f 388 387 394
f 387 396 399
f 397 387 399
f 397 394 387
f 394 395 388
f 398 399 396
f 396 402 400
f 387 889 891
f 891 401 387
f 401 402 387
f 405 376 404
f 376 377 404
f 377 381 404
f 382 376 405
f 406 403 381
f 382 405 406
f 877 386 410
f 386 407 410
f 410 409 876
f 923 415 411
f 917 411 412
f 916 412 414
f 413 415 923
f 419 423 422
f 419 418 424
f 421 420 422
f 419 417 421
f 418 422 420
f 416 420 421
f 427 431 430
f 427 426 61
f 429 428 430
f 427 425 429
f 426 430 428
f 424 428 429
f 434 435 433
f 436 437 435
f 438 439 437
f 440 441 439
f 474 479 443
f 432 433 443
f 442 443 441
f 449 444 432
f 449 455 450
f 448 449 442
f 447 448 440
f 446 447 438
f 445 446 436
f 444 445 434
f 461 456 450
f 448 454 455
f 447 453 454
f 452 453 447
f 451 452 446
f 450 451 445
f 467 462 456
f 460 461 455
f 459 460 454
f 452 458 459
f 451 457 458
f 450 456 457
f 473 468 462
f 466 467 461
f 465 466 460
f 458 464 465
f 457 463 464
f 456 462 463
f 472 473 467
f 471 472 466
f 464 470 471
f 463 469 470
f 462 468 469
f 474 480 485
f 479 478 441
f 478 477 439
f 477 476 437
f 476 475 435
f 475 474 433
f 480 486 491
f 485 484 478
f 484 483 477
f 483 482 476
f 482 481 475
f 475 481 480
f 486 492 497
f 485 491 490
f 484 490 489
f 483 489 488
f 488 487 481
f 487 486 480
f 497 492 925
f 497 925 503
f 925 927 503
f 498 503 935
f 933 503 927
f 491 497 496
f 490 496 495
f 489 495 494
f 494 493 487
f 493 492 486
f 504 509 503
f 503 502 496
f 496 502 501
f 495 501 500
f 493 494 926
f 494 500 926
f 500 499 936
f 934 928 500
f 928 926 500
f 926 925 492
f 510 515 509
f 509 508 502
f 502 508 507
f 501 507 506
f 500 506 505
f 505 504 498
f 516 521 515
f 515 514 508
f 514 513 507
f 507 513 512
f 506 512 511
f 505 511 510
f 522 527 521
f 521 520 514
f 520 519 513
f 513 519 518
f 512 518 517
f 511 517 516
f 528 533 527
f 521 527 526
f 520 526 525
f 519 525 524
f 524 523 517
f 523 522 516
f 534 539 533
f 533 532 526
f 526 532 531
f 525 531 530
f 524 530 529
f 529 528 522
f 539 538 532
f 538 537 531
f 531 537 536
f 530 536 535
f 529 535 534
f 597 598 570
f 552 546 578
f 567 559 566
f 559 576 566
f 576 577 541
f 556 554 551
f 545 549 544
f 544 555 616
f 555 610 616
f 611 556 617
f 556 550 617
f 544 616 617
f 542 544 550
f 603 606 604
f 579 547 587
f 547 553 587
f 562 543 579
f 543 547 579
f 579 580 562
f 580 560 564
f 590 589 592
f 589 557 592
f 557 558 592
f 558 582 581
f 592 558 581
f 584 585 586
f 585 580 586
f 580 579 586
f 546 552 555
f 599 594 572
f 572 571 569
f 569 568 572
f 568 540 599
f 540 548 600
f 548 570 600
f 600 599 540
f 563 564 560
f 560 559 565
f 559 567 565
f 598 595 600
f 597 596 595
f 575 574 578
f 578 577 575
f 577 578 541
f 578 546 545
f 559 560 580
f 580 585 559
f 585 583 559
f 583 575 576
f 600 595 593
f 595 596 593
f 601 594 600
f 600 593 561
f 607 605 604
f 551 554 609
f 554 603 609
f 602 548 608
f 548 542 608
f 551 609 542
f 609 604 605
f 605 607 602
f 620 621 615
f 613 612 617
f 614 622 624
f 615 621 654
f 621 625 655
f 621 655 654
f 629 630 626
f 626 633 631
f 612 613 628
f 613 626 630
f 628 613 630
f 628 646 612
f 646 647 612
f 613 615 632
f 615 623 632
f 632 633 613
f 643 644 640
f 640 647 645
f 627 636 635
f 637 619 618
f 638 618 641
f 648 641 639
f 614 612 622
f 612 640 644
f 642 612 644
f 872 873 656
f 826 831 658
f 831 663 658
f 830 825 661
f 825 826 659
f 660 825 659
f 661 662 830
f 660 661 825
f 667 666 669
f 670 665 664
f 822 667 668
f 636 627 619
f 650 653 649
f 672 676 674
f 672 677 673
f 679 681 680
f 681 683 682
f 683 685 684
f 685 687 686
f 683 681 687
f 681 679 687
f 679 689 687
f 689 679 678
f 687 689 688
f 678 690 695
f 690 696 701
f 688 695 694
f 686 694 693
f 684 693 692
f 680 691 690
f 696 702 707
f 695 701 700
f 694 700 699
f 693 699 698
f 692 698 697
f 691 697 696
f 702 708 713
f 701 707 706
f 700 706 705
f 699 705 704
f 680 754 761
f 697 703 702
f 708 714 719
f 707 713 712
f 706 712 711
f 705 711 710
f 704 710 709
f 703 709 708
f 719 714 720
f 713 719 718
f 712 718 717
f 711 717 716
f 697 767 773
f 709 715 714
f 725 720 726
f 718 719 725
f 717 718 724
f 717 723 722
f 716 722 721
f 715 721 720
f 731 726 732
f 724 725 731
f 723 724 730
f 723 729 728
f 709 779 785
f 721 727 726
f 732 738 743
f 730 731 737
f 729 730 736
f 729 735 734
f 728 734 733
f 727 733 732
f 743 738 739
f 739 740 741
f 741 742 743
f 737 743 742
f 735 736 742
f 735 741 740
f 733 734 740
f 732 733 739
f 745 747 746
f 747 749 748
f 749 751 750
f 751 753 752
f 749 747 753
f 747 745 753
f 745 755 753
f 755 745 744
f 753 755 754
f 744 756 761
f 756 762 767
f 752 760 759
f 750 759 758
f 748 758 757
f 746 757 756
f 762 768 773
f 761 767 766
f 760 766 765
f 759 765 764
f 758 764 763
f 757 763 762
f 768 774 779
f 766 772 771
f 765 771 770
f 764 770 769
f 763 769 768
f 774 780 785
f 773 779 778
f 772 778 777
f 771 777 776
f 770 776 775
f 769 775 774
f 785 780 786
f 721 791 797
f 778 784 783
f 777 783 782
f 776 782 781
f 775 781 780
f 791 786 792
f 784 785 791
f 783 784 790
f 783 789 788
f 782 788 787
f 781 787 786
f 797 792 798
f 722 728 796
f 789 790 796
f 789 795 794
f 788 794 793
f 787 793 792
f 798 804 809
f 796 797 803
f 795 796 802
f 795 801 800
f 794 800 799
f 793 799 798
f 809 804 805
f 805 806 807
f 807 808 805
f 803 809 808
f 802 808 807
f 800 801 807
f 799 800 806
f 798 799 805
f 761 760 752
f 691 761 760
f 682 752 754
f 773 772 766
f 682 692 760
f 703 773 772
f 698 766 767
f 785 784 778
f 698 704 772
f 715 785 784
f 710 778 779
f 797 796 790
f 727 797 796
f 710 716 784
f 721 722 790
f 635 652 651
f 812 818 815
f 815 818 810
f 815 810 814
f 821 816 815
f 819 817 820
f 819 820 813
f 811 812 819
f 840 847 842
f 832 837 835
f 839 834 836
f 669 666 665
f 824 827 826
f 829 828 823
f 827 824 823
f 857 854 861
f 851 842 843
f 843 844 849
f 844 845 848
f 845 846 841
f 854 855 860
f 842 847 861
f 847 853 861
f 844 843 860
f 843 842 861
f 860 843 861
f 846 845 859
f 845 844 859
f 859 852 846
f 860 855 856
f 859 856 858
f 857 858 856
f 856 855 854
f 869 862 863
f 871 867 868
f 862 866 865
f 866 871 870
f 879 880 883
f 878 885 911
f 885 886 911
f 878 911 912
f 912 913 878
f 878 879 884
f 882 883 880
f 888 887 889
f 893 888 896
f 888 890 894
f 890 892 894
f 893 896 895
f 895 897 893
f 900 887 903
f 887 888 898
f 901 887 898
f 888 893 899
f 899 898 888
f 900 903 902
f 902 904 900
f 891 889 887
f 887 900 906
f 906 905 887
f 875 874 908
f 874 909 908
f 908 907 881
f 882 881 910
f 881 907 910
f 910 909 882
f 911 886 914
f 886 877 914
f 877 876 914
f 918 924 923
f 919 918 917
f 921 919 916
f 920 915 923
f 931 932 928
f 928 934 933
f 930 932 931
f 928 932 930
f 929 931 927
f 930 929 925
f 939 940 936
f 936 499 498
f 938 940 939
f 936 940 938
f 937 939 935
f 938 937 933
v 3.8568218 2.6838739 -3.4147823
v 3.5177987 2.6838739 -3.4147823
v 3.8568218 2.6518655 -3.2538652
v 3.5177987 2.6518655 -3.2538652
v 3.8568218 2.5607133 -3.1174464
v 3.5177987 2.5607133 -3.1174464
v 3.8568218 2.4242945 -3.0262942
v 3.5177987 2.4242945 -3.0262942
v 3.8568218 2.2633774 -2.9942858
v 3.5177987 2.2633774 -2.9942858
v 3.8568218 2.1024604 -3.0262942
v 3.5177987 2.1024604 -3.0262942
v 3.8568218 1.9660416 -3.1174464
v 3.5177987 1.9660416 -3.1174464
v 3.8568218 1.8748894 -3.2538652
v 3.5177987 1.8748894 -3.2538652
v 3.8568218 1.8428810 -3.4147823
v 3.5177987 1.8428810 -3.4147823
v 3.8568218 1.8748893 -3.5756993
v 3.5177987 1.8748894 -3.5756993
v 3.8568218 1.9660414 -3.7121181
v 3.5177987 1.9660414 -3.7121181
v 3.8568218 2.1024604 -3.8032703
v 3.5177987 2.1024604 -3.8032703
v 3.8568218 2.2633774 -3.8352787
v 3.5177987 2.2633774 -3.8352787
v 3.8568218 2.4242945 -3.8032703
v 3.5177987 2.4242945 -3.8032703
v 3.8568218 2.5607133 -3.7121181
v 3.5177987 2.5607135 -3.7121181
v 3.8568218 2.6518655 -3.5756991
v 3.5177987 2.6518657 -3.5756991
v 3.9170914 2.6126282 -3.4147823
v 3.9170914 2.5860431 -3.2811298
v 3.9170914 2.5103350 -3.1678247
v 3.9170914 2.3970299 -3.0921166
v 3.9170914 2.2633774 -3.0655315
v 3.9170914 2.1297250 -3.0921166
v 3.9170914 2.0164196 -3.1678247
v 3.9170914 1.9407117 -3.2811298
v 3.9170914 1.9141265 -3.4147823
v 3.9170914 1.9407116 -3.5484347
v 3.9170914 2.0164196 -3.6617398
v 3.9170914 2.1297247 -3.7374480
v 3.9170914 2.2633774 -3.7640331
v 3.9170914 2.3970301 -3.7374480
v 3.9170914 2.5103352 -3.6617398
v 3.9170914 2.5860431 -3.5484347
v 3.9170914 2.4749174 -3.4147823
v 3.9170914 2.4588149 -3.3338294
v 3.9170914 2.4129589 -3.2652009
v 3.9170914 2.3443303 -3.2193446
v 3.9170914 2.2633774 -3.2032423
v 3.9170914 2.1824245 -3.2193446
v 3.9170914 2.1137960 -3.2652009
v 3.9170914 2.0679398 -3.3338294
v 3.9170914 2.0518372 -3.4147823
v 3.9170914 2.0679398 -3.4957352
v 3.9170914 2.1137960 -3.5643637
v 3.9170914 2.1824245 -3.6102200
v 3.9170914 2.2633774 -3.6263223
v 3.9170914 2.3443303 -3.6102197
v 3.9170914 2.4129589 -3.5643637
v 3.9170914 2.4588151 -3.4957352
v 3.8614624 2.4186931 -3.4147823
v 3.8614624 2.4068704 -3.3553455
v 3.8614624 2.3732023 -3.3049574
v 3.8614624 2.3228142 -3.2712893
v 3.8614624 2.2633774 -3.2594666
v 3.8614624 2.2039406 -3.2712893
v 3.8614624 2.1535525 -3.3049574
v 3.8614624 2.1198845 -3.3553455
v 3.8614624 2.1080618 -3.4147823
v 3.8614624 2.1198845 -3.4742191
v 3.8614624 2.1535525 -3.5246069
v 3.8614624 2.2039406 -3.5582752
v 3.8614624 2.2633774 -3.5700979
v 3.8614624 2.3228142 -3.5582752
v 3.8614624 2.3732023 -3.5246069
v 3.8614624 2.4068704 -3.4742188
v 3.4509463 2.6132460 -3.4147823
v 3.4509463 2.5866139 -3.2808933
v 3.4509463 2.5107720 -3.1673877
v 3.4509463 2.3972664 -3.0915458
v 3.4509463 2.2633774 -3.0649137
v 3.4509463 2.1294885 -3.0915458
v 3.4509463 2.0159831 -3.1673877
v 3.4509463 1.9401410 -3.2808933
v 3.4509463 1.9135089 -3.4147823
v 3.4509463 1.9401410 -3.5486712
v 3.4509463 2.0159829 -3.6621766
v 3.4509463 2.1294885 -3.7380188
v 3.4509463 2.2633774 -3.7646508
v 3.4509463 2.3972664 -3.7380188
v 3.4509463 2.5107720 -3.6621766
v 3.4509463 2.5866139 -3.5486710
f 942 943 941
f 944 945 943
f 946 947 945
f 948 949 947
f 950 951 949
f 952 953 951
f 954 955 953
f 956 957 955
f 958 959 957
f 960 961 959
f 962 963 961
f 964 965 963
f 966 967 965
f 968 969 967
f 952 1025 1026
f 972 941 971
f 970 971 969
f 959 981 957
f 984 999 983
f 963 985 984
f 947 977 976
f 971 987 969
f 955 979 953
f 959 983 982
f 945 974 943
f 965 986 985
f 951 977 949
f 941 988 971
f 943 973 941
f 957 980 955
f 963 983 961
f 945 976 975
f 969 986 967
f 953 978 951
f 989 1006 1005
f 982 997 981
f 979 996 995
f 978 993 977
f 973 1004 988
f 976 991 975
f 987 1002 986
f 973 990 989
f 985 1000 984
f 983 998 982
f 980 997 996
f 978 995 994
f 977 992 976
f 988 1003 987
f 974 991 990
f 985 1002 1001
f 1016 1018 1020
f 1001 1016 1000
f 999 1014 998
f 997 1012 996
f 995 1010 994
f 993 1008 992
f 1004 1019 1003
f 991 1006 990
f 1002 1017 1001
f 1000 1015 999
f 998 1013 997
f 996 1011 995
f 993 1010 1009
f 989 1020 1004
f 992 1007 991
f 1003 1018 1002
f 1031 1027 1023
f 972 1021 942
f 942 1022 944
f 956 1029 958
f 962 1032 964
f 946 1024 948
f 970 1034 1035
f 952 1027 954
f 960 1029 1030
f 964 1033 966
f 950 1024 1025
f 972 1035 1036
f 954 1028 956
f 960 1031 962
f 946 1022 1023
f 968 1033 1034
f 942 944 943
f 944 946 945
f 946 948 947
f 948 950 949
f 950 952 951
f 952 954 953
f 954 956 955
f 956 958 957
f 958 960 959
f 960 962 961
f 962 964 963
f 964 966 965
f 966 968 967
f 968 970 969
f 952 950 1025
f 972 942 941
f 970 972 971
f 959 982 981
f 984 1000 999
f 963 965 985
f 947 949 977
f 971 988 987
f 955 980 979
f 959 961 983
f 945 975 974
f 965 967 986
f 951 978 977
f 941 973 988
f 943 974 973
f 957 981 980
f 963 984 983
f 945 947 976
f 969 987 986
f 953 979 978
f 989 990 1006
f 982 998 997
f 979 980 996
f 978 994 993
f 973 989 1004
f 976 992 991
f 987 1003 1002
f 973 974 990
f 985 1001 1000
f 983 999 998
f 980 981 997
f 978 979 995
f 977 993 992
f 988 1004 1003
f 974 975 991
f 985 986 1002
f 1020 1005 1006
f 1006 1007 1008
f 1008 1009 1010
f 1010 1011 1012
f 1012 1013 1014
f 1014 1015 1016
f 1016 1017 1018
f 1018 1019 1020
f 1020 1006 1008
f 1008 1010 1020
f 1010 1012 1020
f 1012 1014 1020
f 1014 1016 1020
f 1001 1017 1016
f 999 1015 1014
f 997 1013 1012
f 995 1011 1010
f 993 1009 1008
f 1004 1020 1019
f 991 1007 1006
f 1002 1018 1017
f 1000 1016 1015
f 998 1014 1013
f 996 1012 1011
f 993 994 1010
f 989 1005 1020
f 992 1008 1007
f 1003 1019 1018
f 1023 1022 1021
f 1021 1036 1035
f 1035 1034 1033
f 1033 1032 1031
f 1031 1030 1029
f 1029 1028 1027
f 1027 1026 1025
f 1025 1024 1023
f 1023 1021 1035
f 1035 1033 1023
f 1033 1031 1023
f 1031 1029 1027
f 1027 1025 1023
f 972 1036 1021
f 942 1021 1022
f 956 1028 1029
f 962 1031 1032
f 946 1023 1024
f 970 968 1034
f 952 1026 1027
f 960 958 1029
f 964 1032 1033
f 950 948 1024
f 972 970 1035
f 954 1027 1028
f 960 1030 1031
f 946 944 1022
f 968 966 1033
v 3.8568218 2.6838739 -2.4174678
v 3.5177987 2.6838739 -2.4174678
v 3.8568218 2.6518655 -2.2565508
v 3.5177987 2.6518655 -2.2565508
v 3.8568218 2.5607133 -2.1201320
v 3.5177987 2.5607133 -2.1201320
v 3.8568218 2.4242945 -2.0289798
v 3.5177987 2.4242945 -2.0289798
v 3.8568218 2.2633774 -1.9969714
v 3.5177987 2.2633774 -1.9969714
v 3.8568218 2.1024604 -2.0289798
v 3.5177987 2.1024604 -2.0289798
v 3.8568218 1.9660416 -2.1201320
v 3.5177987 1.9660416 -2.1201320
v 3.8568218 1.8748894 -2.2565508
v 3.5177987 1.8748894 -2.2565508
v 3.8568218 1.8428810 -2.4174678
v 3.5177987 1.8428810 -2.4174678
v 3.8568218 1.8748893 -2.5783849
v 3.5177987 1.8748894 -2.5783849
v 3.8568218 1.9660414 -2.7148037
v 3.5177987 1.9660414 -2.7148037
v 3.8568218 2.1024604 -2.8059559
v 3.5177987 2.1024604 -2.8059559
v 3.8568218 2.2633774 -2.8379643
v 3.5177987 2.2633774 -2.8379643
v 3.8568218 2.4242945 -2.8059559
v 3.5177987 2.4242945 -2.8059559
v 3.8568218 2.5607133 -2.7148037
v 3.5177987 2.5607135 -2.7148037
v 3.8568218 2.6518655 -2.5783846
v 3.5177987 2.6518657 -2.5783846
v 3.9170914 2.6126282 -2.4174678
v 3.9170914 2.5860431 -2.2838154
v 3.9170914 2.5103350 -2.1705103
v 3.9170914 2.3970299 -2.0948021
v 3.9170914 2.2633774 -2.0682170
v 3.9170914 2.1297250 -2.0948021
v 3.9170914 2.0164196 -2.1705103
v 3.9170914 1.9407117 -2.2838154
v 3.9170914 1.9141265 -2.4174678
v 3.9170914 1.9407116 -2.5511203
v 3.9170914 2.0164196 -2.6644254
v 3.9170914 2.1297247 -2.7401335
v 3.9170914 2.2633774 -2.7667186
v 3.9170914 2.3970301 -2.7401335
v 3.9170914 2.5103352 -2.6644254
v 3.9170914 2.5860431 -2.5511203
v 3.9170914 2.4749174 -2.4174678
v 3.9170914 2.4588149 -2.3365149
v 3.9170914 2.4129589 -2.2678864
v 3.9170914 2.3443303 -2.2220302
v 3.9170914 2.2633774 -2.2059278
v 3.9170914 2.1824245 -2.2220302
v 3.9170914 2.1137960 -2.2678864
v 3.9170914 2.0679398 -2.3365149
v 3.9170914 2.0518372 -2.4174678
v 3.9170914 2.0679398 -2.4984207
v 3.9170914 2.1137960 -2.5670493
v 3.9170914 2.1824245 -2.6129055
v 3.9170914 2.2633774 -2.6290078
v 3.9170914 2.3443303 -2.6129053
v 3.9170914 2.4129589 -2.5670493
v 3.9170914 2.4588151 -2.4984207
v 3.8614624 2.4186931 -2.4174678
v 3.8614624 2.4068704 -2.3580310
v 3.8614624 2.3732023 -2.3076429
v 3.8614624 2.3228142 -2.2739749
v 3.8614624 2.2633774 -2.2621522
v 3.8614624 2.2039406 -2.2739749
v 3.8614624 2.1535525 -2.3076429
v 3.8614624 2.1198845 -2.3580310
v 3.8614624 2.1080618 -2.4174678
v 3.8614624 2.1198845 -2.4769046
v 3.8614624 2.1535525 -2.5272925
v 3.8614624 2.2039406 -2.5609608
v 3.8614624 2.2633774 -2.5727835
v 3.8614624 2.3228142 -2.5609608
v 3.8614624 2.3732023 -2.5272925
v 3.8614624 2.4068704 -2.4769044
v 3.4509463 2.6132460 -2.4174678
v 3.4509463 2.5866139 -2.2835789
v 3.4509463 2.5107720 -2.1700733
v 3.4509463 2.3972664 -2.0942314
v 3.4509463 2.2633774 -2.0675993
v 3.4509463 2.1294885 -2.0942314
v 3.4509463 2.0159831 -2.1700733
v 3.4509463 1.9401410 -2.2835789
v 3.4509463 1.9135089 -2.4174678
v 3.4509463 1.9401410 -2.5513568
v 3.4509463 2.0159829 -2.6648622
v 3.4509463 2.1294885 -2.7407043
v 3.4509463 2.2633774 -2.7673364
v 3.4509463 2.3972664 -2.7407043
v 3.4509463 2.5107720 -2.6648622
v 3.4509463 2.5866139 -2.5513566
f 1038 1039 1037
f 1040 1041 1039
f 1042 1043 1041
f 1044 1045 1043
f 1046 1047 1045
f 1048 1049 1047
f 1050 1051 1049
f 1052 1053 1051
f 1054 1055 1053
f 1056 1057 1055
f 1058 1059 1057
f 1060 1061 1059
f 1062 1063 1061
f 1064 1065 1063
f 1048 1121 1122
f 1068 1037 1067
f 1066 1067 1065
f 1055 1077 1053
f 1080 1095 1079
f 1059 1081 1080
f 1043 1073 1072
f 1067 1083 1065
f 1051 1075 1049
f 1055 1079 1078
f 1041 1070 1039
f 1061 1082 1081
f 1047 1073 1045
f 1037 1084 1067
f 1039 1069 1037
f 1053 1076 1051
f 1059 1079 1057
f 1041 1072 1071
f 1065 1082 1063
f 1049 1074 1047
f 1085 1102 1101
f 1078 1093 1077
f 1075 1092 1091
f 1074 1089 1073
f 1069 1100 1084
f 1072 1087 1071
f 1083 1098 1082
f 1069 1086 1085
f 1081 1096 1080
f 1079 1094 1078
f 1076 1093 1092
f 1074 1091 1090
f 1073 1088 1072
f 1084 1099 1083
f 1070 1087 1086
f 1081 1098 1097
f 1112 1114 1116
f 1097 1112 1096
f 1095 1110 1094
f 1093 1108 1092
f 1091 1106 1090
f 1089 1104 1088
f 1100 1115 1099
f 1087 1102 1086
f 1098 1113 1097
f 1096 1111 1095
f 1094 1109 1093
f 1092 1107 1091
f 1089 1106 1105
f 1085 1116 1100
f 1088 1103 1087
f 1099 1114 1098
f 1127 1123 1119
f 1068 1117 1038
f 1038 1118 1040
f 1052 1125 1054
f 1058 1128 1060
f 1042 1120 1044
f 1066 1130 1131
f 1048 1123 1050
f 1056 1125 1126
f 1060 1129 1062
f 1046 1120 1121
f 1068 1131 1132
f 1050 1124 1052
f 1056 1127 1058
f 1042 1118 1119
f 1064 1129 1130
f 1038 1040 1039
f 1040 1042 1041
f 1042 1044 1043
f 1044 1046 1045
f 1046 1048 1047
f 1048 1050 1049
f 1050 1052 1051
f 1052 1054 1053
f 1054 1056 1055
f 1056 1058 1057
f 1058 1060 1059
f 1060 1062 1061
f 1062 1064 1063
f 1064 1066 1065
f 1048 1046 1121
f 1068 1038 1037
f 1066 1068 1067
f 1055 1078 1077
f 1080 1096 1095
f 1059 1061 1081
f 1043 1045 1073
f 1067 1084 1083
f 1051 1076 1075
f 1055 1057 1079
f 1041 1071 1070
f 1061 1063 1082
f 1047 1074 1073
f 1037 1069 1084
f 1039 1070 1069
f 1053 1077 1076
f 1059 1080 1079
f 1041 1043 1072
f 1065 1083 1082
f 1049 1075 1074
f 1085 1086 1102
f 1078 1094 1093
f 1075 1076 1092
f 1074 1090 1089
f 1069 1085 1100
f 1072 1088 1087
f 1083 1099 1098
f 1069 1070 1086
f 1081 1097 1096
f 1079 1095 1094
f 1076 1077 1093
f 1074 1075 1091
f 1073 1089 1088
f 1084 1100 1099
f 1070 1071 1087
f 1081 1082 1098
f 1116 1101 1102
f 1102 1103 1104
f 1104 1105 1106
f 1106 1107 1108
f 1108 1109 1110
f 1110 1111 1112
f 1112 1113 1114
f 1114 1115 1116
f 1116 1102 1104
f 1104 1106 1116
f 1106 1108 1116
f 1108 1110 1116
f 1110 1112 1116
f 1097 1113 1112
f 1095 1111 1110
f 1093 1109 1108
f 1091 1107 1106
f 1089 1105 1104
f 1100 1116 1115
f 1087 1103 1102
f 1098 1114 1113
f 1096 1112 1111
f 1094 1110 1109
f 1092 1108 1107
f 1089 1090 1106
f 1085 1101 1116
f 1088 1104 1103
f 1099 1115 1114
f 1119 1118 1117
f 1117 1132 1131
f 1131 1130 1129
f 1129 1128 1127
f 1127 1126 1125
f 1125 1124 1123
f 1123 1122 1121
f 1121 1120 1119
f 1119 1117 1131
f 1131 1129 1119
f 1129 1127 1119
f 1127 1125 1123
f 1123 1121 1119
f 1068 1132 1117
f 1038 1117 1118
f 1052 1124 1125
f 1058 1127 1128
f 1042 1119 1120
f 1066 1064 1130
f 1048 1122 1123
f 1056 1054 1125
f 1060 1128 1129
f 1046 1044 1120
f 1068 1066 1131
f 1050 1123 1124
f 1056 1126 1127
f 1042 1040 1118
f 1064 1062 1129
v 4.0907273 3.0320129 -4.5549912
v 3.8521497 3.0320129 -4.5549912
v 4.0907273 2.9901309 -4.3444366
v 3.8521497 2.9901311 -4.3444366
v 4.0907273 2.8708613 -4.1659365
v 3.8521497 2.8708613 -4.1659365
v 4.0907273 2.6923616 -4.0466671
v 3.8521497 2.6923616 -4.0466671
v 4.0907273 2.4818068 -4.0047851
v 3.8521497 2.4818068 -4.0047851
v 4.0907273 2.2712519 -4.0466671
v 3.8521497 2.2712519 -4.0466671
v 4.0907273 2.0927522 -4.1659365
v 3.8521497 2.0927522 -4.1659365
v 4.0907269 1.9734825 -4.3444366
v 3.8521497 1.9734825 -4.3444366
v 4.0907269 1.9316005 -4.5549912
v 3.8521497 1.9316006 -4.5549912
v 4.0907269 1.9734824 -4.7655458
v 3.8521497 1.9734825 -4.7655458
v 4.0907273 2.0927520 -4.9440455
v 3.8521497 2.0927520 -4.9440455
v 4.0907273 2.2712519 -5.0633154
v 3.8521497 2.2712519 -5.0633154
v 4.0907273 2.4818068 -5.1051974
v 3.8521497 2.4818068 -5.1051974
v 4.0907273 2.6923616 -5.0633154
v 3.8521497 2.6923616 -5.0633154
v 4.0907273 2.8708615 -4.9440455
v 3.8521497 2.8708615 -4.9440455
v 4.0907273 2.9901311 -4.7655458
v 3.8521497 2.9901311 -4.7655458
v 4.1331401 2.9387903 -4.5549912
v 4.1331401 2.9040046 -4.3801112
v 4.1331401 2.8049431 -4.2318549
v 4.1331401 2.6566868 -4.1327934
v 4.1331401 2.4818068 -4.0980077
v 4.1331401 2.3069267 -4.1327934
v 4.1331401 2.1586704 -4.2318549
v 4.1331401 2.0596089 -4.3801112
v 4.1331401 2.0248232 -4.5549912
v 4.1331401 2.0596089 -4.7298713
v 4.1331401 2.1586704 -4.8781276
v 4.1331401 2.3069267 -4.9771891
v 4.1331401 2.4818068 -5.0119748
v 4.1331401 2.6566870 -4.9771891
v 4.1331401 2.8049431 -4.8781276
v 4.1331401 2.9040046 -4.7298713
v 4.1331401 2.7586002 -4.5549912
v 4.1331401 2.7375305 -4.4490671
v 4.1331401 2.6775293 -4.3592687
v 4.1331401 2.5877311 -4.2992673
v 4.1331401 2.4818068 -4.2781978
v 4.1331401 2.3758824 -4.2992673
v 4.1331401 2.2860842 -4.3592687
v 4.1331401 2.2260828 -4.4490671
v 4.1331401 2.2050133 -4.5549912
v 4.1331401 2.2260828 -4.6609154
v 4.1331401 2.2860842 -4.7507138
v 4.1331401 2.3758824 -4.8107152
v 4.1331401 2.4818068 -4.8317847
v 4.1331401 2.5877311 -4.8107152
v 4.1331401 2.6775293 -4.7507138
v 4.1331401 2.7375307 -4.6609154
v 4.0939927 2.6850324 -4.5549912
v 4.0939927 2.6695628 -4.4772201
v 4.0939927 2.6255090 -4.4112887
v 4.0939927 2.5595779 -4.3672352
v 4.0939927 2.4818068 -4.3517656
v 4.0939927 2.4040356 -4.3672352
v 4.0939927 2.3381045 -4.4112887
v 4.0939927 2.2940507 -4.4772201
v 4.0939927 2.2785811 -4.5549912
v 4.0939927 2.2940507 -4.6327624
v 4.0939927 2.3381045 -4.6986933
v 4.0939927 2.4040356 -4.7427473
v 4.0939927 2.4818068 -4.7582169
v 4.0939927 2.5595779 -4.7427473
v 4.0939927 2.6255090 -4.6986933
v 4.0939927 2.6695628 -4.6327624
v 3.8051043 2.9395988 -4.5549912
v 3.8051043 2.9047513 -4.3798018
v 3.8051043 2.8055146 -4.2312837
v 3.8051043 2.6569963 -4.1320467
v 3.8051043 2.4818068 -4.0971994
v 3.8051043 2.3066173 -4.1320467
v 3.8051043 2.1580989 -4.2312837
v 3.8051043 2.0588622 -4.3798018
v 3.8051043 2.0240149 -4.5549912
v 3.8051043 2.0588622 -4.7301807
v 3.8051043 2.1580989 -4.8786988
v 3.8051043 2.3066173 -4.9779358
v 3.8051043 2.4818068 -5.0127831
v 3.8051043 2.6569963 -4.9779358
v 3.8051043 2.8055146 -4.8786988
v 3.8051043 2.9047515 -4.7301803
f 1134 1135 1133
f 1136 1137 1135
f 1138 1139 1137
f 1140 1141 1139
f 1142 1143 1141
f 1144 1145 1143
f 1146 1147 1145
f 1148 1149 1147
f 1150 1151 1149
f 1152 1153 1151
f 1154 1155 1153
f 1156 1157 1155
f 1158 1159 1157
f 1160 1161 1159
f 1144 1217 1218
f 1164 1133 1163
f 1162 1163 1161
f 1151 1173 1149
f 1176 1191 1175
f 1155 1177 1176
f 1139 1169 1168
f 1163 1179 1161
f 1147 1171 1145
f 1151 1175 1174
f 1137 1166 1135
f 1157 1178 1177
f 1143 1169 1141
f 1133 1180 1163
f 1135 1165 1133
f 1149 1172 1147
f 1155 1175 1153
f 1137 1168 1167
f 1161 1178 1159
f 1145 1170 1143
f 1181 1198 1197
f 1174 1189 1173
f 1171 1188 1187
f 1170 1185 1169
f 1165 1196 1180
f 1168 1183 1167
f 1179 1194 1178
f 1165 1182 1181
f 1177 1192 1176
f 1175 1190 1174
f 1172 1189 1188
f 1170 1187 1186
f 1169 1184 1168
f 1180 1195 1179
f 1166 1183 1182
f 1177 1194 1193
f 1208 1210 1212
f 1193 1208 1192
f 1191 1206 1190
f 1189 1204 1188
f 1187 1202 1186
f 1185 1200 1184
f 1196 1211 1195
f 1183 1198 1182
f 1194 1209 1193
f 1192 1207 1191
f 1190 1205 1189
f 1188 1203 1187
f 1185 1202 1201
f 1181 1212 1196
f 1184 1199 1183
f 1195 1210 1194
f 1223 1219 1215
f 1164 1213 1134
f 1134 1214 1136
f 1148 1221 1150
f 1154 1224 1156
f 1138 1216 1140
f 1162 1226 1227
f 1144 1219 1146
f 1152 1221 1222
f 1156 1225 1158
f 1142 1216 1217
f 1164 1227 1228
f 1146 1220 1148
f 1152 1223 1154
f 1138 1214 1215
f 1160 1225 1226
f 1134 1136 1135
f 1136 1138 1137
f 1138 1140 1139
f 1140 1142 1141
f 1142 1144 1143
f 1144 1146 1145
f 1146 1148 1147
f 1148 1150 1149
f 1150 1152 1151
f 1152 1154 1153
f 1154 1156 1155
f 1156 1158 1157
f 1158 1160 1159
f 1160 1162 1161
f 1144 1142 1217
f 1164 1134 1133
f 1162 1164 1163
f 1151 1174 1173
f 1176 1192 1191
f 1155 1157 1177
f 1139 1141 1169
f 1163 1180 1179
f 1147 1172 1171
f 1151 1153 1175
f 1137 1167 1166
f 1157 1159 1178
f 1143 1170 1169
f 1133 1165 1180
f 1135 1166 1165
f 1149 1173 1172
f 1155 1176 1175
f 1137 1139 1168
f 1161 1179 1178
f 1145 1171 1170
f 1181 1182 1198
f 1174 1190 1189
f 1171 1172 1188
f 1170 1186 1185
f 1165 1181 1196
f 1168 1184 1183
f 1179 1195 1194
f 1165 1166 1182
f 1177 1193 1192
f 1175 1191 1190
f 1172 1173 1189
f 1170 1171 1187
f 1169 1185 1184
f 1180 1196 1195
f 1166 1167 1183
f 1177 1178 1194
f 1212 1197 1198
f 1198 1199 1200
f 1200 1201 1202
f 1202 1203 1204
f 1204 1205 1206
f 1206 1207 1208
f 1208 1209 1210
f 1210 1211 1212
f 1212 1198 1200
f 1200 1202 1212
f 1202 1204 1212
f 1204 1206 1212
f 1206 1208 1212
f 1193 1209 1208
f 1191 1207 1206
f 1189 1205 1204
f 1187 1203 1202
f 1185 1201 1200
f 1196 1212 1211
f 1183 1199 1198
f 1194 1210 1209
f 1192 1208 1207
f 1190 1206 1205
f 1188 1204 1203
f 1185 1186 1202
f 1181 1197 1212
f 1184 1200 1199
f 1195 1211 1210
f 1215 1214 1213
f 1213 1228 1227
f 1227 1226 1225
f 1225 1224 1223
f 1223 1222 1221
f 1221 1220 1219
f 1219 1218 1217
f 1217 1216 1215
f 1215 1213 1227
f 1227 1225 1215
f 1225 1223 1215
f 1223 1221 1219
f 1219 1217 1215
f 1164 1228 1213
f 1134 1213 1214
f 1148 1220 1221
f 1154 1223 1224
f 1138 1215 1216
f 1162 1160 1226
f 1144 1218 1219
f 1152 1150 1221
f 1156 1224 1225
f 1142 1140 1216
f 1164 1162 1227
f 1146 1219 1220
f 1152 1222 1223
f 1138 1136 1214
f 1160 1158 1225
v 1.6932113 3.0320129 -4.5376158
v 1.9317888 3.0320129 -4.5376158
v 1.6932113 2.9901311 -4.3270612
v 1.9317888 2.9901309 -4.3270612
v 1.6932113 2.8708613 -4.1485610
v 1.9317888 2.8708613 -4.1485610
v 1.6932113 2.6923616 -4.0292916
v 1.9317887 2.6923616 -4.0292916
v 1.6932113 2.4818068 -3.9874096
v 1.9317887 2.4818068 -3.9874096
v 1.6932113 2.2712519 -4.0292916
v 1.9317887 2.2712519 -4.0292916
v 1.6932112 2.0927522 -4.1485610
v 1.9317887 2.0927522 -4.1485610
v 1.6932112 1.9734825 -4.3270607
v 1.9317887 1.9734825 -4.3270607
v 1.6932112 1.9316006 -4.5376158
v 1.9317887 1.9316005 -4.5376158
v 1.6932112 1.9734825 -4.7481704
v 1.9317887 1.9734824 -4.7481704
v 1.6932112 2.0927520 -4.9266701
v 1.9317887 2.0927520 -4.9266701
v 1.6932113 2.2712519 -5.0459399
v 1.9317887 2.2712519 -5.0459399
v 1.6932113 2.4818068 -5.0878220
v 1.9317887 2.4818068 -5.0878220
v 1.6932113 2.6923616 -5.0459399
v 1.9317887 2.6923616 -5.0459399
v 1.6932113 2.8708615 -4.9266701
v 1.9317888 2.8708615 -4.9266701
v 1.6932113 2.9901311 -4.7481704
v 1.9317888 2.9901311 -4.7481704
v 1.6507983 2.9387903 -4.5376158
v 1.6507983 2.9040046 -4.3627357
v 1.6507983 2.8049431 -4.2144794
v 1.6507983 2.6566868 -4.1154180
v 1.6507983 2.4818068 -4.0806322
v 1.6507983 2.3069267 -4.1154180
v 1.6507983 2.1586704 -4.2144794
v 1.6507983 2.0596089 -4.3627357
v 1.6507983 2.0248232 -4.5376158
v 1.6507983 2.0596089 -4.7124958
v 1.6507983 2.1586704 -4.8607521
v 1.6507983 2.3069267 -4.9598136
v 1.6507983 2.4818068 -4.9945993
v 1.6507983 2.6566870 -4.9598136
v 1.6507983 2.8049431 -4.8607521
v 1.6507983 2.9040046 -4.7124958
v 1.6507983 2.7586002 -4.5376158
v 1.6507983 2.7375307 -4.4316916
v 1.6507983 2.6775293 -4.3418932
v 1.6507983 2.5877311 -4.2818918
v 1.6507983 2.4818068 -4.2608223
v 1.6507983 2.3758824 -4.2818918
v 1.6507983 2.2860842 -4.3418932
v 1.6507983 2.2260830 -4.4316916
v 1.6507983 2.2050133 -4.5376158
v 1.6507983 2.2260828 -4.6435399
v 1.6507983 2.2860842 -4.7333384
v 1.6507983 2.3758824 -4.7933397
v 1.6507983 2.4818068 -4.8144093
v 1.6507983 2.5877311 -4.7933397
v 1.6507983 2.6775293 -4.7333384
v 1.6507983 2.7375307 -4.6435399
v 1.6899456 2.6850324 -4.5376158
v 1.6899456 2.6695628 -4.4598446
v 1.6899456 2.6255090 -4.3939133
v 1.6899456 2.5595779 -4.3498597
v 1.6899456 2.4818068 -4.3343902
v 1.6899456 2.4040356 -4.3498597
v 1.6899456 2.3381045 -4.3939133
v 1.6899456 2.2940507 -4.4598446
v 1.6899456 2.2785811 -4.5376158
v 1.6899456 2.2940507 -4.6153870
v 1.6899456 2.3381045 -4.6813178
v 1.6899456 2.4040356 -4.7253718
v 1.6899456 2.4818068 -4.7408414
v 1.6899456 2.5595779 -4.7253718
v 1.6899456 2.6255090 -4.6813178
v 1.6899456 2.6695628 -4.6153870
v 1.9788342 2.9395986 -4.5376158
v 1.9788342 2.9047513 -4.3624263
v 1.9788342 2.8055146 -4.2139082
v 1.9788342 2.6569960 -4.1146712
v 1.9788342 2.4818068 -4.0798240
v 1.9788342 2.3066173 -4.1146712
v 1.9788342 2.1580989 -4.2139082
v 1.9788340 2.0588622 -4.3624263
v 1.9788340 2.0240147 -4.5376158
v 1.9788340 2.0588620 -4.7128053
v 1.9788342 2.1580989 -4.8613234
v 1.9788342 2.3066173 -4.9605603
v 1.9788342 2.4818068 -4.9954076
v 1.9788342 2.6569963 -4.9605603
v 1.9788342 2.8055146 -4.8613234
v 1.9788342 2.9047515 -4.7128048
f 1230 1231 1229
f 1232 1233 1231
f 1234 1235 1233
f 1236 1237 1235
f 1238 1239 1237
f 1240 1241 1239
f 1242 1243 1241
f 1244 1245 1243
f 1246 1247 1245
f 1248 1249 1247
f 1250 1251 1249
f 1252 1253 1251
f 1254 1255 1253
f 1256 1257 1255
f 1240 1313 1314
f 1260 1229 1259
f 1258 1259 1257
f 1247 1269 1245
f 1272 1287 1271
f 1251 1273 1272
f 1235 1265 1264
f 1259 1275 1257
f 1243 1267 1241
f 1247 1271 1270
f 1233 1262 1231
f 1253 1274 1273
f 1239 1265 1237
f 1229 1276 1259
f 1231 1261 1229
f 1245 1268 1243
f 1251 1271 1249
f 1233 1264 1263
f 1257 1274 1255
f 1241 1266 1239
f 1277 1294 1293
f 1270 1285 1269
f 1267 1284 1283
f 1266 1281 1265
f 1261 1292 1276
f 1264 1279 1263
f 1275 1290 1274
f 1261 1278 1277
f 1273 1288 1272
f 1271 1286 1270
f 1268 1285 1284
f 1266 1283 1282
f 1265 1280 1264
f 1276 1291 1275
f 1262 1279 1278
f 1273 1290 1289
f 1304 1306 1308
f 1289 1304 1288
f 1287 1302 1286
f 1285 1300 1284
f 1283 1298 1282
f 1281 1296 1280
f 1292 1307 1291
f 1279 1294 1278
f 1290 1305 1289
f 1288 1303 1287
f 1286 1301 1285
f 1284 1299 1283
f 1281 1298 1297
f 1277 1308 1292
f 1280 1295 1279
f 1291 1306 1290
f 1319 1315 1311
f 1260 1309 1230
f 1230 1310 1232
f 1244 1317 1246
f 1250 1320 1252
f 1234 1312 1236
f 1258 1322 1323
f 1240 1315 1242
f 1248 1317 1318
f 1252 1321 1254
f 1238 1312 1313
f 1260 1323 1324
f 1242 1316 1244
f 1248 1319 1250
f 1234 1310 1311
f 1256 1321 1322
f 1230 1232 1231
f 1232 1234 1233
f 1234 1236 1235
f 1236 1238 1237
f 1238 1240 1239
f 1240 1242 1241
f 1242 1244 1243
f 1244 1246 1245
f 1246 1248 1247
f 1248 1250 1249
f 1250 1252 1251
f 1252 1254 1253
f 1254 1256 1255
f 1256 1258 1257
f 1240 1238 1313
f 1260 1230 1229
f 1258 1260 1259
f 1247 1270 1269
f 1272 1288 1287
f 1251 1253 1273
f 1235 1237 1265
f 1259 1276 1275
f 1243 1268 1267
f 1247 1249 1271
f 1233 1263 1262
f 1253 1255 1274
f 1239 1266 1265
f 1229 1261 1276
f 1231 1262 1261
f 1245 1269 1268
f 1251 1272 1271
f 1233 1235 1264
f 1257 1275 1274
f 1241 1267 1266
f 1277 1278 1294
f 1270 1286 1285
f 1267 1268 1284
f 1266 1282 1281
f 1261 1277 1292
f 1264 1280 1279
f 1275 1291 1290
f 1261 1262 1278
f 1273 1289 1288
f 1271 1287 1286
f 1268 1269 1285
f 1266 1267 1283
f 1265 1281 1280
f 1276 1292 1291
f 1262 1263 1279
f 1273 1274 1290
f 1308 1293 1294
f 1294 1295 1296
f 1296 1297 1298
f 1298 1299 1300
f 1300 1301 1302
f 1302 1303 1304
f 1304 1305 1306
f 1306 1307 1308
f 1308 1294 1296
f 1296 1298 1308
f 1298 1300 1308
f 1300 1302 1308
f 1302 1304 1308
f 1289 1305 1304
f 1287 1303 1302
f 1285 1301 1300
f 1283 1299 1298
f 1281 1297 1296
f 1292 1308 1307
f 1279 1295 1294
f 1290 1306 1305
f 1288 1304 1303
f 1286 1302 1301
f 1284 1300 1299
f 1281 1282 1298
f 1277 1293 1308
f 1280 1296 1295
f 1291 1307 1306
f 1311 1310 1309
f 1309 1324 1323
f 1323 1322 1321
f 1321 1320 1319
f 1319 1318 1317
f 1317 1316 1315
f 1315 1314 1313
f 1313 1312 1311
f 1311 1309 1323
f 1323 1321 1311
f 1321 1319 1311
f 1319 1317 1315
f 1315 1313 1311
f 1260 1324 1309
f 1230 1309 1310
f 1244 1316 1317
f 1250 1319 1320
f 1234 1311 1312
f 1258 1256 1322
f 1240 1314 1315
f 1248 1246 1317
f 1252 1320 1321
f 1238 1236 1312
f 1260 1258 1323
f 1242 1315 1316
f 1248 1318 1319
f 1234 1232 1310
f 1256 1254 1321
v 1.9271162 2.6838739 -2.4000919
v 2.2661393 2.6838739 -2.4000919
v 1.9271162 2.6518655 -2.2391748
v 2.2661393 2.6518655 -2.2391748
v 1.9271162 2.5607133 -2.1027560
v 2.2661393 2.5607133 -2.1027560
v 1.9271162 2.4242945 -2.0116038
v 2.2661393 2.4242945 -2.0116038
v 1.9271162 2.2633774 -1.9795954
v 2.2661393 2.2633774 -1.9795954
v 1.9271162 2.1024604 -2.0116038
v 2.2661393 2.1024604 -2.0116038
v 1.9271162 1.9660416 -2.1027560
v 2.2661393 1.9660416 -2.1027560
v 1.9271162 1.8748894 -2.2391748
v 2.2661393 1.8748894 -2.2391748
v 1.9271162 1.8428810 -2.4000919
v 2.2661393 1.8428810 -2.4000919
v 1.9271162 1.8748894 -2.5610089
v 2.2661393 1.8748894 -2.5610089
v 1.9271162 1.9660414 -2.6974277
v 2.2661393 1.9660414 -2.6974277
v 1.9271162 2.1024604 -2.7885799
v 2.2661393 2.1024604 -2.7885799
v 1.9271162 2.2633774 -2.8205884
v 2.2661393 2.2633774 -2.8205884
v 1.9271162 2.4242945 -2.7885799
v 2.2661393 2.4242945 -2.7885799
v 1.9271162 2.5607135 -2.6974277
v 2.2661393 2.5607133 -2.6974277
v 1.9271162 2.6518655 -2.5610087
v 2.2661393 2.6518655 -2.5610087
v 1.8668466 2.6126282 -2.4000919
v 1.8668466 2.5860431 -2.2664394
v 1.8668466 2.5103350 -2.1531343
v 1.8668466 2.3970299 -2.0774262
v 1.8668466 2.2633774 -2.0508411
v 1.8668466 2.1297250 -2.0774262
v 1.8668466 2.0164199 -2.1531343
v 1.8668466 1.9407117 -2.2664394
v 1.8668466 1.9141266 -2.4000919
v 1.8668466 1.9407117 -2.5337443
v 1.8668466 2.0164196 -2.6470494
v 1.8668466 2.1297250 -2.7227576
v 1.8668466 2.2633774 -2.7493427
v 1.8668466 2.3970301 -2.7227576
v 1.8668466 2.5103352 -2.6470494
v 1.8668466 2.5860431 -2.5337443
v 1.8668466 2.4749174 -2.4000919
v 1.8668466 2.4588151 -2.3191390
v 1.8668466 2.4129589 -2.2505105
v 1.8668466 2.3443303 -2.2046542
v 1.8668466 2.2633774 -2.1885519
v 1.8668466 2.1824245 -2.2046542
v 1.8668466 2.1137960 -2.2505105
v 1.8668466 2.0679400 -2.3191390
v 1.8668466 2.0518374 -2.4000919
v 1.8668466 2.0679400 -2.4810448
v 1.8668466 2.1137960 -2.5496733
v 1.8668466 2.1824245 -2.5955293
v 1.8668466 2.2633774 -2.6116319
v 1.8668466 2.3443303 -2.5955293
v 1.8668466 2.4129589 -2.5496733
v 1.8668466 2.4588151 -2.4810448
v 1.9224756 2.4186931 -2.4000919
v 1.9224756 2.4068704 -2.3406551
v 1.9224756 2.3732023 -2.2902670
v 1.9224756 2.3228142 -2.2565989
v 1.9224756 2.2633774 -2.2447762
v 1.9224756 2.2039406 -2.2565989
v 1.9224756 2.1535525 -2.2902670
v 1.9224756 2.1198845 -2.3406551
v 1.9224756 2.1080618 -2.4000919
v 1.9224756 2.1198845 -2.4595287
v 1.9224756 2.1535525 -2.5099165
v 1.9224756 2.2039406 -2.5435848
v 1.9224756 2.2633774 -2.5554075
v 1.9224756 2.3228142 -2.5435848
v 1.9224756 2.3732023 -2.5099165
v 1.9224756 2.4068704 -2.4595284
v 2.3329916 2.6132460 -2.4000919
v 2.3329916 2.5866139 -2.2662029
v 2.3329916 2.5107718 -2.1526976
v 2.3329916 2.3972664 -2.0768554
v 2.3329916 2.2633774 -2.0502234
v 2.3329916 2.1294885 -2.0768554
v 2.3329916 2.0159829 -2.1526976
v 2.3329916 1.9401410 -2.2662029
v 2.3329916 1.9135089 -2.4000919
v 2.3329916 1.9401410 -2.5339806
v 2.3329916 2.0159829 -2.6474862
v 2.3329916 2.1294885 -2.7233284
v 2.3329916 2.2633774 -2.7499604
v 2.3329916 2.3972664 -2.7233284
v 2.3329916 2.5107720 -2.6474862
v 2.3329916 2.5866139 -2.5339806
f 1326 1327 1325
f 1328 1329 1327
f 1330 1331 1329
f 1332 1333 1331
f 1334 1335 1333
f 1336 1337 1335
f 1338 1339 1337
f 1340 1341 1339
f 1342 1343 1341
f 1344 1345 1343
f 1346 1347 1345
f 1348 1349 1347
f 1350 1351 1349
f 1352 1353 1351
f 1336 1409 1410
f 1356 1325 1355
f 1354 1355 1353
f 1343 1365 1341
f 1368 1383 1367
f 1347 1369 1368
f 1331 1361 1360
f 1355 1371 1353
f 1339 1363 1337
f 1343 1367 1366
f 1329 1358 1327
f 1349 1370 1369
f 1335 1361 1333
f 1325 1372 1355
f 1327 1357 1325
f 1341 1364 1339
f 1347 1367 1345
f 1329 1360 1359
f 1353 1370 1351
f 1337 1362 1335
f 1373 1390 1389
f 1366 1381 1365
f 1363 1380 1379
f 1362 1377 1361
f 1357 1388 1372
f 1360 1375 1359
f 1371 1386 1370
f 1357 1374 1373
f 1369 1384 1368
f 1367 1382 1366
f 1364 1381 1380
f 1362 1379 1378
f 1361 1376 1360
f 1372 1387 1371
f 1358 1375 1374
f 1369 1386 1385
f 1400 1402 1404
f 1385 1400 1384
f 1383 1398 1382
f 1381 1396 1380
f 1379 1394 1378
f 1377 1392 1376
f 1388 1403 1387
f 1375 1390 1374
f 1386 1401 1385
f 1384 1399 1383
f 1382 1397 1381
f 1380 1395 1379
f 1377 1394 1393
f 1373 1404 1388
f 1376 1391 1375
f 1387 1402 1386
f 1415 1411 1407
f 1356 1405 1326
f 1326 1406 1328
f 1340 1413 1342
f 1346 1416 1348
f 1330 1408 1332
f 1354 1418 1419
f 1336 1411 1338
f 1344 1413 1414
f 1348 1417 1350
f 1334 1408 1409
f 1356 1419 1420
f 1338 1412 1340
f 1344 1415 1346
f 1330 1406 1407
f 1352 1417 1418
f 1326 1328 1327
f 1328 1330 1329
f 1330 1332 1331
f 1332 1334 1333
f 1334 1336 1335
f 1336 1338 1337
f 1338 1340 1339
f 1340 1342 1341
f 1342 1344 1343
f 1344 1346 1345
f 1346 1348 1347
f 1348 1350 1349
f 1350 1352 1351
f 1352 1354 1353
f 1336 1334 1409
f 1356 1326 1325
f 1354 1356 1355
f 1343 1366 1365
f 1368 1384 1383
f 1347 1349 1369
f 1331 1333 1361
f 1355 1372 1371
f 1339 1364 1363
f 1343 1345 1367
f 1329 1359 1358
f 1349 1351 1370
f 1335 1362 1361
f 1325 1357 1372
f 1327 1358 1357
f 1341 1365 1364
f 1347 1368 1367
f 1329 1331 1360
f 1353 1371 1370
f 1337 1363 1362
f 1373 1374 1390
f 1366 1382 1381
f 1363 1364 1380
f 1362 1378 1377
f 1357 1373 1388
f 1360 1376 1375
f 1371 1387 1386
f 1357 1358 1374
f 1369 1385 1384
f 1367 1383 1382
f 1364 1365 1381
f 1362 1363 1379
f 1361 1377 1376
f 1372 1388 1387
f 1358 1359 1375
f 1369 1370 1386
f 1404 1389 1390
f 1390 1391 1392
f 1392 1393 1394
f 1394 1395 1396
f 1396 1397 1398
f 1398 1399 1400
f 1400 1401 1402
f 1402 1403 1404
f 1404 1390 1392
f 1392 1394 1404
f 1394 1396 1404
f 1396 1398 1404
f 1398 1400 1404
f 1385 1401 1400
f 1383 1399 1398
f 1381 1397 1396
f 1379 1395 1394
f 1377 1393 1392
f 1388 1404 1403
f 1375 1391 1390
f 1386 1402 1401
f 1384 1400 1399
f 1382 1398 1397
f 1380 1396 1395
f 1377 1378 1394
f 1373 1389 1404
f 1376 1392 1391
f 1387 1403 1402
f 1407 1406 1405
f 1405 1420 1419
f 1419 1418 1417
f 1417 1416 1415
f 1415 1414 1413
f 1413 1412 1411
f 1411 1410 1409
f 1409 1408 1407
f 1407 1405 1419
f 1419 1417 1407
f 1417 1415 1407
f 1415 1413 1411
f 1411 1409 1407
f 1356 1420 1405
f 1326 1405 1406
f 1340 1412 1413
f 1346 1415 1416
f 1330 1407 1408
f 1354 1352 1418
f 1336 1410 1411
f 1344 1342 1413
f 1348 1416 1417
f 1334 1332 1408
f 1356 1354 1419
f 1338 1411 1412
f 1344 1414 1415
f 1330 1328 1406
f 1352 1350 1417
v 1.9271162 2.6838739 -3.3974066
v 2.2661393 2.6838739 -3.3974066
v 1.9271162 2.6518655 -3.2364895
v 2.2661393 2.6518655 -3.2364895
v 1.9271162 2.5607133 -3.1000707
v 2.2661393 2.5607133 -3.1000707
v 1.9271162 2.4242945 -3.0089185
v 2.2661393 2.4242945 -3.0089185
v 1.9271162 2.2633774 -2.9769101
v 2.2661393 2.2633774 -2.9769101
v 1.9271162 2.1024604 -3.0089185
v 2.2661393 2.1024604 -3.0089185
v 1.9271162 1.9660416 -3.1000707
v 2.2661393 1.9660416 -3.1000707
v 1.9271162 1.8748894 -3.2364895
v 2.2661393 1.8748894 -3.2364895
v 1.9271162 1.8428810 -3.3974066
v 2.2661393 1.8428810 -3.3974066
v 1.9271162 1.8748894 -3.5583234
v 2.2661393 1.8748894 -3.5583234
v 1.9271162 1.9660414 -3.6947424
v 2.2661393 1.9660414 -3.6947424
v 1.9271162 2.1024604 -3.7858946
v 2.2661393 2.1024604 -3.7858946
v 1.9271162 2.2633774 -3.8179030
v 2.2661393 2.2633774 -3.8179030
v 1.9271162 2.4242945 -3.7858946
v 2.2661393 2.4242945 -3.7858946
v 1.9271162 2.5607135 -3.6947424
v 2.2661393 2.5607133 -3.6947424
v 1.9271162 2.6518655 -3.5583234
v 2.2661393 2.6518655 -3.5583234
v 1.8668466 2.6126282 -3.3974066
v 1.8668466 2.5860431 -3.2637541
v 1.8668466 2.5103350 -3.1504490
v 1.8668466 2.3970299 -3.0747409
v 1.8668466 2.2633774 -3.0481558
v 1.8668466 2.1297250 -3.0747409
v 1.8668466 2.0164199 -3.1504490
v 1.8668466 1.9407117 -3.2637541
v 1.8668466 1.9141266 -3.3974066
v 1.8668466 1.9407117 -3.5310590
v 1.8668466 2.0164196 -3.6443641
v 1.8668466 2.1297250 -3.7200723
v 1.8668466 2.2633774 -3.7466574
v 1.8668466 2.3970301 -3.7200723
v 1.8668466 2.5103352 -3.6443641
v 1.8668466 2.5860431 -3.5310590
v 1.8668466 2.4749174 -3.3974066
v 1.8668466 2.4588151 -3.3164537
v 1.8668466 2.4129589 -3.2478251
v 1.8668466 2.3443303 -3.2019691
v 1.8668466 2.2633774 -3.1858666
v 1.8668466 2.1824245 -3.2019691
v 1.8668466 2.1137960 -3.2478251
v 1.8668466 2.0679400 -3.3164537
v 1.8668466 2.0518374 -3.3974066
v 1.8668466 2.0679400 -3.4783595
v 1.8668466 2.1137960 -3.5469880
v 1.8668466 2.1824245 -3.5928440
v 1.8668466 2.2633774 -3.6089466
v 1.8668466 2.3443303 -3.5928440
v 1.8668466 2.4129589 -3.5469880
v 1.8668466 2.4588151 -3.4783595
v 1.9224756 2.4186931 -3.3974066
v 1.9224756 2.4068704 -3.3379698
v 1.9224756 2.3732023 -3.2875817
v 1.9224756 2.3228142 -3.2539136
v 1.9224756 2.2633774 -3.2420909
v 1.9224756 2.2039406 -3.2539136
v 1.9224756 2.1535525 -3.2875817
v 1.9224756 2.1198845 -3.3379698
v 1.9224756 2.1080618 -3.3974066
v 1.9224756 2.1198845 -3.4568434
v 1.9224756 2.1535525 -3.5072312
v 1.9224756 2.2039406 -3.5408995
v 1.9224756 2.2633774 -3.5527222
v 1.9224756 2.3228142 -3.5408995
v 1.9224756 2.3732023 -3.5072312
v 1.9224756 2.4068704 -3.4568431
v 2.3329916 2.6132460 -3.3974066
v 2.3329916 2.5866139 -3.2635176
v 2.3329916 2.5107718 -3.1500120
v 2.3329916 2.3972664 -3.0741701
v 2.3329916 2.2633774 -3.0475380
v 2.3329916 2.1294885 -3.0741701
v 2.3329916 2.0159829 -3.1500120
v 2.3329916 1.9401410 -3.2635176
v 2.3329916 1.9135089 -3.3974066
v 2.3329916 1.9401410 -3.5312953
v 2.3329916 2.0159829 -3.6448009
v 2.3329916 2.1294885 -3.7206430
v 2.3329916 2.2633774 -3.7472751
v 2.3329916 2.3972664 -3.7206430
v 2.3329916 2.5107720 -3.6448009
v 2.3329916 2.5866139 -3.5312953
f 1422 1423 1421
f 1424 1425 1423
f 1426 1427 1425
f 1428 1429 1427
f 1430 1431 1429
f 1432 1433 1431
f 1434 1435 1433
f 1436 1437 1435
f 1438 1439 1437
f 1440 1441 1439
f 1442 1443 1441
f 1444 1445 1443
f 1446 1447 1445
f 1448 1449 1447
f 1432 1505 1506
f 1452 1421 1451
f 1450 1451 1449
f 1439 1461 1437
f 1464 1479 1463
f 1443 1465 1464
f 1427 1457 1456
f 1451 1467 1449
f 1435 1459 1433
f 1439 1463 1462
f 1425 1454 1423
f 1445 1466 1465
f 1431 1457 1429
f 1421 1468 1451
f 1423 1453 1421
f 1437 1460 1435
f 1443 1463 1441
f 1425 1456 1455
f 1449 1466 1447
f 1433 1458 1431
f 1469 1486 1485
f 1462 1477 1461
f 1459 1476 1475
f 1458 1473 1457
f 1453 1484 1468
f 1456 1471 1455
f 1467 1482 1466
f 1453 1470 1469
f 1465 1480 1464
f 1463 1478 1462
f 1460 1477 1476
f 1458 1475 1474
f 1457 1472 1456
f 1468 1483 1467
f 1454 1471 1470
f 1465 1482 1481
f 1496 1498 1500
f 1481 1496 1480
f 1479 1494 1478
f 1477 1492 1476
f 1475 1490 1474
f 1473 1488 1472
f 1484 1499 1483
f 1471 1486 1470
f 1482 1497 1481
f 1480 1495 1479
f 1478 1493 1477
f 1476 1491 1475
f 1473 1490 1489
f 1469 1500 1484
f 1472 1487 1471
f 1483 1498 1482
f 1511 1507 1503
f 1452 1501 1422
f 1422 1502 1424
f 1436 1509 1438
f 1442 1512 1444
f 1426 1504 1428
f 1450 1514 1515
f 1432 1507 1434
f 1440 1509 1510
f 1444 1513 1446
f 1430 1504 1505
f 1452 1515 1516
f 1434 1508 1436
f 1440 1511 1442
f 1426 1502 1503
f 1448 1513 1514
f 1422 1424 1423
f 1424 1426 1425
f 1426 1428 1427
f 1428 1430 1429
f 1430 1432 1431
f 1432 1434 1433
f 1434 1436 1435
f 1436 1438 1437
f 1438 1440 1439
f 1440 1442 1441
f 1442 1444 1443
f 1444 1446 1445
f 1446 1448 1447
f 1448 1450 1449
f 1432 1430 1505
f 1452 1422 1421
f 1450 1452 1451
f 1439 1462 1461
f 1464 1480 1479
f 1443 1445 1465
f 1427 1429 1457
f 1451 1468 1467
f 1435 1460 1459
f 1439 1441 1463
f 1425 1455 1454
f 1445 1447 1466
f 1431 1458 1457
f 1421 1453 1468
f 1423 1454 1453
f 1437 1461 1460
f 1443 1464 1463
f 1425 1427 1456
f 1449 1467 1466
f 1433 1459 1458
f 1469 1470 1486
f 1462 1478 1477
f 1459 1460 1476
f 1458 1474 1473
f 1453 1469 1484
f 1456 1472 1471
f 1467 1483 1482
f 1453 1454 1470
f 1465 1481 1480
f 1463 1479 1478
f 1460 1461 1477
f 1458 1459 1475
f 1457 1473 1472
f 1468 1484 1483
f 1454 1455 1471
f 1465 1466 1482
f 1500 1485 1486
f 1486 1487 1488
f 1488 1489 1490
f 1490 1491 1492
f 1492 1493 1494
f 1494 1495 1496
f 1496 1497 1498
f 1498 1499 1500
f 1500 1486 1488
f 1488 1490 1500
f 1490 1492 1500
f 1492 1494 1500
f 1494 1496 1500
f 1481 1497 1496
f 1479 1495 1494
f 1477 1493 1492
f 1475 1491 1490
f 1473 1489 1488
f 1484 1500 1499
f 1471 1487 1486
f 1482 1498 1497
f 1480 1496 1495
f 1478 1494 1493
f 1476 1492 1491
f 1473 1474 1490
f 1469 1485 1500
f 1472 1488 1487
f 1483 1499 1498
f 1503 1502 1501
f 1501 1516 1515
f 1515 1514 1513
f 1513 1512 1511
f 1511 1510 1509
f 1509 1508 1507
f 1507 1506 1505
f 1505 1504 1503
f 1503 1501 1515
f 1515 1513 1503
f 1513 1511 1503
f 1511 1509 1507
f 1507 1505 1503
f 1452 1516 1501
f 1422 1501 1502
f 1436 1508 1509
f 1442 1511 1512
f 1426 1503 1504
f 1450 1448 1514
f 1432 1506 1507
f 1440 1438 1509
f 1444 1512 1513
f 1430 1428 1504
f 1452 1450 1515
f 1434 1507 1508
f 1440 1510 1511
f 1426 1424 1502
f 1448 1446 1513
