# Sci-fi chess by Drummyfish (CC0); converted for OTBMaster3D
v -10.4342117 3.6892135 -2.8051841
v -10.4342117 5.2197089 -2.8051841
v -10.4618254 3.6892135 -2.7573571
v -10.4618254 5.2197089 -2.7573571
v -10.5170507 3.6892135 -2.7573571
v -10.5170507 5.2197089 -2.7573571
v -10.5446634 3.6892135 -2.8051841
v -10.5446634 5.2197089 -2.8051841
v -10.5170507 3.6892135 -2.8530111
v -10.5170507 5.2197089 -2.8530111
v -10.4618254 3.6892135 -2.8530111
v -10.4618254 5.2197089 -2.8530111
v -10.4342117 3.5958459 -2.7808123
v -10.4618254 3.6236451 -2.7418938
v -10.5170507 3.6236451 -2.7418938
v -10.5446634 3.5958459 -2.7808123
v -10.5170507 3.5680473 -2.8197305
v -10.4618254 3.5680473 -2.8197305
v -10.4342117 3.5519199 -2.7210584
v -10.4618254 3.5956855 -2.7017713
v -10.5170507 3.5956855 -2.7017713
v -10.5446634 3.5519199 -2.7210584
v -10.5170507 3.5081546 -2.7403455
v -10.4618254 3.5081546 -2.7403455
v -10.4342117 3.5427856 -2.6314096
v -10.4618254 3.5905676 -2.6293359
v -10.5170507 3.5905676 -2.6293359
v -10.5446634 3.5427856 -2.6314096
v -10.5170507 3.4950039 -2.6334839
v -10.4618254 3.4950039 -2.6334839
v -10.4342117 3.5259922 -2.2444983
v -10.4618254 3.5737741 -2.2424245
v -10.5170507 3.5737741 -2.2424245
v -10.5446634 3.5259922 -2.2444983
v -10.5170507 3.4782104 -2.2465725
v -10.4618254 3.4782104 -2.2465725
v -10.4342117 3.4712496 -2.1010792
v -10.4618254 3.5156076 -2.0831971
v -10.5170507 3.5156076 -2.0831971
v -10.5446634 3.4712496 -2.1010792
v -10.5170507 3.4268916 -2.1189616
v -10.4618254 3.4268916 -2.1189616
v -10.4342117 3.3300838 -1.9547923
v -10.4618254 3.3679216 -1.9255395
v -10.5170507 3.3679216 -1.9255395
v -10.5446634 3.3300838 -1.9547923
v -10.5170507 3.2922466 -1.9840450
v -10.4618254 3.2922466 -1.9840450
v -10.4342117 3.1360750 -1.8507664
v -10.4618254 3.1649983 -1.8126767
v -10.5170507 3.1649983 -1.8126767
v -10.5446634 3.1360750 -1.8507664
v -10.5170507 3.1071517 -1.8888566
v -10.4618254 3.1071517 -1.8888566
v -10.4342117 2.8939099 -1.8125086
v -10.4618254 2.9000349 -1.7650757
v -10.5170507 2.9000349 -1.7650757
v -10.5446634 2.8939099 -1.8125086
v -10.5170507 2.8877857 -1.8599420
v -10.4618254 2.8877857 -1.8599420
v -10.4342117 2.6112540 -1.7959774
v -10.4618254 2.6134601 -1.7482011
v -10.5170507 2.6134601 -1.7482011
v -10.5446634 2.6112540 -1.7959774
v -10.5170507 2.6090479 -1.8437531
v -10.4618254 2.6090479 -1.8437531
v -10.4342117 2.3944054 -1.7859640
v -10.4618254 2.3966117 -1.7381880
v -10.5170507 2.3966117 -1.7381880
v -10.5446634 2.3944054 -1.7859640
v -10.5170507 2.3921995 -1.8337400
v -10.4618254 2.3921995 -1.8337400
v -10.4817352 2.2917361 -1.7826045
v -10.5037537 2.3085456 -1.7348287
v -10.5501785 2.3384552 -1.7348287
v -10.5745859 2.3515553 -1.7826045
v -10.5525675 2.3347461 -1.8303807
v -10.5061426 2.3048363 -1.8303807
v -10.5916395 2.2323017 -1.7792430
v -10.5995998 2.2588344 -1.7314672
v -10.6196308 2.3102989 -1.7314672
v -10.6317024 2.3352311 -1.7792430
v -10.6237431 2.3086987 -1.8270192
v -10.6037111 2.2572341 -1.8270192
v -10.7126932 2.2274122 -1.7744761
v -10.7080898 2.2547278 -1.7266998
v -10.7032776 2.3097434 -1.7266998
v -10.7030697 2.3374438 -1.7744761
v -10.7076731 2.3101280 -1.8222518
v -10.7124853 2.2551126 -1.8222518
v -9.9207582 3.4587131 -4.2007551
v -9.9207582 3.8023422 -4.2007551
v -9.9423990 3.4587131 -4.1632714
v -9.9423990 3.8023422 -4.1632714
v -9.9856815 3.4587131 -4.1632714
v -9.9856815 3.8023422 -4.1632714
v -10.0073233 3.4587131 -4.2007551
v -10.0073233 3.8023422 -4.2007551
v -9.9856815 3.4587131 -4.2382388
v -9.9856815 3.8023422 -4.2382388
v -9.9423990 3.4587131 -4.2382388
v -9.9423990 3.8023422 -4.2382388
v -10.2446003 5.4863400 -2.4038022
v -10.4132900 5.4863400 -2.4038022
v -10.2446003 5.4614167 -2.3899312
v -10.4132900 5.4614167 -2.3899312
v -10.2446003 5.4369426 -2.4045796
v -10.4132900 5.4369426 -2.4045796
v -10.2446003 5.4373913 -2.4330993
v -10.4132900 5.4373913 -2.4330993
v -10.2446003 5.4623146 -2.4469702
v -10.4132900 5.4623146 -2.4469702
v -10.2446003 5.4867887 -2.4323215
v -10.4132900 5.4867887 -2.4323215
v -10.0430698 5.2382193 -4.8668733
v -10.2550697 6.1601744 -3.4993949
v -10.0430698 6.1507878 -3.4923487
v -10.2550697 5.7040987 -3.0342376
v -10.0430698 5.7409029 -4.8046494
v -10.0430698 5.1778173 -2.9135511
v -10.0430698 6.4937153 -3.6747093
v -10.0430698 6.2236271 -4.5907049
v -10.0430698 5.3092833 -2.9166670
v -10.2550697 6.5003777 -3.6797104
v -10.0430698 6.1507878 -3.4923487
v -10.2550697 6.1601744 -3.4993949
v -10.0430698 6.6157885 -4.2948704
v -10.0430698 5.4044371 -2.8844380
v -10.0430698 5.9028549 -3.2739658
v -10.2550697 5.9043603 -3.2750957
v -10.0430698 6.9635344 -3.8582783
v -10.0430698 5.4888859 -2.8441615
v -10.2550697 6.8070083 -3.7856195
v -10.2550697 5.5504417 -2.7975278
v -10.0430698 5.5504417 -2.7975278
v -10.6340561 5.1778173 -2.9135511
v -10.2550697 5.2927451 -4.6983938
v -10.2550697 6.8070083 -3.8197014
v -10.2550697 5.7163706 -4.5201974
v -10.0430698 2.3344643 -4.8668733
v -10.2550697 6.0638275 -4.3561931
v -10.0430698 5.2382193 -4.8668733
v -10.2550697 6.3356686 -4.1958961
v -10.2550697 6.5572262 -4.0529509
v -10.0430698 5.1794496 -2.3566732
v -10.0430698 5.3109155 -2.3568149
v -10.0430698 6.9635344 -3.8582783
v -10.0430698 5.7063160 -3.0359020
v -10.0430698 5.4060688 -2.3573012
v -10.2550697 5.3546972 -2.3568149
v -10.0430698 2.3344643 -4.8668733
v -10.2550697 5.2943773 -2.3560901
v -10.0430698 5.7063160 -3.0359020
v -10.2550697 5.7040987 -3.0342376
v -10.0430698 5.4905181 -2.3556881
v -10.2550697 5.4060688 -2.3573012
v -10.2550697 6.9629717 -3.8522818
v -10.2550697 6.9629717 -3.8522818
v -10.2550697 5.5520740 -2.3566403
v -10.0430698 5.5520740 -2.3566403
v -10.2550697 5.4905181 -2.3556881
v -10.6340370 3.4751310 -2.9135511
v -10.2550697 6.5003777 -3.6797104
v -10.5743561 3.3963480 -2.0828066
v -10.0430698 6.4937153 -3.6747093
v -10.0443668 3.1105273 -4.8668733
v -10.0443668 3.4665368 -4.4659591
v -10.0443668 3.3969524 -4.6683583
v -10.0443668 3.2765219 -4.7958755
v -10.2550697 5.2927451 -4.6983938
v -10.2550697 6.8070083 -3.8197014
v -10.2550697 5.7163706 -4.5201974
v -10.2550697 6.0638275 -4.3561931
v -10.2550697 6.3356686 -4.1958961
v -10.2550697 6.5572262 -4.0529509
v -10.0430698 5.7409029 -4.8046494
v -10.0430698 6.2236271 -4.5907049
v -10.0430698 6.6157885 -4.2948704
v -10.0430698 6.9635344 -3.8582783
v -10.0443668 3.1105273 -4.8668733
v -10.0437183 3.4707956 -2.9135511
v -10.0430698 6.9635344 -3.8582783
v -10.0430698 5.5504417 -2.7975278
v -10.2550697 5.5504417 -2.7975278
v -10.2550697 6.8070083 -3.7856195
v -10.2550697 5.9043603 -3.2750957
v -10.0430698 5.9028549 -3.2739658
v -10.0443668 3.1105273 -4.8668733
v -10.0443668 3.4665368 -4.4659591
v -10.0443668 3.3969524 -4.6683583
v -10.0443668 3.2765219 -4.7958755
v -10.6340513 4.7181339 -2.9135511
v -10.6340523 4.8185315 -2.9135511
v -10.2567081 3.8090830 -2.9135511
v -10.2567091 3.9065108 -2.9135511
v -10.6340523 4.8185325 -2.6764200
v -10.6340513 4.7172551 -2.6764200
v -10.2567148 4.3509984 -2.9135511
v -10.2567139 4.2548060 -2.9135511
v -10.6340456 4.2548018 -2.9135511
v -10.6340466 4.3509941 -2.9135511
v -10.6340466 4.3509941 -2.6725006
v -10.6340456 4.2539225 -2.6725006
v -10.6340408 3.8090787 -2.9135511
v -10.6340418 3.9065065 -2.9135511
v -10.6340418 3.9065065 -2.6767178
v -10.6340408 3.8090787 -2.6767178
v -10.2567196 4.8185358 -2.9135511
v -10.2567196 4.7181382 -2.9135511
v -10.3712521 4.2542572 -2.8072543
v -10.4618979 4.2539258 -2.7166085
v -10.4618988 4.3509974 -2.7166085
v -10.3712530 4.3509984 -2.8072543
v -10.4618931 3.9065099 -2.7208257
v -10.3712473 3.9065108 -2.8114719
v -10.3712463 3.8090830 -2.8114719
v -10.4618921 3.8090818 -2.7208257
v -10.3712568 4.7175956 -2.8111739
v -10.4619036 4.7172585 -2.7205279
v -10.4619045 4.8185358 -2.7205279
v -10.3712578 4.8185363 -2.8111739
v -10.4462347 5.4863400 -2.4038022
v -10.4462347 5.4614167 -2.3899312
v -10.4462347 5.4369426 -2.4045796
v -10.4462347 5.4373913 -2.4330993
v -10.4462347 5.4623146 -2.4469702
v -10.4462347 5.4867887 -2.4323215
v -10.6291361 5.4863400 -2.4038022
v -10.6291361 5.4614167 -2.3899312
v -10.6291361 5.4369426 -2.4045796
v -10.6291361 5.4373913 -2.4330993
v -10.6291361 5.4623146 -2.4469702
v -10.6291361 5.4867887 -2.4323215
v -10.6632233 5.4863400 -2.4038022
v -10.6632233 5.4614167 -2.3899312
v -10.6632233 5.4369426 -2.4045796
v -10.6632233 5.4373913 -2.4330993
v -10.6632233 5.4623146 -2.4469702
v -10.6632233 5.4867887 -2.4323215
v -10.8518562 5.4863400 -2.4038022
v -10.8518562 5.4614167 -2.3899312
v -10.8518562 5.4369426 -2.4045796
v -10.8518562 5.4373913 -2.4330993
v -10.8518562 5.4623146 -2.4469702
v -10.8518562 5.4867887 -2.4323215
v -10.8932915 5.4863400 -2.4038022
v -10.8932915 5.4614167 -2.3899312
v -10.8932915 5.4369426 -2.4045796
v -10.8932915 5.4373913 -2.4330993
v -10.8932915 5.4623146 -2.4469702
v -10.8932915 5.4867887 -2.4323215
v -10.4132900 5.2887807 -2.4045796
v -10.4132900 5.2892294 -2.4330993
v -10.4462347 5.2887807 -2.4045796
v -10.4462347 5.2892294 -2.4330993
v -10.6291361 5.2887807 -2.4045796
v -10.6291361 5.2892294 -2.4330993
v -10.6632233 5.2887807 -2.4045796
v -10.6632233 5.2892294 -2.4330993
v -10.8518562 5.2887807 -2.4045796
v -10.8518562 5.2892294 -2.4330993
v -10.8932915 5.2887807 -2.4045796
v -10.8932915 5.2892294 -2.4330993
v -9.9207582 5.2520895 -4.2007551
v -9.9423990 5.2520895 -4.1632714
v -9.9856815 5.2520895 -4.1632714
v -10.0073233 5.2520895 -4.2007551
v -9.9856815 5.2520895 -4.2382388
v -9.9423990 5.2520895 -4.2382388
v -9.9207582 5.3175445 -4.1775074
v -9.9423990 5.2944593 -4.1479759
v -9.9856815 5.2944593 -4.1479759
v -10.0073233 5.3175445 -4.1775074
v -9.9856815 5.3406296 -4.2070389
v -9.9423990 5.3406296 -4.2070389
v -9.9207582 5.3526797 -4.1270905
v -9.9423990 5.3159285 -4.1197162
v -9.9856815 5.3159285 -4.1197162
v -10.0073233 5.3526797 -4.1270905
v -9.9856815 5.3894310 -4.1344647
v -9.9423990 5.3894310 -4.1344647
v -9.9207582 5.3675032 -4.0532150
v -9.9423990 5.3300343 -4.0542731
v -9.9856815 5.3300343 -4.0542731
v -10.0073233 5.3675032 -4.0532150
v -9.9856815 5.4049721 -4.0521564
v -9.9423990 5.4049721 -4.0521564
v -9.9207582 5.3688855 -3.9527638
v -9.9423990 5.3338909 -3.9393318
v -9.9856815 5.3338909 -3.9393318
v -10.0073233 5.3688855 -3.9527638
v -9.9856815 5.4038801 -3.9661956
v -9.9423990 5.4038801 -3.9661956
v -9.9207582 5.4077969 -3.8853900
v -9.9423990 5.3804541 -3.8597500
v -9.9856815 5.3804541 -3.8597500
v -10.0073233 5.4077969 -3.8853900
v -9.9856815 5.4351397 -3.9110298
v -9.9423990 5.4351397 -3.9110298
v -9.9207582 5.4683795 -3.8443222
v -9.9423990 5.4567175 -3.8086991
v -9.9856815 5.4567175 -3.8086991
v -10.0073233 5.4683795 -3.8443222
v -9.9856815 5.4800420 -3.8799455
v -9.9423990 5.4800420 -3.8799455
v -9.9207582 5.5504680 -3.8294749
v -9.9423990 5.5495090 -3.7920036
v -9.9856815 5.5495090 -3.7920036
v -10.0073233 5.5504680 -3.8294749
v -9.9856815 5.5514269 -3.8669465
v -9.9423990 5.5514269 -3.8669465
v -9.9207582 6.7316675 -3.7954888
v -9.9423990 6.7307086 -3.7580175
v -9.9856815 6.7307086 -3.7580175
v -10.0073233 6.7316675 -3.7954888
v -9.9856815 6.7326269 -3.8329604
v -9.9423990 6.7326269 -3.8329604
v -9.9207582 6.8736525 -3.7870655
v -9.9423990 6.8414607 -3.7563131
v -9.9856815 6.8414607 -3.7563131
v -10.0073233 6.8736525 -3.7870655
v -9.9856815 6.8866625 -3.8150518
v -9.9423990 6.8866625 -3.8150518
v -9.9460678 6.9221878 -3.7613578
v -9.9531345 6.8878183 -3.7409449
v -9.9847708 6.8711700 -3.7504578
v -10.0093412 6.8888922 -3.7803836
v -10.0022755 6.9232616 -3.7921016
v -9.9706383 6.9399099 -3.7825885
v -9.9889936 6.9499788 -3.7199922
v -9.9912920 6.9138794 -3.7122436
v -10.0050011 6.8904104 -3.7373400
v -10.0164108 6.9030418 -3.7701848
v -10.0141125 6.9391418 -3.7779334
v -10.0004034 6.9626102 -3.7528369
v -10.0816803 6.9618559 -3.7168577
v -10.0828981 6.9253869 -3.7107723
v -10.0822430 6.9018421 -3.7392988
v -10.0803690 6.9147663 -3.7739103
v -10.0791512 6.9512358 -3.7799959
v -10.0798063 6.9747810 -3.7514694
v -10.6578493 5.1778173 -2.5868223
v -10.6340561 5.1778173 -2.6106153
v -10.6340370 3.4751310 -2.6106153
v -10.6578293 3.4752159 -2.5868223
v -9.8028278 3.4709718 -2.2585838
v -9.7451849 3.3850877 -2.2668476
v -9.7451849 3.3169422 -2.1109705
v -9.8028278 3.3941255 -2.0828066
v -9.8028288 2.3344643 -4.8668733
v -9.7451849 2.3344643 -4.8092294
v -9.8028278 3.2226627 -1.9485986
v -9.7451849 3.1713085 -1.9969797
v -9.7451849 2.3344643 -1.9233819
v -9.8028288 2.3346069 -1.8657379
v -9.8028288 2.9107037 -1.8657379
v -9.7451849 2.8942232 -1.9233819
v -9.8028288 3.1105273 -4.8668733
v -9.7451849 3.0855916 -4.8092294
v -9.8028288 3.4665368 -4.4659591
v -9.7451849 3.3808577 -4.4593434
v -9.8028288 3.3969524 -4.6683583
v -9.7451849 3.3167658 -4.6457667
v -9.8028288 3.2765219 -4.7958755
v -9.7451849 3.2144313 -4.7541232
v -10.2550697 6.9629717 -3.8522818
v -10.2550697 5.5520740 -2.3566403
v -10.0430698 5.5520740 -2.3566403
v -10.5734339 2.3509994 -1.8637156
v -10.5734339 3.4732378 -2.2585840
v -10.5760841 3.2249446 -1.9485986
v -10.5750360 2.9130547 -1.8657379
v -10.0430698 2.1814303 -4.8668733
v -10.0430698 2.1814303 -4.8668733
v -9.8028288 2.1814303 -4.8668733
v -9.7451849 2.1814303 -4.8092294
v -9.7451849 2.1814303 -1.9233819
v -9.8028288 2.1815729 -1.8657379
v -10.5734339 2.1979654 -1.8637156
v -10.5743561 3.3963480 -2.0828066
v -10.5734339 2.3509994 -1.8637156
v -10.5734339 3.4732378 -2.2585840
v -10.5760841 3.2249446 -1.9485986
v -10.5750360 2.9130547 -1.8657379
v -10.5734339 2.3509994 -2.2585840
v -9.7451849 3.3850877 -2.2668476
v -9.7451849 3.3169422 -2.1109705
v -9.7451849 2.3344643 -4.8092294
v -9.7451849 3.1713085 -1.9969797
v -9.7451849 2.3344643 -1.9233819
v -9.7451849 2.8942232 -1.9233819
v -9.7451849 3.0855916 -4.8092294
v -9.7451849 3.3808577 -4.4593434
v -9.7451849 3.3167658 -4.6457667
v -9.7451849 3.2144313 -4.7541232
v -9.7451849 2.1814303 -4.8092294
v -9.7451849 2.1814303 -1.9233819
v -9.7451849 2.1814303 -4.4662418
v -9.7451849 2.1814303 -2.2415719
v -9.7451849 2.4331365 -2.3200026
v -9.7451849 2.6008663 -2.4849572
v -9.7451849 2.6891570 -2.7183714
v -9.7451849 2.6838171 -3.9307477
v -9.7451849 2.5971675 -4.1924901
v -9.7451849 2.4081092 -4.3938365
v -10.0753489 3.4505091 -2.9244311
v -10.0430698 2.1814303 -4.8668733
v -10.0430698 2.1814303 -4.8668733
v -9.8028288 2.1814303 -4.8668733
v -9.7451849 2.1814303 -4.8092294
v -9.7451849 2.1814303 -1.9233819
v -9.8028288 2.1815729 -1.8657379
v -10.5734339 2.1979654 -1.8637156
v -9.7451849 2.1814303 -4.8092294
v -9.7451849 2.1814303 -1.9233819
v -9.7451849 2.1814303 -4.4662418
v -9.7451849 2.1814303 -2.2415719
v -9.7451849 2.4331365 -2.3200026
v -9.7451849 2.6008663 -2.4849572
v -9.7451849 2.6891570 -2.7183714
v -9.7451849 2.6838171 -3.9307477
v -9.7451849 2.5971675 -4.1924901
v -9.7451849 2.4081092 -4.3938365
v -10.0747156 2.1923709 -4.8304462
v -10.0747156 2.1923709 -4.8304462
v -9.8402920 2.1923709 -4.8304462
v -9.7840443 2.1923709 -4.7741985
v -9.7840443 2.1923709 -1.9582427
v -9.8402920 2.1925101 -1.9019947
v -10.5922346 2.2085054 -1.9000212
v -9.7840443 2.1923709 -4.7741985
v -9.7840443 2.1923709 -1.9582427
v -9.7840443 2.1923709 -4.4395175
v -9.7840443 2.1923709 -2.2687263
v -9.7840443 2.4379811 -2.3452575
v -9.7840443 2.6016486 -2.5062172
v -9.7840443 2.6878009 -2.7339783
v -9.7840443 2.6825902 -3.9169924
v -9.7840443 2.5980392 -4.1723957
v -9.7840443 2.4135597 -4.3688655
v -10.6273041 5.2938609 -3.0973303
v -10.6250792 5.2933922 -3.7598219
v -10.6909666 5.2938614 -3.0962820
v -10.6959705 6.0690956 -3.1959522
v -10.6925993 5.2937918 -3.1954634
v -10.6943378 6.0691652 -3.0967708
v -10.6416931 6.1255903 -3.7604446
v -10.6250715 6.1008816 -3.7603891
v -10.6272964 6.1013498 -3.0978973
v -10.6439190 6.1260595 -3.0976410
v -10.6273041 5.2938609 -3.0973303
v -10.6250792 5.2933922 -3.7598219
v -10.6416931 6.1255903 -3.7604446
v -10.6250715 6.1008816 -3.7603891
v -10.6272964 6.1013498 -3.0978973
v -10.6439190 6.1260595 -3.0976410
v -10.7247877 6.1259832 -3.2071207
v -10.7216063 6.1257229 -3.6548870
v -10.7216063 5.9831038 -3.6548870
v -10.7247877 5.9833641 -3.2071207
v -10.7247877 6.1259832 -3.2071207
v -10.7216063 6.1257229 -3.6548870
v -11.6052513 3.6892135 -2.8051841
v -11.6052513 5.2197089 -2.8051841
v -11.5776377 3.6892135 -2.7573571
v -11.5776377 5.2197089 -2.7573571
v -11.5224123 3.6892135 -2.7573571
v -11.5224123 5.2197089 -2.7573571
v -11.4947996 3.6892135 -2.8051841
v -11.4947996 5.2197089 -2.8051841
v -11.5224123 3.6892135 -2.8530111
v -11.5224123 5.2197089 -2.8530111
v -11.5776377 3.6892135 -2.8530111
v -11.5776377 5.2197089 -2.8530111
v -11.6052513 3.5958459 -2.7808123
v -11.5776377 3.6236451 -2.7418938
v -11.5224123 3.6236451 -2.7418938
v -11.4947996 3.5958459 -2.7808123
v -11.5224123 3.5680473 -2.8197305
v -11.5776377 3.5680473 -2.8197305
v -11.6052513 3.5519199 -2.7210584
v -11.5776377 3.5956855 -2.7017713
v -11.5224123 3.5956855 -2.7017713
v -11.4947996 3.5519199 -2.7210584
v -11.5224123 3.5081546 -2.7403455
v -11.5776377 3.5081546 -2.7403455
v -11.6052513 3.5427856 -2.6314096
v -11.5776377 3.5905676 -2.6293359
v -11.5224123 3.5905676 -2.6293359
v -11.4947996 3.5427856 -2.6314096
v -11.5224123 3.4950039 -2.6334839
v -11.5776377 3.4950039 -2.6334839
v -11.6052513 3.5259922 -2.2444983
v -11.5776377 3.5737741 -2.2424245
v -11.5224123 3.5737741 -2.2424245
v -11.4947996 3.5259922 -2.2444983
v -11.5224123 3.4782104 -2.2465725
v -11.5776377 3.4782104 -2.2465725
v -11.6052513 3.4712496 -2.1010792
v -11.5776377 3.5156076 -2.0831971
v -11.5224123 3.5156076 -2.0831971
v -11.4947996 3.4712496 -2.1010792
v -11.5224123 3.4268916 -2.1189616
v -11.5776377 3.4268916 -2.1189616
v -11.6052513 3.3300838 -1.9547923
v -11.5776377 3.3679216 -1.9255395
v -11.5224123 3.3679216 -1.9255395
v -11.4947996 3.3300838 -1.9547923
v -11.5224123 3.2922466 -1.9840450
v -11.5776377 3.2922466 -1.9840450
v -11.6052513 3.1360750 -1.8507664
v -11.5776377 3.1649983 -1.8126767
v -11.5224123 3.1649983 -1.8126767
v -11.4947996 3.1360750 -1.8507664
v -11.5224123 3.1071517 -1.8888566
v -11.5776377 3.1071517 -1.8888566
v -11.6052513 2.8939099 -1.8125086
v -11.5776377 2.9000349 -1.7650757
v -11.5224123 2.9000349 -1.7650757
v -11.4947996 2.8939099 -1.8125086
v -11.5224123 2.8877857 -1.8599420
v -11.5776377 2.8877857 -1.8599420
v -11.6052513 2.6112540 -1.7959774
v -11.5776377 2.6134601 -1.7482011
v -11.5224123 2.6134601 -1.7482011
v -11.4947996 2.6112540 -1.7959774
v -11.5224123 2.6090479 -1.8437531
v -11.5776377 2.6090479 -1.8437531
v -11.6052513 2.3944054 -1.7859640
v -11.5776377 2.3966117 -1.7381880
v -11.5224123 2.3966117 -1.7381880
v -11.4947996 2.3944054 -1.7859640
v -11.5224123 2.3921995 -1.8337400
v -11.5776377 2.3921995 -1.8337400
v -11.5577278 2.2917361 -1.7826045
v -11.5357094 2.3085456 -1.7348287
v -11.4892845 2.3384552 -1.7348287
v -11.4648771 2.3515553 -1.7826045
v -11.4868956 2.3347461 -1.8303807
v -11.5333204 2.3048363 -1.8303807
v -11.4478235 2.2323017 -1.7792430
v -11.4398632 2.2588344 -1.7314672
v -11.4198322 2.3102989 -1.7314672
v -11.4077606 2.3352311 -1.7792430
v -11.4157200 2.3086987 -1.8270192
v -11.4357519 2.2572341 -1.8270192
v -11.3267698 2.2274122 -1.7744761
v -11.3313732 2.2547278 -1.7266998
v -11.3361855 2.3097434 -1.7266998
v -11.3363934 2.3374438 -1.7744761
v -11.3317900 2.3101280 -1.8222518
v -11.3269777 2.2551126 -1.8222518
v -11.0197315 2.2332644 -1.7644725
v -11.0197315 2.2605801 -1.7166965
v -11.0197315 2.3155956 -1.7166965
v -11.0197315 2.3432958 -1.7644725
v -11.0197315 2.3159800 -1.8122482
v -11.0197315 2.2609646 -1.8122482
v -12.1187048 3.4587131 -4.2007551
v -12.1187048 3.8023422 -4.2007551
v -12.0970640 3.4587131 -4.1632714
v -12.0970640 3.8023422 -4.1632714
v -12.0537815 3.4587131 -4.1632714
v -12.0537815 3.8023422 -4.1632714
v -12.0321398 3.4587131 -4.2007551
v -12.0321398 3.8023422 -4.2007551
v -12.0537815 3.4587131 -4.2382388
v -12.0537815 3.8023422 -4.2382388
v -12.0970640 3.4587131 -4.2382388
v -12.0970640 3.8023422 -4.2382388
v -11.7948627 5.4863400 -2.4038022
v -11.6261730 5.4863400 -2.4038022
v -11.7948627 5.4614167 -2.3899312
v -11.6261730 5.4614167 -2.3899312
v -11.7948627 5.4369426 -2.4045796
v -11.6261730 5.4369426 -2.4045796
v -11.7948627 5.4373913 -2.4330993
v -11.6261730 5.4373913 -2.4330993
v -11.7948627 5.4623146 -2.4469702
v -11.6261730 5.4623146 -2.4469702
v -11.7948627 5.4867887 -2.4323215
v -11.6261730 5.4867887 -2.4323215
v -11.9963932 5.2382193 -4.8668733
v -11.7843933 6.1601744 -3.4993949
v -11.9963932 6.1507878 -3.4923487
v -11.7843933 5.7040987 -3.0342376
v -11.9963932 5.7409029 -4.8046494
v -11.9963932 5.1778173 -2.9135511
v -11.0197315 5.1778173 -2.9135511
v -11.9963932 6.4937153 -3.6747093
v -11.9963932 6.2236271 -4.5907049
v -11.9963932 5.3092833 -2.9166670
v -11.7843933 6.5003777 -3.6797104
v -11.9963932 6.1507878 -3.4923487
v -11.7843933 6.1601744 -3.4993949
v -11.9963932 6.6157885 -4.2948704
v -11.9963932 5.4044371 -2.8844380
v -11.9963932 5.9028549 -3.2739658
v -11.7843933 5.9043603 -3.2750957
v -11.9963932 6.9635344 -3.8582783
v -11.9963932 5.4888859 -2.8441615
v -11.0197315 6.9632530 -3.8552799
v -11.7843933 6.8070083 -3.7856195
v -11.7843933 5.5504417 -2.7975278
v -11.9963932 5.5504417 -2.7975278
v -11.0197315 6.8070083 -3.7856195
v -11.4054070 5.1778173 -2.9135511
v -11.0197315 5.2927451 -4.6983938
v -11.7843933 5.2927451 -4.6983938
v -11.7843933 6.8070083 -3.8197014
v -11.0197315 6.8070083 -3.8197014
v -11.0197315 2.3344643 -4.8668733
v -11.7843933 5.7163706 -4.5201974
v -11.9963932 2.3344643 -4.8668733
v -11.7843933 6.0638275 -4.3561931
v -11.9963932 5.2382193 -4.8668733
v -11.7843933 6.3356686 -4.1958961
v -11.0197315 5.2382193 -4.8668733
v -11.7843933 6.5572262 -4.0529509
v -11.9963932 5.1794496 -2.3566732
v -11.0197315 5.1794496 -2.3566732
v -11.9963932 5.3109155 -2.3568149
v -11.9963932 6.9635344 -3.8582783
v -11.9963932 5.7063160 -3.0359020
v -11.9963932 5.4060688 -2.3573012
v -11.7843933 5.3546972 -2.3568149
v -11.9963932 2.3344643 -4.8668733
v -11.7843933 5.2943773 -2.3560901
v -11.0197315 5.2943773 -2.3560901
v -11.9963932 5.7063160 -3.0359020
v -11.7843933 5.7040987 -3.0342376
v -11.9963932 5.4905181 -2.3556881
v -11.7843933 5.4060688 -2.3573012
v -11.7843933 6.9629717 -3.8522818
v -11.7843933 6.9629717 -3.8522818
v -11.7843933 5.5520740 -2.3566403
v -11.9963932 5.5520740 -2.3566403
v -11.7843933 5.4905181 -2.3556881
v -11.0197315 5.1778173 -2.5868223
v -11.0197315 3.4764581 -2.9135511
v -11.0197315 3.4764581 -2.5868223
v -11.4054260 3.4751310 -2.9135511
v -11.7843933 6.5003777 -3.6797104
v -11.4651070 3.3963480 -2.0828066
v -11.9963932 6.4937153 -3.6747093
v -11.9950962 3.1105273 -4.8668733
v -11.9950962 3.4665368 -4.4659591
v -11.9950962 3.3969524 -4.6683583
v -11.9950962 3.2765219 -4.7958755
v -11.0197315 5.2927451 -4.6983938
v -11.7843933 5.2927451 -4.6983938
v -11.7843933 6.8070083 -3.8197014
v -11.0197315 6.8070083 -3.8197014
v -11.0197315 5.7139645 -4.5319490
v -11.7843933 5.7163706 -4.5201974
v -11.0197315 6.0625658 -4.3621030
v -11.7843933 6.0638275 -4.3561931
v -11.0197315 6.3353591 -4.1978016
v -11.7843933 6.3356686 -4.1958961
v -11.0197315 6.5558949 -4.0519972
v -11.7843933 6.5572262 -4.0529509
v -11.0197315 5.7409029 -4.8046494
v -11.9963932 5.7409029 -4.8046494
v -11.9963932 6.2236271 -4.5907049
v -11.9963932 6.6157885 -4.2948704
v -11.9963932 6.9635344 -3.8582783
v -11.0197315 6.9632530 -3.8552799
v -11.0197315 6.6157885 -4.2948704
v -11.0197315 6.2236271 -4.5907049
v -11.9950962 3.1105273 -4.8668733
v -11.9957447 3.4707956 -2.9135511
v -11.9963932 6.9635344 -3.8582783
v -11.0197315 3.4746358 -2.2585840
v -11.0197315 6.8070083 -3.7856195
v -11.9963932 5.5504417 -2.7975278
v -11.7843933 5.5504417 -2.7975278
v -11.7843933 6.8070083 -3.7856195
v -11.0197315 6.9632530 -3.8552799
v -11.7843933 5.9043603 -3.2750957
v -11.9963932 5.9028549 -3.2739658
v -11.9950962 3.1105273 -4.8668733
v -11.9950962 3.4665368 -4.4659591
v -11.9950962 3.3969524 -4.6683583
v -11.9950962 3.2765219 -4.7958755
v -11.4054117 4.7181339 -2.9135511
v -11.4054108 4.8185315 -2.9135511
v -11.7827549 3.8090830 -2.9135511
v -11.7827539 3.9065108 -2.9135511
v -11.4054108 4.8185325 -2.6764200
v -11.4054117 4.7172551 -2.6764200
v -11.7827482 4.3509984 -2.9135511
v -11.7827492 4.2548060 -2.9135511
v -11.4054174 4.2548018 -2.9135511
v -11.4054165 4.3509941 -2.9135511
v -11.4054165 4.3509941 -2.6725006
v -11.4054174 4.2539225 -2.6725006
v -11.4054222 3.8090787 -2.9135511
v -11.4054213 3.9065065 -2.9135511
v -11.4054213 3.9065065 -2.6767178
v -11.4054222 3.8090787 -2.6767178
v -11.7827435 4.8185358 -2.9135511
v -11.7827435 4.7181382 -2.9135511
v -11.6682110 4.2542572 -2.8072543
v -11.5775652 4.2539258 -2.7166085
v -11.5775642 4.3509974 -2.7166085
v -11.6682100 4.3509984 -2.8072543
v -11.5775700 3.9065099 -2.7208257
v -11.6682158 3.9065108 -2.8114719
v -11.6682167 3.8090830 -2.8114719
v -11.5775709 3.8090818 -2.7208257
v -11.6682062 4.7175956 -2.8111739
v -11.5775595 4.7172585 -2.7205279
v -11.5775585 4.8185358 -2.7205279
v -11.6682053 4.8185363 -2.8111739
v -11.5932283 5.4863400 -2.4038022
v -11.5932283 5.4614167 -2.3899312
v -11.5932283 5.4369426 -2.4045796
v -11.5932283 5.4373913 -2.4330993
v -11.5932283 5.4623146 -2.4469702
v -11.5932283 5.4867887 -2.4323215
v -11.4103270 5.4863400 -2.4038022
v -11.4103270 5.4614167 -2.3899312
v -11.4103270 5.4369426 -2.4045796
v -11.4103270 5.4373913 -2.4330993
v -11.4103270 5.4623146 -2.4469702
v -11.4103270 5.4867887 -2.4323215
v -11.3762398 5.4863400 -2.4038022
v -11.3762398 5.4614167 -2.3899312
v -11.3762398 5.4369426 -2.4045796
v -11.3762398 5.4373913 -2.4330993
v -11.3762398 5.4623146 -2.4469702
v -11.3762398 5.4867887 -2.4323215
v -11.1876068 5.4863400 -2.4038022
v -11.1876068 5.4614167 -2.3899312
v -11.1876068 5.4369426 -2.4045796
v -11.1876068 5.4373913 -2.4330993
v -11.1876068 5.4623146 -2.4469702
v -11.1876068 5.4867887 -2.4323215
v -11.1461716 5.4863400 -2.4038022
v -11.1461716 5.4614167 -2.3899312
v -11.1461716 5.4369426 -2.4045796
v -11.1461716 5.4373913 -2.4330993
v -11.1461716 5.4623146 -2.4469702
v -11.1461716 5.4867887 -2.4323215
v -11.0197315 5.4863400 -2.4038022
v -11.0197315 5.4614167 -2.3899312
v -11.0197315 5.4369426 -2.4045796
v -11.0197315 5.4373913 -2.4330993
v -11.0197315 5.4623146 -2.4469702
v -11.0197315 5.4867887 -2.4323215
v -11.6261730 5.2887807 -2.4045796
v -11.6261730 5.2892294 -2.4330993
v -11.5932283 5.2887807 -2.4045796
v -11.5932283 5.2892294 -2.4330993
v -11.4103270 5.2887807 -2.4045796
v -11.4103270 5.2892294 -2.4330993
v -11.3762398 5.2887807 -2.4045796
v -11.3762398 5.2892294 -2.4330993
v -11.1876068 5.2887807 -2.4045796
v -11.1876068 5.2892294 -2.4330993
v -11.1461716 5.2887807 -2.4045796
v -11.1461716 5.2892294 -2.4330993
v -12.1187048 5.2520895 -4.2007551
v -12.0970640 5.2520895 -4.1632714
v -12.0537815 5.2520895 -4.1632714
v -12.0321398 5.2520895 -4.2007551
v -12.0537815 5.2520895 -4.2382388
v -12.0970640 5.2520895 -4.2382388
v -12.1187048 5.3175445 -4.1775074
v -12.0970640 5.2944593 -4.1479759
v -12.0537815 5.2944593 -4.1479759
v -12.0321398 5.3175445 -4.1775074
v -12.0537815 5.3406296 -4.2070389
v -12.0970640 5.3406296 -4.2070389
v -12.1187048 5.3526797 -4.1270905
v -12.0970640 5.3159285 -4.1197162
v -12.0537815 5.3159285 -4.1197162
v -12.0321398 5.3526797 -4.1270905
v -12.0537815 5.3894310 -4.1344647
v -12.0970640 5.3894310 -4.1344647
v -12.1187048 5.3675032 -4.0532150
v -12.0970640 5.3300343 -4.0542731
v -12.0537815 5.3300343 -4.0542731
v -12.0321398 5.3675032 -4.0532150
v -12.0537815 5.4049721 -4.0521564
v -12.0970640 5.4049721 -4.0521564
v -12.1187048 5.3688855 -3.9527638
v -12.0970640 5.3338909 -3.9393318
v -12.0537815 5.3338909 -3.9393318
v -12.0321398 5.3688855 -3.9527638
v -12.0537815 5.4038801 -3.9661956
v -12.0970640 5.4038801 -3.9661956
v -12.1187048 5.4077969 -3.8853900
v -12.0970640 5.3804541 -3.8597500
v -12.0537815 5.3804541 -3.8597500
v -12.0321398 5.4077969 -3.8853900
v -12.0537815 5.4351397 -3.9110298
v -12.0970640 5.4351397 -3.9110298
v -12.1187048 5.4683795 -3.8443222
v -12.0970640 5.4567175 -3.8086991
v -12.0537815 5.4567175 -3.8086991
v -12.0321398 5.4683795 -3.8443222
v -12.0537815 5.4800420 -3.8799455
v -12.0970640 5.4800420 -3.8799455
v -12.1187048 5.5504680 -3.8294749
v -12.0970640 5.5495090 -3.7920036
v -12.0537815 5.5495090 -3.7920036
v -12.0321398 5.5504680 -3.8294749
v -12.0537815 5.5514269 -3.8669465
v -12.0970640 5.5514269 -3.8669465
v -12.1187048 6.7316675 -3.7954888
v -12.0970640 6.7307086 -3.7580175
v -12.0537815 6.7307086 -3.7580175
v -12.0321398 6.7316675 -3.7954888
v -12.0537815 6.7326269 -3.8329604
v -12.0970640 6.7326269 -3.8329604
v -12.1187048 6.8736525 -3.7870655
v -12.0970640 6.8414607 -3.7563131
v -12.0537815 6.8414607 -3.7563131
v -12.0321398 6.8736525 -3.7870655
v -12.0537815 6.8866625 -3.8150518
v -12.0970640 6.8866625 -3.8150518
v -12.0933952 6.9221878 -3.7613578
v -12.0863285 6.8878183 -3.7409449
v -12.0546923 6.8711700 -3.7504578
v -12.0301218 6.8888922 -3.7803836
v -12.0371876 6.9232616 -3.7921016
v -12.0688248 6.9399099 -3.7825885
v -12.0504694 6.9499788 -3.7199922
v -12.0481710 6.9138794 -3.7122436
v -12.0344620 6.8904104 -3.7373400
v -12.0230522 6.9030418 -3.7701848
v -12.0253506 6.9391418 -3.7779334
v -12.0390596 6.9626102 -3.7528369
v -11.9577827 6.9618559 -3.7168577
v -11.9565649 6.9253869 -3.7107723
v -11.9572201 6.9018421 -3.7392988
v -11.9590940 6.9147663 -3.7739103
v -11.9603119 6.9512358 -3.7799959
v -11.9596567 6.9747810 -3.7514694
v -11.0197315 6.9801226 -3.7135613
v -11.0197315 6.9436536 -3.7074759
v -11.0197315 6.9201088 -3.7360024
v -11.0197315 6.9330330 -3.7706139
v -11.0197315 6.9695024 -3.7766995
v -11.0197315 6.9930477 -3.7481730
v -11.3816137 5.1778173 -2.5868223
v -11.4054070 5.1778173 -2.6106153
v -11.4054260 3.4751310 -2.6106153
v -11.3816338 3.4752159 -2.5868223
v -11.0197315 3.4707956 -2.9135511
v -12.2366352 3.4709718 -2.2585838
v -12.2942781 3.3850877 -2.2668476
v -12.2942781 3.3169422 -2.1109705
v -12.2366352 3.3941255 -2.0828066
v -12.2366343 2.3344643 -4.8668733
v -12.2942781 2.3344643 -4.8092294
v -12.2366352 3.2226627 -1.9485986
v -12.2942781 3.1713085 -1.9969797
v -12.2942781 2.3344643 -1.9233819
v -12.2366343 2.3346069 -1.8657379
v -12.2366343 2.9107037 -1.8657379
v -12.2942781 2.8942232 -1.9233819
v -12.2366343 3.1105273 -4.8668733
v -12.2942781 3.0855916 -4.8092294
v -12.2366343 3.4665368 -4.4659591
v -12.2942781 3.3808577 -4.4593434
v -12.2366343 3.3969524 -4.6683583
v -12.2942781 3.3167658 -4.6457667
v -12.2366343 3.2765219 -4.7958755
v -12.2942781 3.2144313 -4.7541232
v -11.7843933 6.9629717 -3.8522818
v -11.7843933 5.5520740 -2.3566403
v -11.9963932 5.5520740 -2.3566403
v -11.4660292 2.3509994 -1.8637156
v -11.4660292 3.4732378 -2.2585840
v -11.4633789 3.2249446 -1.9485986
v -11.4644270 2.9130547 -1.8657379
v -11.0197315 2.3523974 -1.8637156
v -11.0197315 2.1814303 -4.8668733
v -11.9963932 2.1814303 -4.8668733
v -11.9963932 2.1814303 -4.8668733
v -12.2366343 2.1814303 -4.8668733
v -12.2942781 2.1814303 -4.8092294
v -12.2942781 2.1814303 -1.9233819
v -12.2366343 2.1815729 -1.8657379
v -11.4660292 2.1979654 -1.8637156
v -11.0197315 2.1993635 -1.8637156
v -11.4651070 3.3963480 -2.0828066
v -11.0197315 3.4746358 -2.2585840
v -11.4660292 2.3509994 -1.8637156
v -11.4660292 3.4732378 -2.2585840
v -11.4633789 3.2249446 -1.9485986
v -11.4644270 2.9130547 -1.8657379
v -11.0197315 2.3523974 -1.8637156
v -11.0197315 2.3523974 -2.2585840
v -11.4660292 2.3509994 -2.2585840
v -12.2942781 3.3850877 -2.2668476
v -12.2942781 3.3169422 -2.1109705
v -12.2942781 2.3344643 -4.8092294
v -12.2942781 3.1713085 -1.9969797
v -12.2942781 2.3344643 -1.9233819
v -12.2942781 2.8942232 -1.9233819
v -12.2942781 3.0855916 -4.8092294
v -12.2942781 3.3808577 -4.4593434
v -12.2942781 3.3167658 -4.6457667
v -12.2942781 3.2144313 -4.7541232
v -12.2942781 2.1814303 -4.8092294
v -12.2942781 2.1814303 -1.9233819
v -12.2942781 2.1814303 -4.4662418
v -12.2942781 2.1814303 -2.2415719
v -12.2942781 2.4331365 -2.3200026
v -12.2942781 2.6008663 -2.4849572
v -12.2942781 2.6891570 -2.7183714
v -12.2942781 2.6838171 -3.9307477
v -12.2942781 2.5971675 -4.1924901
v -12.2942781 2.4081092 -4.3938365
v -11.9641142 3.4505091 -2.9244311
v -11.0197315 3.4542563 -2.2853265
v -11.0197315 2.1814303 -4.8668733
v -11.9963932 2.1814303 -4.8668733
v -11.9963932 2.1814303 -4.8668733
v -12.2366343 2.1814303 -4.8668733
v -12.2942781 2.1814303 -4.8092294
v -12.2942781 2.1814303 -1.9233819
v -12.2366343 2.1815729 -1.8657379
v -11.4660292 2.1979654 -1.8637156
v -12.2942781 2.1814303 -4.8092294
v -12.2942781 2.1814303 -1.9233819
v -12.2942781 2.1814303 -4.4662418
v -12.2942781 2.1814303 -2.2415719
v -12.2942781 2.4331365 -2.3200026
v -12.2942781 2.6008663 -2.4849572
v -12.2942781 2.6891570 -2.7183714
v -12.2942781 2.6838171 -3.9307477
v -12.2942781 2.5971675 -4.1924901
v -12.2942781 2.4081092 -4.3938365
v -11.0197315 2.1923709 -4.8304462
v -11.9647474 2.1923709 -4.8304462
v -11.9647474 2.1923709 -4.8304462
v -12.1991711 2.1923709 -4.8304462
v -12.2554188 2.1923709 -4.7741985
v -12.2554188 2.1923709 -1.9582427
v -12.1991711 2.1925101 -1.9019947
v -11.4472284 2.2085054 -1.9000212
v -12.2554188 2.1923709 -4.7741985
v -12.2554188 2.1923709 -1.9582427
v -12.2554188 2.1923709 -4.4395175
v -12.2554188 2.1923709 -2.2687263
v -12.2554188 2.4379811 -2.3452575
v -12.2554188 2.6016486 -2.5062172
v -12.2554188 2.6878009 -2.7339783
v -12.2554188 2.6825902 -3.9169924
v -12.2554188 2.5980392 -4.1723957
v -12.2554188 2.4135597 -4.3688655
v -11.0197315 5.2933989 -3.7606966
v -11.0197315 5.2938652 -3.0911150
v -11.0197315 6.1255970 -3.7612810
v -11.0197315 6.1260633 -3.0916991
v -11.0197315 6.1260633 -3.0916991
v -11.0197315 6.1255970 -3.7612810
v -11.4121590 5.2938609 -3.0973303
v -11.4143839 5.2933922 -3.7598219
v -11.0197315 6.0735116 -3.0916624
v -11.3484964 5.2938614 -3.0962820
v -11.3434925 6.0690956 -3.1959522
v -11.3468637 5.2937918 -3.1954634
v -11.0197315 6.0734425 -3.1908436
v -11.0197315 5.2937956 -3.1902962
v -11.3451252 6.0691652 -3.0967708
v -11.3977699 6.1255903 -3.7604446
v -11.4143915 6.1008816 -3.7603891
v -11.4121666 6.1013498 -3.0978973
v -11.3955441 6.1260595 -3.0976410
v -11.4121590 5.2938609 -3.0973303
v -11.4143839 5.2933922 -3.7598219
v -11.3977699 6.1255903 -3.7604446
v -11.4143915 6.1008816 -3.7603891
v -11.4121666 6.1013498 -3.0978973
v -11.3955441 6.1260595 -3.0976410
v -11.0197315 6.1259832 -3.2068167
v -11.0197315 6.1257229 -3.6599252
v -11.0197315 6.1257229 -3.6599252
v -11.0197315 6.1259832 -3.2068167
v -11.3146753 6.1259832 -3.2071207
v -11.3178568 6.1257229 -3.6548870
v -11.3178568 5.9831038 -3.6548870
v -11.3146753 5.9833641 -3.2071207
v -11.0197315 5.9831038 -3.6599252
v -11.0197315 5.9833641 -3.2068167
v -11.3146753 6.1259832 -3.2071207
v -11.3178568 6.1257229 -3.6548870
f 2 3 1
f 4 5 3
f 6 7 5
f 8 9 7
f 8 6 2
f 12 1 11
f 10 11 9
f 1 18 11
f 13 24 18
f 11 17 9
f 7 17 16
f 5 16 15
f 5 14 3
f 3 13 1
f 19 30 24
f 18 23 17
f 16 23 22
f 15 22 21
f 15 20 14
f 14 19 13
f 25 36 30
f 24 29 23
f 22 29 28
f 21 28 27
f 21 26 20
f 20 25 19
f 31 42 36
f 30 35 29
f 28 35 34
f 27 34 33
f 27 32 26
f 26 31 25
f 37 48 42
f 36 41 35
f 34 41 40
f 33 40 39
f 33 38 32
f 32 37 31
f 43 54 48
f 42 47 41
f 40 47 46
f 39 46 45
f 39 44 38
f 38 43 37
f 54 55 60
f 48 53 47
f 46 53 52
f 45 52 51
f 45 50 44
f 44 49 43
f 55 66 60
f 54 59 53
f 53 58 52
f 52 57 51
f 51 56 50
f 49 56 55
f 61 72 66
f 60 65 59
f 58 65 64
f 57 64 63
f 57 62 56
f 56 61 55
f 72 73 78
f 66 71 65
f 64 71 70
f 63 70 69
f 63 68 62
f 62 67 61
f 78 79 84
f 71 78 77
f 70 77 76
f 70 75 69
f 69 74 68
f 68 73 67
f 84 85 90
f 77 84 83
f 76 83 82
f 76 81 75
f 75 80 74
f 74 79 73
f 85 558 90
f 83 90 89
f 82 89 88
f 82 87 81
f 81 86 80
f 80 85 79
f 90 557 89
f 89 556 88
f 87 556 555
f 86 555 554
f 85 554 553
f 92 93 91
f 94 95 93
f 96 97 95
f 98 99 97
f 102 264 92
f 102 91 101
f 100 101 99
f 97 99 101
f 104 105 103
f 106 107 105
f 108 109 107
f 110 111 109
f 114 222 104
f 114 103 113
f 112 113 111
f 109 111 113
f 120 146 145
f 115 123 120
f 356 369 355
f 123 122 128
f 128 127 132
f 132 127 129
f 618 142 180
f 133 611 138
f 442 441 152
f 589 639 342
f 176 669 177
f 177 668 178
f 179 668 667
f 618 176 142
f 152 621 145
f 146 152 145
f 149 150 146
f 161 149 155
f 159 155 160
f 132 149 128
f 135 155 132
f 128 146 123
f 641 342 639
f 342 343 145
f 183 118 184
f 167 115 168
f 115 169 168
f 169 115 166
f 362 189 360
f 154 130 137
f 170 654 172
f 172 656 173
f 173 658 174
f 174 660 175
f 171 660 653
f 674 366 678
f 358 151 188
f 181 370 346
f 364 190 362
f 352 372 356
f 215 205 214
f 213 201 212
f 197 220 196
f 200 210 211
f 207 214 206
f 209 221 218
f 195 216 194
f 192 218 219
f 199 213 210
f 204 216 217
f 189 120 181
f 221 193 220
f 212 210 213
f 217 215 214
f 220 218 221
f 203 212 202
f 358 191 364
f 227 228 222
f 112 227 114
f 110 226 112
f 248 263 262
f 106 224 108
f 104 223 106
f 233 234 228
f 226 233 227
f 225 232 226
f 224 231 225
f 223 230 224
f 222 229 223
f 239 240 234
f 232 239 233
f 231 238 232
f 243 263 249
f 229 236 230
f 228 235 229
f 245 246 240
f 238 245 239
f 237 244 238
f 236 243 237
f 235 242 236
f 234 241 235
f 251 745 246
f 244 251 245
f 243 250 244
f 248 260 242
f 241 248 242
f 240 247 241
f 250 750 251
f 249 749 250
f 248 748 249
f 247 747 248
f 246 746 247
f 252 255 253
f 256 259 257
f 260 263 261
f 242 261 243
f 236 256 230
f 231 259 237
f 236 259 258
f 230 257 231
f 224 252 108
f 110 255 225
f 224 255 254
f 108 253 110
f 264 275 270
f 100 269 102
f 98 268 100
f 96 267 98
f 94 266 96
f 92 265 94
f 270 281 276
f 268 275 269
f 267 274 268
f 266 273 267
f 265 272 266
f 265 270 271
f 281 282 276
f 274 281 275
f 273 280 274
f 272 279 273
f 271 278 272
f 271 276 277
f 282 293 288
f 280 287 281
f 280 285 286
f 279 284 285
f 277 284 278
f 276 283 277
f 288 299 294
f 286 293 287
f 285 292 286
f 284 291 285
f 283 290 284
f 283 288 289
f 294 305 300
f 292 299 293
f 291 298 292
f 290 297 291
f 289 296 290
f 289 294 295
f 300 311 306
f 298 305 299
f 297 304 298
f 296 303 297
f 295 302 296
f 295 300 301
f 306 317 312
f 304 311 305
f 303 310 304
f 302 309 303
f 301 308 302
f 301 306 307
f 317 318 312
f 310 317 311
f 309 316 310
f 308 315 309
f 307 314 308
f 307 312 313
f 323 324 318
f 316 323 317
f 316 321 322
f 315 320 321
f 313 320 314
f 312 319 313
f 324 335 330
f 322 329 323
f 321 328 322
f 321 326 327
f 319 326 320
f 318 325 319
f 335 336 330
f 329 334 335
f 328 333 334
f 326 333 327
f 326 331 332
f 325 330 331
f 336 846 841
f 334 341 335
f 334 339 340
f 333 338 339
f 332 337 338
f 330 337 331
f 341 845 846
f 339 845 340
f 338 844 339
f 337 843 338
f 337 841 842
f 345 343 342
f 207 162 204
f 181 851 673
f 359 350 358
f 346 348 347
f 355 357 356
f 353 356 357
f 349 353 348
f 363 360 361
f 365 362 363
f 359 364 365
f 347 360 346
f 182 366 185
f 116 165 163
f 186 117 116
f 184 368 183
f 148 186 118
f 165 185 163
f 352 164 371
f 370 349 346
f 369 888 379
f 355 379 378
f 350 374 151
f 354 378 377
f 351 375 350
f 140 880 612
f 380 382 385
f 382 896 385
f 896 381 385
f 162 194 204
f 205 199 200
f 201 209 192
f 136 208 120
f 199 195 181
f 206 200 203
f 197 201 192
f 136 196 193
f 344 203 202
f 403 404 393
f 673 406 181
f 423 433 416
f 422 440 423
f 421 439 422
f 421 437 438
f 420 436 437
f 419 435 436
f 418 434 435
f 417 432 434
f 413 429 412
f 408 426 425
f 416 431 414
f 412 428 411
f 409 427 426
f 920 424 938
f 960 964 446
f 961 447 448
f 452 455 451
f 969 444 968
f 446 968 444
f 446 445 443
f 443 969 957
f 455 453 456
f 457 456 453
f 990 459 989
f 983 459 462
f 462 460 461
f 461 990 984
f 465 464 463
f 467 466 465
f 469 468 467
f 471 470 469
f 472 474 464
f 463 474 473
f 473 472 471
f 480 463 473
f 486 475 480
f 479 473 471
f 469 479 471
f 467 478 469
f 476 467 465
f 475 465 463
f 492 481 486
f 485 480 479
f 478 485 479
f 477 484 478
f 482 477 476
f 481 476 475
f 498 487 492
f 491 486 485
f 484 491 485
f 483 490 484
f 488 483 482
f 487 482 481
f 504 493 498
f 497 492 491
f 490 497 491
f 489 496 490
f 494 489 488
f 493 488 487
f 510 499 504
f 503 498 497
f 496 503 497
f 495 502 496
f 500 495 494
f 499 494 493
f 516 505 510
f 509 504 503
f 502 509 503
f 501 508 502
f 506 501 500
f 505 500 499
f 516 517 511
f 515 510 509
f 508 515 509
f 507 514 508
f 512 507 506
f 511 506 505
f 528 517 522
f 521 516 515
f 520 515 514
f 519 514 513
f 518 513 512
f 511 518 512
f 534 523 528
f 527 522 521
f 520 527 521
f 519 526 520
f 524 519 518
f 523 518 517
f 534 535 529
f 533 528 527
f 526 533 527
f 525 532 526
f 530 525 524
f 529 524 523
f 540 541 535
f 533 540 534
f 532 539 533
f 537 532 531
f 536 531 530
f 535 530 529
f 546 547 541
f 539 546 540
f 538 545 539
f 543 538 537
f 542 537 536
f 541 536 535
f 558 547 552
f 545 552 546
f 544 551 545
f 549 544 543
f 548 543 542
f 547 542 541
f 557 552 551
f 556 551 550
f 549 556 550
f 548 555 549
f 547 554 548
f 561 560 559
f 563 562 561
f 565 564 563
f 567 566 565
f 763 570 560
f 559 570 569
f 569 568 567
f 565 563 561
f 573 572 571
f 575 574 573
f 577 576 575
f 579 578 577
f 715 582 572
f 571 582 581
f 581 580 579
f 577 575 581
f 588 622 592
f 592 583 588
f 875 862 861
f 592 591 587
f 597 596 591
f 598 594 596
f 670 618 612
f 611 603 610
f 963 609 628
f 847 639 589
f 669 663 664
f 668 664 665
f 666 668 665
f 663 618 616
f 621 628 620
f 628 622 620
f 625 626 633
f 625 638 632
f 632 636 637
f 625 601 597
f 632 605 601
f 622 597 592
f 641 847 850
f 639 640 589
f 621 620 847
f 586 675 676
f 647 648 583
f 583 648 649
f 649 646 583
f 682 868 866
f 599 631 609
f 654 651 655
f 656 655 657
f 658 657 659
f 660 659 661
f 652 660 661
f 674 872 677
f 864 627 856
f 671 866 852
f 683 870 868
f 878 858 862
f 708 707 698
f 706 705 694
f 689 712 690
f 704 703 693
f 707 700 699
f 702 714 701
f 709 688 687
f 712 711 685
f 692 706 691
f 710 709 697
f 588 682 671
f 714 713 686
f 705 703 704
f 708 710 707
f 713 711 712
f 705 696 695
f 684 864 870
f 721 720 715
f 720 580 582
f 719 578 580
f 741 762 742
f 717 574 576
f 716 572 574
f 727 726 721
f 726 719 720
f 725 718 719
f 724 717 718
f 723 716 717
f 722 715 716
f 733 732 727
f 732 725 726
f 731 724 725
f 762 736 742
f 729 722 723
f 728 721 722
f 739 738 733
f 738 731 732
f 737 730 731
f 736 729 730
f 735 728 729
f 734 727 728
f 745 744 739
f 744 737 738
f 743 736 737
f 759 741 735
f 741 734 735
f 740 733 734
f 750 745 747
f 750 743 744
f 749 742 743
f 748 741 742
f 747 740 741
f 746 739 740
f 754 751 752
f 758 755 756
f 762 759 760
f 760 735 736
f 755 729 723
f 758 724 730
f 729 758 730
f 756 723 724
f 751 717 576
f 754 578 718
f 717 754 718
f 752 576 578
f 763 774 768
f 768 568 570
f 767 566 568
f 766 564 566
f 765 562 564
f 764 560 562
f 769 780 774
f 774 767 768
f 773 766 767
f 772 765 766
f 771 764 765
f 764 769 763
f 781 780 775
f 780 773 774
f 779 772 773
f 778 771 772
f 777 770 771
f 770 775 769
f 781 792 786
f 786 779 780
f 779 784 778
f 778 783 777
f 783 776 777
f 782 775 776
f 787 798 792
f 792 785 786
f 791 784 785
f 790 783 784
f 789 782 783
f 782 787 781
f 793 804 798
f 798 791 792
f 797 790 791
f 796 789 790
f 795 788 789
f 788 793 787
f 799 810 804
f 804 797 798
f 803 796 797
f 802 795 796
f 801 794 795
f 794 799 793
f 805 816 810
f 810 803 804
f 809 802 803
f 808 801 802
f 807 800 801
f 800 805 799
f 817 816 811
f 816 809 810
f 815 808 809
f 814 807 808
f 813 806 807
f 806 811 805
f 823 822 817
f 822 815 816
f 815 820 814
f 814 819 813
f 819 812 813
f 818 811 812
f 823 834 828
f 828 821 822
f 827 820 821
f 820 825 819
f 825 818 819
f 824 817 818
f 835 834 829
f 828 833 827
f 827 832 826
f 832 825 826
f 825 830 824
f 824 829 823
f 835 846 840
f 840 833 834
f 833 838 832
f 832 837 831
f 831 836 830
f 836 829 830
f 846 841 843
f 840 845 839
f 845 838 839
f 844 837 838
f 843 836 837
f 836 841 835
f 848 850 847
f 642 700 697
f 671 673 851
f 865 856 857
f 852 854 855
f 863 861 862
f 862 859 863
f 855 859 858
f 866 869 867
f 868 871 869
f 870 865 871
f 853 866 867
f 672 677 872
f 584 645 585
f 679 585 680
f 874 676 675
f 679 624 586
f 677 645 643
f 858 644 855
f 855 876 852
f 875 888 879
f 861 887 875
f 882 856 627
f 860 886 861
f 883 857 856
f 880 614 612
f 893 894 897
f 892 896 890
f 891 896 897
f 687 642 697
f 692 698 693
f 694 702 691
f 607 701 686
f 671 692 691
f 693 699 696
f 690 694 695
f 689 607 686
f 696 699 849
f 915 914 898
f 918 673 671
f 948 937 930
f 955 936 937
f 954 935 936
f 935 952 934
f 934 951 933
f 933 950 932
f 932 949 931
f 931 947 929
f 944 927 926
f 922 941 923
f 946 930 928
f 943 926 925
f 923 942 924
f 920 939 921
f 973 962 970
f 972 961 956
f 979 976 975
f 969 966 967
f 970 968 964
f 967 970 965
f 969 965 957
f 979 977 978
f 985 986 977
f 987 990 989
f 987 983 992
f 988 992 991
f 990 991 984
f 2 4 3
f 4 6 5
f 6 8 7
f 8 10 9
f 6 4 2
f 2 12 10
f 10 8 2
f 12 2 1
f 10 12 11
f 1 13 18
f 13 19 24
f 11 18 17
f 7 9 17
f 5 7 16
f 5 15 14
f 3 14 13
f 19 25 30
f 18 24 23
f 16 17 23
f 15 16 22
f 15 21 20
f 14 20 19
f 25 31 36
f 24 30 29
f 22 23 29
f 21 22 28
f 21 27 26
f 20 26 25
f 31 37 42
f 30 36 35
f 28 29 35
f 27 28 34
f 27 33 32
f 26 32 31
f 37 43 48
f 36 42 41
f 34 35 41
f 33 34 40
f 33 39 38
f 32 38 37
f 43 49 54
f 42 48 47
f 40 41 47
f 39 40 46
f 39 45 44
f 38 44 43
f 54 49 55
f 48 54 53
f 46 47 53
f 45 46 52
f 45 51 50
f 44 50 49
f 55 61 66
f 54 60 59
f 53 59 58
f 52 58 57
f 51 57 56
f 49 50 56
f 61 67 72
f 60 66 65
f 58 59 65
f 57 58 64
f 57 63 62
f 56 62 61
f 72 67 73
f 66 72 71
f 64 65 71
f 63 64 70
f 63 69 68
f 62 68 67
f 78 73 79
f 71 72 78
f 70 71 77
f 70 76 75
f 69 75 74
f 68 74 73
f 84 79 85
f 77 78 84
f 76 77 83
f 76 82 81
f 75 81 80
f 74 80 79
f 85 553 558
f 83 84 90
f 82 83 89
f 82 88 87
f 81 87 86
f 80 86 85
f 90 558 557
f 89 557 556
f 87 88 556
f 86 87 555
f 85 86 554
f 92 94 93
f 94 96 95
f 96 98 97
f 98 100 99
f 102 269 264
f 102 92 91
f 100 102 101
f 101 91 97
f 91 93 97
f 93 95 97
f 104 106 105
f 106 108 107
f 108 110 109
f 110 112 111
f 114 227 222
f 114 104 103
f 112 114 113
f 113 103 107
f 103 105 107
f 107 109 113
f 120 123 146
f 115 119 123
f 356 372 369
f 123 119 122
f 128 122 127
f 127 131 121
f 127 121 125
f 153 135 132
f 127 125 129
f 129 153 132
f 180 140 612
f 612 618 180
f 133 606 611
f 137 608 442
f 608 956 442
f 957 629 443
f 629 152 441
f 443 629 441
f 152 137 442
f 343 136 342
f 136 589 342
f 176 662 669
f 177 669 668
f 179 178 668
f 618 662 176
f 152 629 621
f 146 150 152
f 149 156 150
f 161 156 149
f 159 161 155
f 132 155 149
f 135 160 155
f 128 149 146
f 641 345 342
f 343 136 120
f 120 145 343
f 145 621 342
f 621 639 342
f 183 148 118
f 362 190 189
f 124 133 138
f 138 144 124
f 144 143 124
f 143 141 126
f 141 139 126
f 139 137 130
f 137 152 134
f 137 134 154
f 152 150 134
f 124 143 126
f 150 156 134
f 156 161 134
f 161 159 134
f 130 126 139
f 170 650 654
f 172 654 656
f 173 656 658
f 174 658 660
f 171 175 660
f 674 185 366
f 358 350 151
f 181 673 370
f 346 360 181
f 360 189 181
f 364 191 190
f 352 371 372
f 195 205 215
f 205 206 214
f 198 201 213
f 201 202 212
f 197 219 220
f 211 203 200
f 200 199 210
f 207 217 214
f 209 208 221
f 195 215 216
f 219 197 192
f 192 209 218
f 199 198 213
f 217 207 204
f 204 194 216
f 189 142 120
f 208 193 221
f 193 196 220
f 212 211 210
f 217 216 215
f 220 219 218
f 203 211 212
f 358 188 191
f 227 233 228
f 112 226 227
f 110 225 226
f 248 249 263
f 106 223 224
f 104 222 223
f 233 239 234
f 226 232 233
f 225 231 232
f 224 230 231
f 223 229 230
f 222 228 229
f 239 245 240
f 232 238 239
f 231 237 238
f 243 261 263
f 229 235 236
f 228 234 235
f 245 251 246
f 238 244 245
f 237 243 244
f 236 242 243
f 235 241 242
f 234 240 241
f 251 750 745
f 244 250 251
f 243 249 250
f 248 262 260
f 241 247 248
f 240 246 247
f 250 749 750
f 249 748 749
f 248 747 748
f 247 746 747
f 246 745 746
f 252 254 255
f 256 258 259
f 260 262 263
f 242 260 261
f 236 258 256
f 231 257 259
f 236 237 259
f 230 256 257
f 224 254 252
f 110 253 255
f 224 225 255
f 108 252 253
f 264 269 275
f 100 268 269
f 98 267 268
f 96 266 267
f 94 265 266
f 92 264 265
f 270 275 281
f 268 274 275
f 267 273 274
f 266 272 273
f 265 271 272
f 265 264 270
f 281 287 282
f 274 280 281
f 273 279 280
f 272 278 279
f 271 277 278
f 271 270 276
f 282 287 293
f 280 286 287
f 280 279 285
f 279 278 284
f 277 283 284
f 276 282 283
f 288 293 299
f 286 292 293
f 285 291 292
f 284 290 291
f 283 289 290
f 283 282 288
f 294 299 305
f 292 298 299
f 291 297 298
f 290 296 297
f 289 295 296
f 289 288 294
f 300 305 311
f 298 304 305
f 297 303 304
f 296 302 303
f 295 301 302
f 295 294 300
f 306 311 317
f 304 310 311
f 303 309 310
f 302 308 309
f 301 307 308
f 301 300 306
f 317 323 318
f 310 316 317
f 309 315 316
f 308 314 315
f 307 313 314
f 307 306 312
f 323 329 324
f 316 322 323
f 316 315 321
f 315 314 320
f 313 319 320
f 312 318 319
f 324 329 335
f 322 328 329
f 321 327 328
f 321 320 326
f 319 325 326
f 318 324 325
f 335 341 336
f 329 328 334
f 328 327 333
f 326 332 333
f 326 325 331
f 325 324 330
f 336 341 846
f 334 340 341
f 334 333 339
f 333 332 338
f 332 331 337
f 330 336 337
f 341 340 845
f 339 844 845
f 338 843 844
f 337 842 843
f 337 336 841
f 345 344 343
f 207 344 162
f 359 351 350
f 346 349 348
f 355 354 357
f 353 352 356
f 349 352 353
f 363 362 360
f 365 364 362
f 359 358 364
f 347 361 360
f 116 117 165
f 186 187 117
f 184 367 368
f 148 187 186
f 165 182 185
f 352 349 164
f 370 164 349
f 369 879 888
f 355 369 379
f 350 375 374
f 354 355 378
f 351 376 375
f 140 373 880
f 385 381 384
f 384 383 385
f 383 380 385
f 382 890 896
f 896 895 381
f 162 181 194
f 205 195 199
f 201 198 209
f 136 193 208
f 195 194 181
f 181 120 198
f 120 208 209
f 181 198 199
f 209 198 120
f 206 205 200
f 197 202 201
f 136 343 196
f 197 196 343
f 343 344 202
f 344 207 206
f 203 344 206
f 202 197 343
f 388 392 405
f 392 395 394
f 405 392 394
f 394 393 405
f 393 386 403
f 386 387 401
f 403 386 402
f 387 389 401
f 389 391 400
f 391 390 400
f 390 397 399
f 399 400 390
f 400 401 389
f 396 388 398
f 405 398 388
f 404 405 393
f 401 402 386
f 673 919 406
f 423 440 433
f 422 439 440
f 421 438 439
f 421 420 437
f 420 419 436
f 419 418 435
f 418 417 434
f 417 415 432
f 413 430 429
f 408 409 426
f 416 433 431
f 412 429 428
f 409 410 427
f 920 407 424
f 446 443 441
f 441 449 446
f 449 450 446
f 450 960 446
f 448 442 956
f 956 961 448
f 452 454 455
f 969 445 444
f 446 964 968
f 446 444 445
f 443 445 969
f 455 454 453
f 453 958 458
f 958 982 458
f 981 959 457
f 959 456 457
f 453 458 457
f 990 460 459
f 983 989 459
f 462 459 460
f 461 460 990
f 465 466 464
f 467 468 466
f 469 470 468
f 471 472 470
f 464 466 468
f 468 470 464
f 470 472 464
f 463 464 474
f 473 474 472
f 480 475 463
f 486 481 475
f 479 480 473
f 469 478 479
f 467 477 478
f 476 477 467
f 475 476 465
f 492 487 481
f 485 486 480
f 478 484 485
f 477 483 484
f 482 483 477
f 481 482 476
f 498 493 487
f 491 492 486
f 484 490 491
f 483 489 490
f 488 489 483
f 487 488 482
f 504 499 493
f 497 498 492
f 490 496 497
f 489 495 496
f 494 495 489
f 493 494 488
f 510 505 499
f 503 504 498
f 496 502 503
f 495 501 502
f 500 501 495
f 499 500 494
f 516 511 505
f 509 510 504
f 502 508 509
f 501 507 508
f 506 507 501
f 505 506 500
f 516 522 517
f 515 516 510
f 508 514 515
f 507 513 514
f 512 513 507
f 511 512 506
f 528 523 517
f 521 522 516
f 520 521 515
f 519 520 514
f 518 519 513
f 511 517 518
f 534 529 523
f 527 528 522
f 520 526 527
f 519 525 526
f 524 525 519
f 523 524 518
f 534 540 535
f 533 534 528
f 526 532 533
f 525 531 532
f 530 531 525
f 529 530 524
f 540 546 541
f 533 539 540
f 532 538 539
f 537 538 532
f 536 537 531
f 535 536 530
f 546 552 547
f 539 545 546
f 538 544 545
f 543 544 538
f 542 543 537
f 541 542 536
f 558 553 547
f 545 551 552
f 544 550 551
f 549 550 544
f 548 549 543
f 547 548 542
f 557 558 552
f 556 557 551
f 549 555 556
f 548 554 555
f 547 553 554
f 561 562 560
f 563 564 562
f 565 566 564
f 567 568 566
f 763 768 570
f 559 560 570
f 569 570 568
f 561 559 565
f 559 569 565
f 569 567 565
f 573 574 572
f 575 576 574
f 577 578 576
f 579 580 578
f 715 720 582
f 571 572 582
f 581 582 580
f 573 571 575
f 571 581 575
f 581 579 577
f 588 620 622
f 592 587 583
f 875 878 862
f 592 597 591
f 597 601 596
f 601 605 630
f 601 630 598
f 590 600 596
f 594 590 596
f 596 601 598
f 612 614 670
f 670 616 618
f 611 606 603
f 956 608 963
f 608 609 963
f 628 629 962
f 629 957 965
f 629 965 962
f 962 963 628
f 589 607 847
f 607 848 847
f 669 662 663
f 668 669 664
f 666 667 668
f 663 662 618
f 621 629 628
f 628 626 622
f 625 622 626
f 625 633 638
f 632 638 636
f 625 632 601
f 632 637 605
f 622 625 597
f 641 639 847
f 639 641 640
f 588 607 848
f 847 639 621
f 588 848 620
f 848 847 620
f 586 624 675
f 682 683 868
f 604 636 638
f 604 638 633
f 604 633 626
f 626 628 604
f 628 609 604
f 609 613 599
f 613 615 595
f 615 617 595
f 617 619 593
f 619 610 593
f 610 603 593
f 613 595 599
f 617 593 595
f 631 604 609
f 654 650 651
f 656 654 655
f 658 656 657
f 660 658 659
f 652 653 660
f 674 678 872
f 864 681 627
f 876 673 671
f 671 682 866
f 852 876 671
f 683 684 870
f 878 877 858
f 699 698 707
f 698 688 708
f 695 694 705
f 694 691 706
f 689 713 712
f 693 696 704
f 703 692 693
f 707 710 700
f 702 711 714
f 709 708 688
f 685 690 712
f 711 702 685
f 692 703 706
f 697 700 710
f 709 687 697
f 588 616 682
f 689 686 713
f 686 701 714
f 705 706 703
f 708 709 710
f 713 714 711
f 705 704 696
f 684 681 864
f 721 726 720
f 720 719 580
f 719 718 578
f 741 761 762
f 717 716 574
f 716 715 572
f 727 732 726
f 726 725 719
f 725 724 718
f 724 723 717
f 723 722 716
f 722 721 715
f 733 738 732
f 732 731 725
f 731 730 724
f 762 760 736
f 729 728 722
f 728 727 721
f 739 744 738
f 738 737 731
f 737 736 730
f 736 735 729
f 735 734 728
f 734 733 727
f 745 750 744
f 744 743 737
f 743 742 736
f 759 761 741
f 741 740 734
f 740 739 733
f 745 746 747
f 747 748 750
f 748 749 750
f 750 749 743
f 749 748 742
f 748 747 741
f 747 746 740
f 746 745 739
f 754 753 751
f 758 757 755
f 762 761 759
f 760 759 735
f 755 757 729
f 758 756 724
f 729 757 758
f 756 755 723
f 751 753 717
f 754 752 578
f 717 753 754
f 752 751 576
f 763 769 774
f 768 767 568
f 767 766 566
f 766 765 564
f 765 764 562
f 764 763 560
f 769 775 780
f 774 773 767
f 773 772 766
f 772 771 765
f 771 770 764
f 764 770 769
f 781 786 780
f 780 779 773
f 779 778 772
f 778 777 771
f 777 776 770
f 770 776 775
f 781 787 792
f 786 785 779
f 779 785 784
f 778 784 783
f 783 782 776
f 782 781 775
f 787 793 798
f 792 791 785
f 791 790 784
f 790 789 783
f 789 788 782
f 782 788 787
f 793 799 804
f 798 797 791
f 797 796 790
f 796 795 789
f 795 794 788
f 788 794 793
f 799 805 810
f 804 803 797
f 803 802 796
f 802 801 795
f 801 800 794
f 794 800 799
f 805 811 816
f 810 809 803
f 809 808 802
f 808 807 801
f 807 806 800
f 800 806 805
f 817 822 816
f 816 815 809
f 815 814 808
f 814 813 807
f 813 812 806
f 806 812 811
f 823 828 822
f 822 821 815
f 815 821 820
f 814 820 819
f 819 818 812
f 818 817 811
f 823 829 834
f 828 827 821
f 827 826 820
f 820 826 825
f 825 824 818
f 824 823 817
f 835 840 834
f 828 834 833
f 827 833 832
f 832 831 825
f 825 831 830
f 824 830 829
f 835 841 846
f 840 839 833
f 833 839 838
f 832 838 837
f 831 837 836
f 836 835 829
f 841 842 843
f 843 844 846
f 844 845 846
f 840 846 845
f 845 844 838
f 844 843 837
f 843 842 836
f 836 842 841
f 848 849 850
f 642 849 700
f 865 864 856
f 852 853 854
f 863 860 861
f 862 858 859
f 855 854 859
f 866 868 869
f 868 870 871
f 870 864 865
f 853 852 866
f 584 643 645
f 679 584 585
f 874 873 676
f 679 680 624
f 677 672 645
f 858 877 644
f 855 644 876
f 875 887 888
f 861 886 887
f 882 883 856
f 860 885 886
f 883 884 857
f 880 881 614
f 894 891 897
f 897 892 889
f 889 893 897
f 892 897 896
f 891 895 896
f 687 671 642
f 692 688 698
f 694 685 702
f 607 588 701
f 671 687 688
f 671 688 692
f 701 588 702
f 588 671 691
f 691 702 588
f 693 698 699
f 690 685 694
f 689 848 607
f 848 689 690
f 848 690 695
f 700 849 699
f 849 848 695
f 696 849 695
f 907 904 906
f 904 900 917
f 900 908 910
f 900 910 917
f 904 917 906
f 898 905 915
f 905 906 917
f 916 905 917
f 901 899 913
f 899 898 913
f 902 903 912
f 903 901 912
f 911 909 902
f 912 911 902
f 912 901 913
f 905 916 915
f 914 913 898
f 918 919 673
f 948 955 937
f 955 954 936
f 954 953 935
f 935 953 952
f 934 952 951
f 933 951 950
f 932 950 949
f 931 949 947
f 944 945 927
f 922 940 941
f 946 948 930
f 943 944 926
f 923 941 942
f 920 938 939
f 962 965 970
f 970 964 960
f 960 974 970
f 974 973 970
f 956 963 972
f 972 971 961
f 979 978 976
f 969 968 966
f 970 966 968
f 967 966 970
f 969 967 965
f 979 980 977
f 982 958 986
f 958 977 986
f 980 959 985
f 959 981 985
f 980 985 977
f 987 988 990
f 987 989 983
f 988 987 992
f 990 988 991
v -9.8735886 2.8728929 -2.6938641
v -10.2221584 2.8728929 -2.6938641
v -9.8735886 2.8334165 -2.4954023
v -10.2221584 2.8334165 -2.4954023
v -9.8735886 2.7209969 -2.3271544
v -10.2221584 2.7209969 -2.3271544
v -9.8735886 2.5527489 -2.2147350
v -10.2221584 2.5527489 -2.2147350
v -9.8735886 2.3542871 -2.1752584
v -10.2221584 2.3542871 -2.1752584
v -9.8735886 2.1558254 -2.2147350
v -10.2221584 2.1558254 -2.2147350
v -9.8735886 1.9875776 -2.3271544
v -10.2221584 1.9875776 -2.3271544
v -9.8735886 1.8751580 -2.4954023
v -10.2221584 1.8751580 -2.4954023
v -9.8735886 1.8356814 -2.6938641
v -10.2221584 1.8356814 -2.6938641
v -9.8735886 1.8751578 -2.8923259
v -10.2221584 1.8751578 -2.8923259
v -9.8735886 1.9875773 -3.0605736
v -10.2221584 1.9875774 -3.0605736
v -9.8735886 2.1558251 -3.1729932
v -10.2221584 2.1558251 -3.1729932
v -9.8735886 2.3542871 -3.2124698
v -10.2221584 2.3542871 -3.2124698
v -9.8735886 2.5527489 -3.1729932
v -10.2221584 2.5527489 -3.1729932
v -9.8735886 2.7209969 -3.0605736
v -10.2221584 2.7209969 -3.0605736
v -9.8735886 2.8334165 -2.8923256
v -10.2221584 2.8334165 -2.8923256
v -9.8116226 2.7850244 -2.6938641
v -9.8116226 2.7522364 -2.5290282
v -9.8116226 2.6588645 -2.3892870
v -9.8116226 2.5191231 -2.2959149
v -9.8116226 2.3542871 -2.2631269
v -9.8116226 2.1894512 -2.2959149
v -9.8116226 2.0497100 -2.3892870
v -9.8116226 1.9563378 -2.5290282
v -9.8116226 1.9235499 -2.6938641
v -9.8116226 1.9563377 -2.8587000
v -9.8116226 2.0497098 -2.9984412
v -9.8116226 2.1894510 -3.0918133
v -9.8116226 2.3542871 -3.1246014
v -9.8116226 2.5191231 -3.0918133
v -9.8116226 2.6588645 -2.9984412
v -9.8116226 2.7522366 -2.8586998
v -9.8116226 2.6151834 -2.6938641
v -9.8116226 2.5953238 -2.5940235
v -9.8116226 2.5387685 -2.5093827
v -9.8116226 2.4541278 -2.4528275
v -9.8116226 2.3542871 -2.4329679
v -9.8116226 2.2544465 -2.4528275
v -9.8116226 2.1698058 -2.5093827
v -9.8116226 2.1132505 -2.5940235
v -9.8116226 2.0933909 -2.6938641
v -9.8116226 2.1132505 -2.7937047
v -9.8116226 2.1698055 -2.8783455
v -9.8116226 2.2544465 -2.9349008
v -9.8116226 2.3542871 -2.9547603
v -9.8116226 2.4541278 -2.9349008
v -9.8116226 2.5387685 -2.8783455
v -9.8116226 2.5953238 -2.7937045
v -9.8688173 2.5458407 -2.6938641
v -9.8688173 2.5312595 -2.6205597
v -9.8688173 2.4897361 -2.5584152
v -9.8688173 2.4275916 -2.5168917
v -9.8688173 2.3542871 -2.5023105
v -9.8688173 2.2809827 -2.5168917
v -9.8688173 2.2188382 -2.5584152
v -9.8688173 2.1773148 -2.6205597
v -9.8688173 2.1627336 -2.6938641
v -9.8688173 2.1773145 -2.7671685
v -9.8688173 2.2188382 -2.8293128
v -9.8688173 2.2809827 -2.8708365
v -9.8688173 2.3542871 -2.8854177
v -9.8688173 2.4275916 -2.8708365
v -9.8688173 2.4897361 -2.8293128
v -9.8688173 2.5312595 -2.7671683
v -10.2908926 2.7857864 -2.6938641
v -10.2908926 2.7529404 -2.5287366
v -10.2908926 2.6594031 -2.3887482
v -10.2908926 2.5194147 -2.2952108
v -10.2908926 2.3542871 -2.2623649
v -10.2908926 2.1891596 -2.2952108
v -10.2908926 2.0491712 -2.3887482
v -10.2908926 1.9556340 -2.5287366
v -10.2908926 1.9227880 -2.6938641
v -10.2908926 1.9556339 -2.8589916
v -10.2908926 2.0491712 -2.9989800
v -10.2908926 2.1891594 -3.0925174
v -10.2908926 2.3542871 -3.1253631
v -10.2908926 2.5194147 -3.0925174
v -10.2908926 2.6594031 -2.9989800
v -10.2908926 2.7529404 -2.8589914
f 994 995 993
f 996 997 995
f 998 999 997
f 1000 1001 999
f 1002 1003 1001
f 1004 1005 1003
f 1006 1007 1005
f 1008 1009 1007
f 1010 1011 1009
f 1012 1013 1011
f 1014 1015 1013
f 1016 1017 1015
f 1018 1019 1017
f 1020 1021 1019
f 1004 1077 1078
f 1024 993 1023
f 1022 1023 1021
f 1011 1033 1009
f 1036 1051 1035
f 1015 1037 1036
f 999 1029 1028
f 1023 1039 1021
f 1007 1031 1005
f 1011 1035 1034
f 997 1026 995
f 1017 1038 1037
f 1003 1029 1001
f 993 1040 1023
f 995 1025 993
f 1009 1032 1007
f 1015 1035 1013
f 997 1028 1027
f 1021 1038 1019
f 1005 1030 1003
f 1041 1058 1057
f 1034 1049 1033
f 1031 1048 1047
f 1030 1045 1029
f 1025 1056 1040
f 1028 1043 1027
f 1039 1054 1038
f 1025 1042 1041
f 1037 1052 1036
f 1035 1050 1034
f 1032 1049 1048
f 1030 1047 1046
f 1029 1044 1028
f 1040 1055 1039
f 1026 1043 1042
f 1037 1054 1053
f 1068 1070 1072
f 1053 1068 1052
f 1051 1066 1050
f 1049 1064 1048
f 1047 1062 1046
f 1045 1060 1044
f 1056 1071 1055
f 1043 1058 1042
f 1054 1069 1053
f 1052 1067 1051
f 1050 1065 1049
f 1048 1063 1047
f 1045 1062 1061
f 1041 1072 1056
f 1044 1059 1043
f 1055 1070 1054
f 1083 1079 1075
f 1024 1073 994
f 994 1074 996
f 1008 1081 1010
f 1014 1084 1016
f 998 1076 1000
f 1022 1086 1087
f 1004 1079 1006
f 1012 1081 1082
f 1016 1085 1018
f 1002 1076 1077
f 1024 1087 1088
f 1006 1080 1008
f 1012 1083 1014
f 998 1074 1075
f 1020 1085 1086
f 994 996 995
f 996 998 997
f 998 1000 999
f 1000 1002 1001
f 1002 1004 1003
f 1004 1006 1005
f 1006 1008 1007
f 1008 1010 1009
f 1010 1012 1011
f 1012 1014 1013
f 1014 1016 1015
f 1016 1018 1017
f 1018 1020 1019
f 1020 1022 1021
f 1004 1002 1077
f 1024 994 993
f 1022 1024 1023
f 1011 1034 1033
f 1036 1052 1051
f 1015 1017 1037
f 999 1001 1029
f 1023 1040 1039
f 1007 1032 1031
f 1011 1013 1035
f 997 1027 1026
f 1017 1019 1038
f 1003 1030 1029
f 993 1025 1040
f 995 1026 1025
f 1009 1033 1032
f 1015 1036 1035
f 997 999 1028
f 1021 1039 1038
f 1005 1031 1030
f 1041 1042 1058
f 1034 1050 1049
f 1031 1032 1048
f 1030 1046 1045
f 1025 1041 1056
f 1028 1044 1043
f 1039 1055 1054
f 1025 1026 1042
f 1037 1053 1052
f 1035 1051 1050
f 1032 1033 1049
f 1030 1031 1047
f 1029 1045 1044
f 1040 1056 1055
f 1026 1027 1043
f 1037 1038 1054
f 1072 1057 1058
f 1058 1059 1060
f 1060 1061 1062
f 1062 1063 1064
f 1064 1065 1066
f 1066 1067 1068
f 1068 1069 1070
f 1070 1071 1072
f 1072 1058 1060
f 1060 1062 1072
f 1062 1064 1072
f 1064 1066 1072
f 1066 1068 1072
f 1053 1069 1068
f 1051 1067 1066
f 1049 1065 1064
f 1047 1063 1062
f 1045 1061 1060
f 1056 1072 1071
f 1043 1059 1058
f 1054 1070 1069
f 1052 1068 1067
f 1050 1066 1065
f 1048 1064 1063
f 1045 1046 1062
f 1041 1057 1072
f 1044 1060 1059
f 1055 1071 1070
f 1075 1074 1073
f 1073 1088 1087
f 1087 1086 1085
f 1085 1084 1083
f 1083 1082 1081
f 1081 1080 1079
f 1079 1078 1077
f 1077 1076 1075
f 1075 1073 1087
f 1087 1085 1075
f 1085 1083 1075
f 1083 1081 1079
f 1079 1077 1075
f 1024 1088 1073
f 994 1073 1074
f 1008 1080 1081
f 1014 1083 1084
f 998 1075 1076
f 1022 1020 1086
f 1004 1078 1079
f 1012 1010 1081
f 1016 1084 1085
f 1002 1000 1076
f 1024 1022 1087
f 1006 1079 1080
f 1012 1082 1083
f 998 996 1074
f 1020 1018 1085
v -9.8735886 2.8728926 -4.0513244
v -10.2221584 2.8728926 -4.0513244
v -9.8735886 2.8334162 -3.8528626
v -10.2221584 2.8334162 -3.8528626
v -9.8735886 2.7209966 -3.6846147
v -10.2221584 2.7209966 -3.6846147
v -9.8735886 2.5527487 -3.5721951
v -10.2221584 2.5527487 -3.5721951
v -9.8735886 2.3542869 -3.5327187
v -10.2221584 2.3542869 -3.5327187
v -9.8735886 2.1558251 -3.5721951
v -10.2221584 2.1558251 -3.5721951
v -9.8735886 1.9875773 -3.6846147
v -10.2221584 1.9875773 -3.6846147
v -9.8735886 1.8751577 -3.8528626
v -10.2221584 1.8751577 -3.8528626
v -9.8735886 1.8356812 -4.0513244
v -10.2221584 1.8356812 -4.0513244
v -9.8735886 1.8751576 -4.2497859
v -10.2221584 1.8751576 -4.2497859
v -9.8735886 1.9875771 -4.4180341
v -10.2221584 1.9875772 -4.4180341
v -9.8735886 2.1558249 -4.5304537
v -10.2221584 2.1558249 -4.5304537
v -9.8735886 2.3542869 -4.5699301
v -10.2221584 2.3542869 -4.5699301
v -9.8735886 2.5527487 -4.5304537
v -10.2221584 2.5527487 -4.5304537
v -9.8735886 2.7209966 -4.4180336
v -10.2221584 2.7209966 -4.4180336
v -9.8735886 2.8334162 -4.2497859
v -10.2221584 2.8334162 -4.2497859
v -9.8116226 2.7850242 -4.0513244
v -9.8116226 2.7522361 -3.8864884
v -9.8116226 2.6588643 -3.7467470
v -9.8116226 2.5191228 -3.6533751
v -9.8116226 2.3542869 -3.6205871
v -9.8116226 2.1894510 -3.6533751
v -9.8116226 2.0497098 -3.7467470
v -9.8116226 1.9563376 -3.8864884
v -9.8116226 1.9235497 -4.0513244
v -9.8116226 1.9563375 -4.2161603
v -9.8116226 2.0497096 -4.3559017
v -9.8116226 2.1894507 -4.4492736
v -9.8116226 2.3542869 -4.4820614
v -9.8116226 2.5191228 -4.4492736
v -9.8116226 2.6588643 -4.3559017
v -9.8116226 2.7522364 -4.2161603
v -9.8116226 2.6151831 -4.0513244
v -9.8116226 2.5953236 -3.9514837
v -9.8116226 2.5387683 -3.8668430
v -9.8116226 2.4541276 -3.8102877
v -9.8116226 2.3542869 -3.7904282
v -9.8116226 2.2544463 -3.8102877
v -9.8116226 2.1698055 -3.8668430
v -9.8116226 2.1132503 -3.9514837
v -9.8116226 2.0933907 -4.0513244
v -9.8116226 2.1132503 -4.1511650
v -9.8116226 2.1698053 -4.2358055
v -9.8116226 2.2544463 -4.2923608
v -9.8116226 2.3542869 -4.3122206
v -9.8116226 2.4541276 -4.2923608
v -9.8116226 2.5387683 -4.2358055
v -9.8116226 2.5953236 -4.1511650
v -9.8688173 2.5458405 -4.0513244
v -9.8688173 2.5312593 -3.9780200
v -9.8688173 2.4897358 -3.9158754
v -9.8688173 2.4275913 -3.8743520
v -9.8688173 2.3542869 -3.8597708
v -9.8688173 2.2809825 -3.8743520
v -9.8688173 2.2188380 -3.9158754
v -9.8688173 2.1773145 -3.9780200
v -9.8688173 2.1627333 -4.0513244
v -9.8688173 2.1773143 -4.1246285
v -9.8688173 2.2188380 -4.1867733
v -9.8688173 2.2809825 -4.2282968
v -9.8688173 2.3542869 -4.2428780
v -9.8688173 2.4275913 -4.2282968
v -9.8688173 2.4897358 -4.1867733
v -9.8688173 2.5312593 -4.1246285
v -10.2908926 2.7857862 -4.0513244
v -10.2908926 2.7529402 -3.8861969
v -10.2908926 2.6594028 -3.7462084
v -10.2908926 2.5194144 -3.6526711
v -10.2908926 2.3542869 -3.6198254
v -10.2908926 2.1891594 -3.6526711
v -10.2908926 2.0491710 -3.7462084
v -10.2908926 1.9556338 -3.8861969
v -10.2908926 1.9227878 -4.0513244
v -10.2908926 1.9556336 -4.2164516
v -10.2908926 2.0491710 -4.3564401
v -10.2908926 2.1891592 -4.4499774
v -10.2908926 2.3542869 -4.4828234
v -10.2908926 2.5194144 -4.4499774
v -10.2908926 2.6594028 -4.3564401
v -10.2908926 2.7529402 -4.2164516
f 1090 1091 1089
f 1092 1093 1091
f 1094 1095 1093
f 1096 1097 1095
f 1098 1099 1097
f 1100 1101 1099
f 1102 1103 1101
f 1104 1105 1103
f 1106 1107 1105
f 1108 1109 1107
f 1110 1111 1109
f 1112 1113 1111
f 1114 1115 1113
f 1116 1117 1115
f 1100 1173 1174
f 1120 1089 1119
f 1118 1119 1117
f 1107 1129 1105
f 1132 1147 1131
f 1111 1133 1132
f 1095 1125 1124
f 1119 1135 1117
f 1103 1127 1101
f 1107 1131 1130
f 1093 1122 1091
f 1113 1134 1133
f 1099 1125 1097
f 1089 1136 1119
f 1091 1121 1089
f 1105 1128 1103
f 1111 1131 1109
f 1093 1124 1123
f 1117 1134 1115
f 1101 1126 1099
f 1137 1154 1153
f 1130 1145 1129
f 1127 1144 1143
f 1126 1141 1125
f 1121 1152 1136
f 1124 1139 1123
f 1135 1150 1134
f 1121 1138 1137
f 1133 1148 1132
f 1131 1146 1130
f 1128 1145 1144
f 1126 1143 1142
f 1125 1140 1124
f 1136 1151 1135
f 1122 1139 1138
f 1133 1150 1149
f 1164 1166 1168
f 1149 1164 1148
f 1147 1162 1146
f 1145 1160 1144
f 1143 1158 1142
f 1141 1156 1140
f 1152 1167 1151
f 1139 1154 1138
f 1150 1165 1149
f 1148 1163 1147
f 1146 1161 1145
f 1144 1159 1143
f 1141 1158 1157
f 1137 1168 1152
f 1140 1155 1139
f 1151 1166 1150
f 1179 1175 1171
f 1120 1169 1090
f 1090 1170 1092
f 1104 1177 1106
f 1110 1180 1112
f 1094 1172 1096
f 1118 1182 1183
f 1100 1175 1102
f 1108 1177 1178
f 1112 1181 1114
f 1098 1172 1173
f 1120 1183 1184
f 1102 1176 1104
f 1108 1179 1110
f 1094 1170 1171
f 1116 1181 1182
f 1090 1092 1091
f 1092 1094 1093
f 1094 1096 1095
f 1096 1098 1097
f 1098 1100 1099
f 1100 1102 1101
f 1102 1104 1103
f 1104 1106 1105
f 1106 1108 1107
f 1108 1110 1109
f 1110 1112 1111
f 1112 1114 1113
f 1114 1116 1115
f 1116 1118 1117
f 1100 1098 1173
f 1120 1090 1089
f 1118 1120 1119
f 1107 1130 1129
f 1132 1148 1147
f 1111 1113 1133
f 1095 1097 1125
f 1119 1136 1135
f 1103 1128 1127
f 1107 1109 1131
f 1093 1123 1122
f 1113 1115 1134
f 1099 1126 1125
f 1089 1121 1136
f 1091 1122 1121
f 1105 1129 1128
f 1111 1132 1131
f 1093 1095 1124
f 1117 1135 1134
f 1101 1127 1126
f 1137 1138 1154
f 1130 1146 1145
f 1127 1128 1144
f 1126 1142 1141
f 1121 1137 1152
f 1124 1140 1139
f 1135 1151 1150
f 1121 1122 1138
f 1133 1149 1148
f 1131 1147 1146
f 1128 1129 1145
f 1126 1127 1143
f 1125 1141 1140
f 1136 1152 1151
f 1122 1123 1139
f 1133 1134 1150
f 1168 1153 1154
f 1154 1155 1156
f 1156 1157 1158
f 1158 1159 1160
f 1160 1161 1162
f 1162 1163 1164
f 1164 1165 1166
f 1166 1167 1168
f 1168 1154 1156
f 1156 1158 1168
f 1158 1160 1168
f 1160 1162 1168
f 1162 1164 1168
f 1149 1165 1164
f 1147 1163 1162
f 1145 1161 1160
f 1143 1159 1158
f 1141 1157 1156
f 1152 1168 1167
f 1139 1155 1154
f 1150 1166 1165
f 1148 1164 1163
f 1146 1162 1161
f 1144 1160 1159
f 1141 1142 1158
f 1137 1153 1168
f 1140 1156 1155
f 1151 1167 1166
f 1171 1170 1169
f 1169 1184 1183
f 1183 1182 1181
f 1181 1180 1179
f 1179 1178 1177
f 1177 1176 1175
f 1175 1174 1173
f 1173 1172 1171
f 1171 1169 1183
f 1183 1181 1171
f 1181 1179 1171
f 1179 1177 1175
f 1175 1173 1171
f 1120 1184 1169
f 1090 1169 1170
f 1104 1176 1177
f 1110 1179 1180
f 1094 1171 1172
f 1118 1116 1182
f 1100 1174 1175
f 1108 1106 1177
f 1112 1180 1181
f 1098 1096 1172
f 1120 1118 1183
f 1102 1175 1176
f 1108 1178 1179
f 1094 1092 1170
f 1116 1114 1181
v -12.1919184 2.8728929 -2.6938643
v -11.8433485 2.8728929 -2.6938643
v -12.1919184 2.8334162 -2.8923261
v -11.8433485 2.8334162 -2.8923261
v -12.1919184 2.7209966 -3.0605741
v -11.8433485 2.7209969 -3.0605741
v -12.1919184 2.5527489 -3.1729937
v -11.8433485 2.5527489 -3.1729934
v -12.1919184 2.3542871 -3.2124701
v -11.8433485 2.3542871 -3.2124701
v -12.1919184 2.1558251 -3.1729937
v -11.8433485 2.1558254 -3.1729934
v -12.1919184 1.9875774 -3.0605741
v -11.8433485 1.9875776 -3.0605741
v -12.1919184 1.8751580 -2.8923261
v -11.8433485 1.8751580 -2.8923261
v -12.1919184 1.8356814 -2.6938643
v -11.8433485 1.8356814 -2.6938643
v -12.1919184 1.8751580 -2.4954026
v -11.8433485 1.8751580 -2.4954026
v -12.1919184 1.9875774 -2.3271549
v -11.8433485 1.9875774 -2.3271549
v -12.1919184 2.1558254 -2.2147353
v -11.8433485 2.1558254 -2.2147350
v -12.1919184 2.3542871 -2.1752586
v -11.8433485 2.3542871 -2.1752586
v -12.1919184 2.5527492 -2.2147353
v -11.8433485 2.5527492 -2.2147353
v -12.1919184 2.7209969 -2.3271549
v -11.8433485 2.7209969 -2.3271549
v -12.1919184 2.8334165 -2.4954028
v -11.8433485 2.8334165 -2.4954028
v -12.2538843 2.7850244 -2.6938643
v -12.2538843 2.7522364 -2.8587005
v -12.2538843 2.6588643 -2.9984417
v -12.2538843 2.5191231 -3.0918138
v -12.2538843 2.3542871 -3.1246016
v -12.2538843 2.1894510 -3.0918138
v -12.2538843 2.0497098 -2.9984417
v -12.2538843 1.9563378 -2.8587005
v -12.2538843 1.9235499 -2.6938643
v -12.2538843 1.9563378 -2.5290284
v -12.2538843 2.0497098 -2.3892872
v -12.2538843 2.1894512 -2.2959151
v -12.2538843 2.3542871 -2.2631271
v -12.2538843 2.5191233 -2.2959151
v -12.2538843 2.6588645 -2.3892872
v -12.2538843 2.7522366 -2.5290287
v -12.2538843 2.6151834 -2.6938643
v -12.2538843 2.5953238 -2.7937050
v -12.2538843 2.5387685 -2.8783457
v -12.2538843 2.4541278 -2.9349010
v -12.2538843 2.3542871 -2.9547606
v -12.2538843 2.2544465 -2.9349010
v -12.2538843 2.1698058 -2.8783457
v -12.2538843 2.1132505 -2.7937050
v -12.2538843 2.0933909 -2.6938643
v -12.2538843 2.1132505 -2.5940239
v -12.2538843 2.1698058 -2.5093830
v -12.2538843 2.2544465 -2.4528277
v -12.2538843 2.3542871 -2.4329684
v -12.2538843 2.4541278 -2.4528279
v -12.2538843 2.5387685 -2.5093830
v -12.2538843 2.5953238 -2.5940239
v -12.1966896 2.5458407 -2.6938643
v -12.1966896 2.5312595 -2.7671688
v -12.1966896 2.4897361 -2.8293133
v -12.1966896 2.4275916 -2.8708367
v -12.1966896 2.3542871 -2.8854179
v -12.1966896 2.2809827 -2.8708367
v -12.1966896 2.2188382 -2.8293133
v -12.1966896 2.1773148 -2.7671688
v -12.1966896 2.1627336 -2.6938643
v -12.1966896 2.1773148 -2.6205599
v -12.1966896 2.2188382 -2.5584157
v -12.1966896 2.2809827 -2.5168920
v -12.1966896 2.3542871 -2.5023108
v -12.1966896 2.4275916 -2.5168920
v -12.1966896 2.4897361 -2.5584157
v -12.1966896 2.5312595 -2.6205602
v -11.7746143 2.7857864 -2.6938643
v -11.7746143 2.7529404 -2.8589919
v -11.7746143 2.6594031 -2.9989803
v -11.7746143 2.5194147 -3.0925176
v -11.7746143 2.3542871 -3.1253633
v -11.7746143 2.1891596 -3.0925176
v -11.7746143 2.0491712 -2.9989803
v -11.7746143 1.9556340 -2.8589919
v -11.7746143 1.9227880 -2.6938643
v -11.7746143 1.9556339 -2.5287368
v -11.7746143 2.0491712 -2.3887484
v -11.7746143 2.1891596 -2.2952111
v -11.7746143 2.3542871 -2.2623651
v -11.7746143 2.5194149 -2.2952111
v -11.7746143 2.6594033 -2.3887484
v -11.7746143 2.7529404 -2.5287368
f 1186 1187 1185
f 1188 1189 1187
f 1190 1191 1189
f 1192 1193 1191
f 1194 1195 1193
f 1196 1197 1195
f 1198 1199 1197
f 1200 1201 1199
f 1202 1203 1201
f 1204 1205 1203
f 1206 1207 1205
f 1208 1209 1207
f 1210 1211 1209
f 1212 1213 1211
f 1196 1269 1270
f 1216 1185 1215
f 1214 1215 1213
f 1203 1225 1201
f 1228 1243 1227
f 1207 1229 1228
f 1191 1221 1220
f 1215 1231 1213
f 1199 1223 1197
f 1203 1227 1226
f 1189 1218 1187
f 1209 1230 1229
f 1195 1221 1193
f 1185 1232 1215
f 1187 1217 1185
f 1201 1224 1199
f 1207 1227 1205
f 1189 1220 1219
f 1213 1230 1211
f 1197 1222 1195
f 1233 1250 1249
f 1226 1241 1225
f 1223 1240 1239
f 1222 1237 1221
f 1217 1248 1232
f 1220 1235 1219
f 1231 1246 1230
f 1217 1234 1233
f 1229 1244 1228
f 1227 1242 1226
f 1224 1241 1240
f 1222 1239 1238
f 1221 1236 1220
f 1232 1247 1231
f 1218 1235 1234
f 1229 1246 1245
f 1260 1262 1264
f 1245 1260 1244
f 1243 1258 1242
f 1241 1256 1240
f 1239 1254 1238
f 1237 1252 1236
f 1248 1263 1247
f 1235 1250 1234
f 1246 1261 1245
f 1244 1259 1243
f 1242 1257 1241
f 1240 1255 1239
f 1237 1254 1253
f 1233 1264 1248
f 1236 1251 1235
f 1247 1262 1246
f 1275 1271 1267
f 1216 1265 1186
f 1186 1266 1188
f 1200 1273 1202
f 1206 1276 1208
f 1190 1268 1192
f 1214 1278 1279
f 1196 1271 1198
f 1204 1273 1274
f 1208 1277 1210
f 1194 1268 1269
f 1216 1279 1280
f 1198 1272 1200
f 1204 1275 1206
f 1190 1266 1267
f 1212 1277 1278
f 1186 1188 1187
f 1188 1190 1189
f 1190 1192 1191
f 1192 1194 1193
f 1194 1196 1195
f 1196 1198 1197
f 1198 1200 1199
f 1200 1202 1201
f 1202 1204 1203
f 1204 1206 1205
f 1206 1208 1207
f 1208 1210 1209
f 1210 1212 1211
f 1212 1214 1213
f 1196 1194 1269
f 1216 1186 1185
f 1214 1216 1215
f 1203 1226 1225
f 1228 1244 1243
f 1207 1209 1229
f 1191 1193 1221
f 1215 1232 1231
f 1199 1224 1223
f 1203 1205 1227
f 1189 1219 1218
f 1209 1211 1230
f 1195 1222 1221
f 1185 1217 1232
f 1187 1218 1217
f 1201 1225 1224
f 1207 1228 1227
f 1189 1191 1220
f 1213 1231 1230
f 1197 1223 1222
f 1233 1234 1250
f 1226 1242 1241
f 1223 1224 1240
f 1222 1238 1237
f 1217 1233 1248
f 1220 1236 1235
f 1231 1247 1246
f 1217 1218 1234
f 1229 1245 1244
f 1227 1243 1242
f 1224 1225 1241
f 1222 1223 1239
f 1221 1237 1236
f 1232 1248 1247
f 1218 1219 1235
f 1229 1230 1246
f 1264 1249 1250
f 1250 1251 1252
f 1252 1253 1254
f 1254 1255 1256
f 1256 1257 1258
f 1258 1259 1260
f 1260 1261 1262
f 1262 1263 1264
f 1264 1250 1252
f 1252 1254 1264
f 1254 1256 1264
f 1256 1258 1264
f 1258 1260 1264
f 1245 1261 1260
f 1243 1259 1258
f 1241 1257 1256
f 1239 1255 1254
f 1237 1253 1252
f 1248 1264 1263
f 1235 1251 1250
f 1246 1262 1261
f 1244 1260 1259
f 1242 1258 1257
f 1240 1256 1255
f 1237 1238 1254
f 1233 1249 1264
f 1236 1252 1251
f 1247 1263 1262
f 1267 1266 1265
f 1265 1280 1279
f 1279 1278 1277
f 1277 1276 1275
f 1275 1274 1273
f 1273 1272 1271
f 1271 1270 1269
f 1269 1268 1267
f 1267 1265 1279
f 1279 1277 1267
f 1277 1275 1267
f 1275 1273 1271
f 1271 1269 1267
f 1216 1280 1265
f 1186 1265 1266
f 1200 1272 1273
f 1206 1275 1276
f 1190 1267 1268
f 1214 1212 1278
f 1196 1270 1271
f 1204 1202 1273
f 1208 1276 1277
f 1194 1192 1268
f 1216 1214 1279
f 1198 1271 1272
f 1204 1274 1275
f 1190 1188 1266
f 1212 1210 1277
v -12.1919184 2.8728926 -4.0513239
v -11.8433485 2.8728926 -4.0513239
v -12.1919184 2.8334160 -4.2497859
v -11.8433485 2.8334160 -4.2497859
v -12.1919184 2.7209964 -4.4180336
v -11.8433485 2.7209966 -4.4180336
v -12.1919184 2.5527487 -4.5304532
v -11.8433485 2.5527487 -4.5304532
v -12.1919184 2.3542869 -4.5699296
v -11.8433485 2.3542869 -4.5699296
v -12.1919184 2.1558249 -4.5304532
v -11.8433485 2.1558251 -4.5304532
v -12.1919184 1.9875772 -4.4180336
v -11.8433485 1.9875773 -4.4180336
v -12.1919184 1.8751577 -4.2497859
v -11.8433485 1.8751577 -4.2497859
v -12.1919184 1.8356812 -4.0513239
v -11.8433485 1.8356812 -4.0513239
v -12.1919184 1.8751577 -3.8528621
v -11.8433485 1.8751577 -3.8528621
v -12.1919184 1.9875772 -3.6846144
v -11.8433485 1.9875772 -3.6846144
v -12.1919184 2.1558251 -3.5721948
v -11.8433485 2.1558251 -3.5721946
v -12.1919184 2.3542869 -3.5327182
v -11.8433485 2.3542869 -3.5327182
v -12.1919184 2.5527489 -3.5721948
v -11.8433485 2.5527489 -3.5721948
v -12.1919184 2.7209966 -3.6846144
v -11.8433485 2.7209966 -3.6846144
v -12.1919184 2.8334162 -3.8528624
v -11.8433485 2.8334162 -3.8528624
v -12.2538843 2.7850242 -4.0513239
v -12.2538843 2.7522361 -4.2161598
v -12.2538843 2.6588640 -4.3559012
v -12.2538843 2.5191228 -4.4492731
v -12.2538843 2.3542869 -4.4820614
v -12.2538843 2.1894507 -4.4492731
v -12.2538843 2.0497096 -4.3559012
v -12.2538843 1.9563376 -4.2161598
v -12.2538843 1.9235497 -4.0513239
v -12.2538843 1.9563376 -3.8864880
v -12.2538843 2.0497096 -3.7467468
v -12.2538843 2.1894510 -3.6533747
v -12.2538843 2.3542869 -3.6205866
v -12.2538843 2.5191231 -3.6533747
v -12.2538843 2.6588643 -3.7467468
v -12.2538843 2.7522364 -3.8864882
v -12.2538843 2.6151831 -4.0513239
v -12.2538843 2.5953236 -4.1511645
v -12.2538843 2.5387683 -4.2358055
v -12.2538843 2.4541276 -4.2923603
v -12.2538843 2.3542869 -4.3122201
v -12.2538843 2.2544463 -4.2923603
v -12.2538843 2.1698055 -4.2358055
v -12.2538843 2.1132503 -4.1511645
v -12.2538843 2.0933907 -4.0513239
v -12.2538843 2.1132503 -3.9514835
v -12.2538843 2.1698055 -3.8668425
v -12.2538843 2.2544463 -3.8102872
v -12.2538843 2.3542869 -3.7904279
v -12.2538843 2.4541276 -3.8102875
v -12.2538843 2.5387683 -3.8668425
v -12.2538843 2.5953236 -3.9514835
v -12.1966896 2.5458405 -4.0513239
v -12.1966896 2.5312593 -4.1246285
v -12.1966896 2.4897358 -4.1867728
v -12.1966896 2.4275913 -4.2282963
v -12.1966896 2.3542869 -4.2428775
v -12.1966896 2.2809825 -4.2282963
v -12.1966896 2.2188380 -4.1867728
v -12.1966896 2.1773145 -4.1246285
v -12.1966896 2.1627333 -4.0513239
v -12.1966896 2.1773145 -3.9780195
v -12.1966896 2.2188380 -3.9158752
v -12.1966896 2.2809825 -3.8743515
v -12.1966896 2.3542869 -3.8597703
v -12.1966896 2.4275913 -3.8743515
v -12.1966896 2.4897358 -3.9158752
v -12.1966896 2.5312593 -3.9780197
v -11.7746143 2.7857862 -4.0513239
v -11.7746143 2.7529402 -4.2164516
v -11.7746143 2.6594028 -4.3564396
v -11.7746143 2.5194144 -4.4499769
v -11.7746143 2.3542869 -4.4828229
v -11.7746143 2.1891594 -4.4499769
v -11.7746143 2.0491710 -4.3564396
v -11.7746143 1.9556338 -4.2164516
v -11.7746143 1.9227878 -4.0513239
v -11.7746143 1.9556336 -3.8861964
v -11.7746143 2.0491710 -3.7462080
v -11.7746143 2.1891594 -3.6526706
v -11.7746143 2.3542869 -3.6198246
v -11.7746143 2.5194147 -3.6526706
v -11.7746143 2.6594031 -3.7462080
v -11.7746143 2.7529402 -3.8861964
f 1282 1283 1281
f 1284 1285 1283
f 1286 1287 1285
f 1288 1289 1287
f 1290 1291 1289
f 1292 1293 1291
f 1294 1295 1293
f 1296 1297 1295
f 1298 1299 1297
f 1300 1301 1299
f 1302 1303 1301
f 1304 1305 1303
f 1306 1307 1305
f 1308 1309 1307
f 1292 1365 1366
f 1312 1281 1311
f 1310 1311 1309
f 1299 1321 1297
f 1324 1339 1323
f 1303 1325 1324
f 1287 1317 1316
f 1311 1327 1309
f 1295 1319 1293
f 1299 1323 1322
f 1285 1314 1283
f 1305 1326 1325
f 1291 1317 1289
f 1281 1328 1311
f 1283 1313 1281
f 1297 1320 1295
f 1303 1323 1301
f 1285 1316 1315
f 1309 1326 1307
f 1293 1318 1291
f 1329 1346 1345
f 1322 1337 1321
f 1319 1336 1335
f 1318 1333 1317
f 1313 1344 1328
f 1316 1331 1315
f 1327 1342 1326
f 1313 1330 1329
f 1325 1340 1324
f 1323 1338 1322
f 1320 1337 1336
f 1318 1335 1334
f 1317 1332 1316
f 1328 1343 1327
f 1314 1331 1330
f 1325 1342 1341
f 1356 1358 1360
f 1341 1356 1340
f 1339 1354 1338
f 1337 1352 1336
f 1335 1350 1334
f 1333 1348 1332
f 1344 1359 1343
f 1331 1346 1330
f 1342 1357 1341
f 1340 1355 1339
f 1338 1353 1337
f 1336 1351 1335
f 1333 1350 1349
f 1329 1360 1344
f 1332 1347 1331
f 1343 1358 1342
f 1371 1367 1363
f 1312 1361 1282
f 1282 1362 1284
f 1296 1369 1298
f 1302 1372 1304
f 1286 1364 1288
f 1310 1374 1375
f 1292 1367 1294
f 1300 1369 1370
f 1304 1373 1306
f 1290 1364 1365
f 1312 1375 1376
f 1294 1368 1296
f 1300 1371 1302
f 1286 1362 1363
f 1308 1373 1374
f 1282 1284 1283
f 1284 1286 1285
f 1286 1288 1287
f 1288 1290 1289
f 1290 1292 1291
f 1292 1294 1293
f 1294 1296 1295
f 1296 1298 1297
f 1298 1300 1299
f 1300 1302 1301
f 1302 1304 1303
f 1304 1306 1305
f 1306 1308 1307
f 1308 1310 1309
f 1292 1290 1365
f 1312 1282 1281
f 1310 1312 1311
f 1299 1322 1321
f 1324 1340 1339
f 1303 1305 1325
f 1287 1289 1317
f 1311 1328 1327
f 1295 1320 1319
f 1299 1301 1323
f 1285 1315 1314
f 1305 1307 1326
f 1291 1318 1317
f 1281 1313 1328
f 1283 1314 1313
f 1297 1321 1320
f 1303 1324 1323
f 1285 1287 1316
f 1309 1327 1326
f 1293 1319 1318
f 1329 1330 1346
f 1322 1338 1337
f 1319 1320 1336
f 1318 1334 1333
f 1313 1329 1344
f 1316 1332 1331
f 1327 1343 1342
f 1313 1314 1330
f 1325 1341 1340
f 1323 1339 1338
f 1320 1321 1337
f 1318 1319 1335
f 1317 1333 1332
f 1328 1344 1343
f 1314 1315 1331
f 1325 1326 1342
f 1360 1345 1346
f 1346 1347 1348
f 1348 1349 1350
f 1350 1351 1352
f 1352 1353 1354
f 1354 1355 1356
f 1356 1357 1358
f 1358 1359 1360
f 1360 1346 1348
f 1348 1350 1360
f 1350 1352 1360
f 1352 1354 1360
f 1354 1356 1360
f 1341 1357 1356
f 1339 1355 1354
f 1337 1353 1352
f 1335 1351 1350
f 1333 1349 1348
f 1344 1360 1359
f 1331 1347 1346
f 1342 1358 1357
f 1340 1356 1355
f 1338 1354 1353
f 1336 1352 1351
f 1333 1334 1350
f 1329 1345 1360
f 1332 1348 1347
f 1343 1359 1358
f 1363 1362 1361
f 1361 1376 1375
f 1375 1374 1373
f 1373 1372 1371
f 1371 1370 1369
f 1369 1368 1367
f 1367 1366 1365
f 1365 1364 1363
f 1363 1361 1375
f 1375 1373 1363
f 1373 1371 1363
f 1371 1369 1367
f 1367 1365 1363
f 1312 1376 1361
f 1282 1361 1362
f 1296 1368 1369
f 1302 1371 1372
f 1286 1363 1364
f 1310 1308 1374
f 1292 1366 1367
f 1300 1298 1369
f 1304 1372 1373
f 1290 1288 1364
f 1312 1310 1375
f 1294 1367 1368
f 1300 1370 1371
f 1286 1284 1362
f 1308 1306 1373
